{
copyright = "Copyright \U00A9 2015 by Lipi Raval.";
customParameters = (
{
name = glyphOrder;
value = (
    gjA,
    gjAA,
    gjI,
    gjII,
    gjU,
    gjUU,
    gjvR,
    gjvRR,
    gjvL,
    gjvLL,
    gjE,
    gjAI,
    gjO,
    gjAU,
    gjEcandra,
    gjOcandra,
    gjmAA,
    gjmI,
    gjmII,
    gjmU,
    gjmUU,
    gjmvR,
    gjmvRR,
    gjmvL,
    gjmvLL,
    gjmE,
    gjmAI,
    gjmO,
    gjmAU,
    gjmEcandra,
    gjmOcandra,
    gjKA,
    gjKHA,
    gjGA,
    gjGHA,
    gjNGA,
    gjCA,
    gjCHA,
    gjJA,
    gjJHA,
    gjNYA,
    gjTTA,
    gjTTHA,
    gjDDA,
    gjDDHA,
    gjNNA,
    gjTA,
    gjTHA,
    gjDA,
    gjDHA,
    gjNA,
    gjPA,
    gjPHA,
    gjBA,
    gjBHA,
    gjMA,
    gjYA,
    gjRA,
    gjLA,
    gjVA,
    gjSHA,
    gjSSA,
    gjSA,
    gjHA,
    gjLLA,
    "gjK_SSA",
    "gjJ_NYA",
    gjAnusvara,
    gjCandrabindu,
    gjVisarga,
    gjVirama,
    gjNukta,
    gjAvagraha,
    udatta,
    anudatta,
    gjZero,
    gjOne,
    gjTwo,
    gjThree,
    gjFour,
    gjFive,
    gjSix,
    gjSeven,
    gjEight,
    gjNine,
    gjOm,
    gjAbbreviationsign,
    gjRupeesign,
    ".notdef",
    NULL,
    CR,
    space,
    danda,
    doubledanda,
    indianrupee,
    zerowidthnonjoiner,
    zerowidthjoiner,
    dottedcircle,
    gjReph,
    gjRAc2,
    gjK,
    gjKH,
    gjG,
    gjGH,
    gjNG,
    gjC,
    gjCH,
    gjJ,
    gjJH,
    gjNY,
    gjTT,
    gjTTH,
    gjDD,
    gjDDH,
    gjNN,
    gjT,
    gjTH,
    gjD,
    gjDH,
    gjN,
    gjP,
    gjPH,
    gjB,
    gjBH,
    gjM,
    gjY,
    gjR,
    gjL,
    gjV,
    gjSH,
    gjSS,
    gjS,
    gjH,
    gjLL,
    "gjK_SS",
    "gjJ_NY",
    "gjK_RA",
    "gjKH_RA",
    "gjG_RA",
    "gjGH_RA",
    "gjNG_RA",
    "gjC_RA",
    "gjCH_RA",
    "gjJ_RA",
    "gjJH_RA",
    "gjNY_RA",
    "gjTT_RA",
    "gjTTH_RA",
    "gjDD_RA",
    "gjDDH_RA",
    "gjNN_RA",
    "gjT_RA",
    "gjTH_RA",
    "gjD_RA",
    "gjDH_RA",
    "gjN_RA",
    "gjP_RA",
    "gjPH_RA",
    "gjB_RA",

glyphs = (
{
glyphname = gjA;
lastChange = "2015-10-15 16:45:54 +0000";
layers = (
{
background = {
paths = (
{
closed = 1;
nodes = (
"495 257 OFFCURVE",
"521 238 OFFCURVE",
"540 238 CURVE SMOOTH",
"558 238 OFFCURVE",
"591 264 OFFCURVE",
"609 285 CURVE",
"630 265 LINE",
"599 230 OFFCURVE",
"536 144 OFFCURVE",
"536 121 CURVE SMOOTH",
"536 82 OFFCURVE",
"654 0 OFFCURVE",
"690 0 CURVE SMOOTH",
"742 0 OFFCURVE",
"896 76 OFFCURVE",
"896 130 CURVE SMOOTH",
"896 183 OFFCURVE",
"861 222 OFFCURVE",
"796 241 CURVE",
"765 208 OFFCURVE",
"738 188 OFFCURVE",
"695 160 CURVE",
"740 285 OFFCURVE",
"819 450 OFFCURVE",
"819 493 CURVE SMOOTH",
"819 520 OFFCURVE",
"705 593 OFFCURVE",
"671 593 CURVE SMOOTH",
"641 593 OFFCURVE",
"635 477 OFFCURVE",
"557 385 CURVE",
"516 423 OFFCURVE",
"493 451 OFFCURVE",
"470 451 CURVE SMOOTH",
"439 451 OFFCURVE",
"387 383 OFFCURVE",
"387 362 CURVE SMOOTH",
"387 346 OFFCURVE",
"419 318 OFFCURVE",
"462 282 CURVE",
"435 339 LINE",
"367 284 OFFCURVE",
"327 256 OFFCURVE",
"252 225 CURVE",
"220 268 LINE",
"334 333 OFFCURVE",
"415 432 OFFCURVE",
"415 495 CURVE SMOOTH",
"415 545 OFFCURVE",
"325 619 OFFCURVE",
"269 619 CURVE SMOOTH",
"199 619 OFFCURVE",
"76 587 OFFCURVE",
"76 518 CURVE SMOOTH",
"76 482 OFFCURVE",
"102 448 OFFCURVE",
"142 415 CURVE",
"191 441 OFFCURVE",
"225 455 OFFCURVE",
"287 475 CURVE",
"243 408 OFFCURVE",
"182 363 OFFCURVE",
"82 316 CURVE",
"140 288 LINE",
"118 352 OFFCURVE",
"79 429 OFFCURVE",
"44 429 CURVE SMOOTH",
"2 429 OFFCURVE",
"-60 376 OFFCURVE",
"-60 346 CURVE SMOOTH",
"-60 305 OFFCURVE",
"-3 228 OFFCURVE",
"38 228 CURVE SMOOTH",
"63 228 OFFCURVE",
"92 246 OFFCURVE",
"109 268 CURVE",
"56 251 LINE",
"86 183 OFFCURVE",
"153 82 OFFCURVE",
"239 82 CURVE SMOOTH",
"329 82 OFFCURVE",
"450 200 OFFCURVE",
"514 274 CURVE",
"482 271 LINE"
);
}
);
};
layerId = "AF1B7CCB-9C31-456C-8386-1D362D80AEF6";
name = "Bold Italic";
paths = (
{
closed = 1;
nodes = (
"492 259 OFFCURVE",
"526 239 OFFCURVE",
"540 239 CURVE SMOOTH",
"560 239 OFFCURVE",
"588 261 OFFCURVE",
"610 285 CURVE",
"632 270 LINE",
"605 230 OFFCURVE",
"541 147 OFFCURVE",
"541 124 CURVE SMOOTH",
"541 85 OFFCURVE",
"660 0 OFFCURVE",
"696 0 CURVE SMOOTH",
"748 0 OFFCURVE",
"902 76 OFFCURVE",
"902 130 CURVE SMOOTH",
"902 183 OFFCURVE",
"867 222 OFFCURVE",
"802 241 CURVE",
"771 208 OFFCURVE",
"744 188 OFFCURVE",
"701 160 CURVE",
"746 285 OFFCURVE",
"825 450 OFFCURVE",
"825 493 CURVE SMOOTH",
"825 520 OFFCURVE",
"711 593 OFFCURVE",
"674 593 CURVE SMOOTH",
"653 593 OFFCURVE",
"632 463 OFFCURVE",
"562 385 CURVE",
"518 420 OFFCURVE",
"486 449 OFFCURVE",
"462 449 CURVE SMOOTH",
"437 449 OFFCURVE",
"389 380 OFFCURVE",
"389 358 CURVE SMOOTH",
"389 343 OFFCURVE",
"418 321 OFFCURVE",
"460 289 CURVE",
"435 339 LINE",
"367 284 OFFCURVE",
"327 255 OFFCURVE",
"252 224 CURVE",
"219 268 LINE",
"332 330 OFFCURVE",
"418 431 OFFCURVE",
"418 492 CURVE SMOOTH",
"418 545 OFFCURVE",
"331 619 OFFCURVE",
"275 619 CURVE SMOOTH",
"196 619 OFFCURVE",
"76 586 OFFCURVE",
"76 518 CURVE SMOOTH",
"76 480 OFFCURVE",
"100 449 OFFCURVE",
"137 419 CURVE",
"185 446 OFFCURVE",
"228 462 OFFCURVE",
"287 480 CURVE",
"241 405 OFFCURVE",
"180 355 OFFCURVE",
"86 314 CURVE",
"137 306 LINE",
"118 346 OFFCURVE",
"83 423 OFFCURVE",
"48 425 CURVE SMOOTH",
"6 427 OFFCURVE",
"-59 377 OFFCURVE",
"-60 347 CURVE SMOOTH",
"-63 306 OFFCURVE",
"-6 230 OFFCURVE",
"35 230 CURVE SMOOTH",
"60 230 OFFCURVE",
"89 248 OFFCURVE",
"106 270 CURVE",
"53 253 LINE",
"86 177 OFFCURVE",
"159 85 OFFCURVE",
"239 85 CURVE SMOOTH",
"329 85 OFFCURVE",
"450 200 OFFCURVE",
"514 274 CURVE",
"478 277 LINE"
);
}
);
width = 945;
}
);
leftKerningGroup = gjA;
leftMetricsKey = gjCA;
rightKerningGroup = gjA;
rightMetricsKey = gjmAA;
unicode = 0A85;
},
{
glyphname = gjAA;
lastChange = "2015-10-03 17:46:43 +0000";
layers = (
{
background = {
components = (
{
name = gjA;
},
{
name = gjmAA;
transform = "{1, 0, 0, 1, 945, 0}";
}
);
};
layerId = "AF1B7CCB-9C31-456C-8386-1D362D80AEF6";
name = "Bold Italic";
paths = (
{
closed = 1;
nodes = (
"492 259 OFFCURVE",
"526 239 OFFCURVE",
"540 239 CURVE SMOOTH",
"560 239 OFFCURVE",
"588 261 OFFCURVE",
"610 285 CURVE",
"632 270 LINE",
"605 230 OFFCURVE",
"541 147 OFFCURVE",
"541 124 CURVE SMOOTH",
"541 85 OFFCURVE",
"660 0 OFFCURVE",
"696 0 CURVE SMOOTH",
"748 0 OFFCURVE",
"902 76 OFFCURVE",
"902 130 CURVE SMOOTH",
"902 183 OFFCURVE",
"867 222 OFFCURVE",
"802 241 CURVE",
"771 208 OFFCURVE",
"744 188 OFFCURVE",
"701 160 CURVE",
"746 285 OFFCURVE",
"825 450 OFFCURVE",
"825 493 CURVE SMOOTH",
"825 520 OFFCURVE",
"711 593 OFFCURVE",
"674 593 CURVE SMOOTH",
"653 593 OFFCURVE",
"632 463 OFFCURVE",
"562 385 CURVE",
"518 420 OFFCURVE",
"486 449 OFFCURVE",
"462 449 CURVE SMOOTH",
"437 449 OFFCURVE",
"389 380 OFFCURVE",
"389 358 CURVE SMOOTH",
"389 343 OFFCURVE",
"418 321 OFFCURVE",
"460 289 CURVE",
"435 339 LINE",
"367 284 OFFCURVE",
"327 255 OFFCURVE",
"252 224 CURVE",
"219 268 LINE",
"332 330 OFFCURVE",
"418 431 OFFCURVE",
"418 492 CURVE SMOOTH",
"418 545 OFFCURVE",
"331 619 OFFCURVE",
"275 619 CURVE SMOOTH",
"196 619 OFFCURVE",
"76 586 OFFCURVE",
"76 518 CURVE SMOOTH",
"76 480 OFFCURVE",
"100 449 OFFCURVE",
"137 419 CURVE",
"185 446 OFFCURVE",
"228 462 OFFCURVE",
"287 480 CURVE",
"241 405 OFFCURVE",
"180 355 OFFCURVE",
"86 314 CURVE",
"137 306 LINE",
"118 346 OFFCURVE",
"83 423 OFFCURVE",
"48 425 CURVE SMOOTH",
"6 427 OFFCURVE",
"-59 377 OFFCURVE",
"-60 347 CURVE SMOOTH",
"-63 306 OFFCURVE",
"-6 230 OFFCURVE",
"35 230 CURVE SMOOTH",
"60 230 OFFCURVE",
"89 248 OFFCURVE",
"106 270 CURVE",
"53 253 LINE",
"86 177 OFFCURVE",
"159 85 OFFCURVE",
"239 85 CURVE SMOOTH",
"329 85 OFFCURVE",
"450 200 OFFCURVE",
"514 274 CURVE",
"478 277 LINE"
);
},
{
closed = 1;
nodes = (
"1139 0 OFFCURVE",
"1293 76 OFFCURVE",
"1293 130 CURVE SMOOTH",
"1293 183 OFFCURVE",
"1258 222 OFFCURVE",
"1193 241 CURVE",
"1162 208 OFFCURVE",
"1135 188 OFFCURVE",
"1092 160 CURVE",
"1137 285 OFFCURVE",
"1216 450 OFFCURVE",
"1216 493 CURVE SMOOTH",
"1216 520 OFFCURVE",
"1104 593 OFFCURVE",
"1065 593 CURVE SMOOTH",
"1046 593 OFFCURVE",
"1027 501 OFFCURVE",
"1001 389 CURVE SMOOTH",
"972 266 OFFCURVE",
"932 140 OFFCURVE",
"932 125 CURVE SMOOTH",
"932 83 OFFCURVE",
"1053 0 OFFCURVE",
"1087 0 CURVE SMOOTH"
);
}
);
width = 1336;
}
);
leftKerningGroup = gjA;
leftMetricsKey = gjA;
rightKerningGroup = gjA;
rightMetricsKey = gjmAA;
unicode = 0A86;
},
{
color = 1;
glyphname = gjI;
lastChange = "2015-10-04 15:13:09 +0000";
layers = (
{
anchors = (
{
name = abvm;
position = "{86, 642}";
}
);
background = {
paths = (
{
closed = 1;
nodes = (
"319 658 OFFCURVE",
"433 592 OFFCURVE",
"433 471 CURVE SMOOTH",
"433 307 OFFCURVE",
"348 190 OFFCURVE",
"169 144 CURVE",
"212 231 OFFCURVE",
"314 302 OFFCURVE",
"314 344 CURVE SMOOTH",
"314 369 OFFCURVE",
"256 378 OFFCURVE",
"191 419 CURVE",
"246 456 OFFCURVE",
"288 474 OFFCURVE",
"343 490 CURVE",
"361 546 OFFCURVE",
"336 610 OFFCURVE",
"270 620 CURVE",
"154 604 OFFCURVE",
"23 509 OFFCURVE",
"23 457 CURVE SMOOTH",
"23 413 OFFCURVE",
"81 368 OFFCURVE",
"137 336 CURVE",
"91 289 OFFCURVE",
"14 218 OFFCURVE",
"14 165 CURVE SMOOTH",
"14 107 OFFCURVE",
"133 0 OFFCURVE",
"211 0 CURVE SMOOTH",
"381 0 OFFCURVE",
"570 224 OFFCURVE",
"570 373 CURVE SMOOTH",
"570 496 OFFCURVE",
"506 581 OFFCURVE",
"467 633 CURVE",
"503 670 OFFCURVE",
"542 691 OFFCURVE",
"577 707 CURVE",
"579 779 OFFCURVE",
"537 850 OFFCURVE",
"462 853 CURVE",
"404 826 OFFCURVE",
"319 773 OFFCURVE",
"319 719 CURVE SMOOTH"
);
}
);
};
layerId = "AF1B7CCB-9C31-456C-8386-1D362D80AEF6";
name = "Bold Italic";
paths = (
{
closed = 1;
nodes = (
"319 658 OFFCURVE",
"433 592 OFFCURVE",
"433 471 CURVE SMOOTH",
"433 304 OFFCURVE",
"351 183 OFFCURVE",
"163 131 CURVE",
"197 219 OFFCURVE",
"314 302 OFFCURVE",
"314 344 CURVE SMOOTH",
"314 369 OFFCURVE",
"256 378 OFFCURVE",
"191 419 CURVE",
"246 456 OFFCURVE",
"288 474 OFFCURVE",
"343 490 CURVE",
"361 546 OFFCURVE",
"336 610 OFFCURVE",
"270 620 CURVE",
"154 604 OFFCURVE",
"23 509 OFFCURVE",
"23 457 CURVE SMOOTH",
"23 413 OFFCURVE",
"81 368 OFFCURVE",
"137 336 CURVE",
"91 289 OFFCURVE",
"14 218 OFFCURVE",
"14 165 CURVE SMOOTH",
"14 107 OFFCURVE",
"133 0 OFFCURVE",
"206 0 CURVE SMOOTH",
"381 0 OFFCURVE",
"570 224 OFFCURVE",
"570 373 CURVE SMOOTH",
"570 496 OFFCURVE",
"506 581 OFFCURVE",
"467 633 CURVE",
"503 670 OFFCURVE",
"542 691 OFFCURVE",
"577 707 CURVE",
"579 779 OFFCURVE",
"537 850 OFFCURVE",
"462 853 CURVE",
"404 826 OFFCURVE",
"319 773 OFFCURVE",
"319 719 CURVE SMOOTH"
);
}
);
width = 599;
},
{
associatedMasterId = "AF1B7CCB-9C31-456C-8386-1D362D80AEF6";
background = {
paths = (
{
closed = 1;
nodes = (
"377 627 OFFCURVE",
"483 534 OFFCURVE",
"483 474 CURVE SMOOTH",
"483 291 OFFCURVE",
"378 176 OFFCURVE",
"161 137 CURVE",
"227 219 OFFCURVE",
"360 293 OFFCURVE",
"360 336 CURVE SMOOTH",
"360 369 OFFCURVE",
"292 378 OFFCURVE",
"226 419 CURVE",
"282 456 OFFCURVE",
"325 474 OFFCURVE",
"381 490 CURVE",
"400 539 OFFCURVE",
"392 606 OFFCURVE",
"306 619 CURVE",
"197 608 OFFCURVE",
"54 514 OFFCURVE",
"54 463 CURVE SMOOTH",
"54 416 OFFCURVE",
"113 368 OFFCURVE",
"171 336 CURVE",
"99 293 OFFCURVE",
"-12 218 OFFCURVE",
"-12 165 CURVE SMOOTH",
"-12 107 OFFCURVE",
"96 -1 OFFCURVE",
"175 -1 CURVE SMOOTH",
"339 -1 OFFCURVE",
"594 118 OFFCURVE",
"594 377 CURVE SMOOTH",
"594 464 OFFCURVE",
"541 561 OFFCURVE",
"496 616 CURVE",
"535 650 OFFCURVE",
"578 666 OFFCURVE",
"613 681 CURVE",
"621 753 OFFCURVE",
"594 818 OFFCURVE",
"518 826 CURVE",
"438 796 OFFCURVE",
"377 740 OFFCURVE",
"377 708 CURVE SMOOTH"
);
}
);
};
layerId = "45BDB546-EFD5-43A5-AE3D-C6EB3BD4BEF2";
name = "Bold Italic Jul 15 15, 20:28";
paths = (
{
closed = 1;
nodes = (
"384 645 OFFCURVE",
"483 555 OFFCURVE",
"483 456 CURVE SMOOTH",
"483 316 OFFCURVE",
"386 187 OFFCURVE",
"181 137 CURVE",
"247 219 OFFCURVE",
"360 293 OFFCURVE",
"360 336 CURVE SMOOTH",
"360 369 OFFCURVE",
"292 378 OFFCURVE",
"226 419 CURVE",
"282 456 OFFCURVE",
"325 474 OFFCURVE",
"381 490 CURVE",
"400 539 OFFCURVE",
"392 606 OFFCURVE",
"306 619 CURVE",
"197 608 OFFCURVE",
"54 514 OFFCURVE",
"54 463 CURVE SMOOTH",
"54 416 OFFCURVE",
"113 368 OFFCURVE",
"171 336 CURVE",
"99 293 OFFCURVE",
"8 218 OFFCURVE",
"8 165 CURVE SMOOTH",
"8 107 OFFCURVE",
"116 -1 OFFCURVE",
"195 -1 CURVE SMOOTH",
"424 -1 OFFCURVE",
"617 204 OFFCURVE",
"617 377 CURVE SMOOTH",
"617 464 OFFCURVE",
"564 561 OFFCURVE",
"529 616 CURVE",
"568 650 OFFCURVE",
"611 666 OFFCURVE",
"646 681 CURVE",
"654 753 OFFCURVE",
"616 827 OFFCURVE",
"540 835 CURVE",
"479 812 OFFCURVE",
"384 761 OFFCURVE",
"384 712 CURVE SMOOTH"
);
}
);
width = 641;
},
{
associatedMasterId = "AF1B7CCB-9C31-456C-8386-1D362D80AEF6";
background = {
paths = (
{
closed = 1;
nodes = (
"332 645 OFFCURVE",
"431 555 OFFCURVE",
"431 456 CURVE SMOOTH",
"431 316 OFFCURVE",
"334 187 OFFCURVE",
"129 137 CURVE",
"195 219 OFFCURVE",
"308 293 OFFCURVE",
"308 336 CURVE SMOOTH",
"308 369 OFFCURVE",
"240 378 OFFCURVE",
"174 419 CURVE",
"230 456 OFFCURVE",
"273 474 OFFCURVE",
"329 490 CURVE",
"348 539 OFFCURVE",
"340 606 OFFCURVE",
"254 619 CURVE",
"145 608 OFFCURVE",
"2 514 OFFCURVE",
"2 463 CURVE SMOOTH",
"2 416 OFFCURVE",
"61 368 OFFCURVE",
"119 336 CURVE",
"47 293 OFFCURVE",
"-44 218 OFFCURVE",
"-44 165 CURVE SMOOTH",
"-44 107 OFFCURVE",
"64 -1 OFFCURVE",
"143 -1 CURVE SMOOTH",
"372 -1 OFFCURVE",
"565 204 OFFCURVE",
"565 377 CURVE SMOOTH",
"565 464 OFFCURVE",
"512 561 OFFCURVE",
"477 616 CURVE",
"516 650 OFFCURVE",
"559 666 OFFCURVE",
"594 681 CURVE",
"602 753 OFFCURVE",
"564 827 OFFCURVE",
"488 835 CURVE",
"427 812 OFFCURVE",
"332 761 OFFCURVE",
"332 712 CURVE SMOOTH"
);
}
);
};
layerId = "83C72328-AB21-4910-9C16-20ADD4EDC109";
name = "Bold Italic Jul 27 15, 21:47";
paths = (
{
closed = 1;
nodes = (
"309 652 OFFCURVE",
"421 583 OFFCURVE",
"421 471 CURVE SMOOTH",
"421 331 OFFCURVE",
"350 207 OFFCURVE",
"154 144 CURVE",
"209 233 OFFCURVE",
"299 303 OFFCURVE",
"299 336 CURVE SMOOTH",
"299 379 OFFCURVE",
"240 378 OFFCURVE",
"174 419 CURVE",
"230 456 OFFCURVE",
"273 474 OFFCURVE",
"329 490 CURVE",
"348 539 OFFCURVE",
"323 605 OFFCURVE",
"254 619 CURVE",
"145 608 OFFCURVE",
"2 514 OFFCURVE",
"2 463 CURVE SMOOTH",
"2 416 OFFCURVE",
"61 368 OFFCURVE",
"119 336 CURVE",
"72 289 OFFCURVE",
"-4 218 OFFCURVE",
"-4 165 CURVE SMOOTH",
"-4 107 OFFCURVE",
"129 -3 OFFCURVE",
"208 -3 CURVE SMOOTH",
"397 -3 OFFCURVE",
"561 234 OFFCURVE",
"561 377 CURVE SMOOTH",
"561 496 OFFCURVE",
"495 581 OFFCURVE",
"456 633 CURVE",
"492 670 OFFCURVE",
"534 689 OFFCURVE",
"568 707 CURVE",
"570 779 OFFCURVE",
"527 850 OFFCURVE",
"451 853 CURVE",
"391 826 OFFCURVE",
"300 768 OFFCURVE",
"304 719 CURVE SMOOTH"
);
}
);
width = 575;
}
);
leftKerningGroup = gjI;
rightKerningGroup = gjI;
unicode = 0A87;
},
{
color = 1;
glyphname = gjII;
lastChange = "2015-10-04 15:13:09 +0000";
layers = (
{
anchors = (
{
name = abvm;
position = "{86, 642}";
}
);
background = {
paths = (
{
closed = 1;
nodes = (
"315 646 OFFCURVE",
"444 557 OFFCURVE",
"444 441 CURVE SMOOTH",
"444 307 OFFCURVE",
"348 190 OFFCURVE",
"169 144 CURVE",
"212 231 OFFCURVE",
"314 302 OFFCURVE",
"314 344 CURVE SMOOTH",
"314 369 OFFCURVE",
"256 378 OFFCURVE",
"191 419 CURVE",
"246 456 OFFCURVE",
"288 474 OFFCURVE",
"343 490 CURVE",
"361 546 OFFCURVE",
"336 610 OFFCURVE",
"270 620 CURVE",
"154 604 OFFCURVE",
"23 509 OFFCURVE",
"23 457 CURVE SMOOTH",
"23 413 OFFCURVE",
"81 368 OFFCURVE",
"137 336 CURVE",
"91 289 OFFCURVE",
"14 218 OFFCURVE",
"14 165 CURVE SMOOTH",
"14 107 OFFCURVE",
"144 0 OFFCURVE",
"222 0 CURVE SMOOTH",
"392 0 OFFCURVE",
"581 224 OFFCURVE",
"581 373 CURVE SMOOTH",
"581 514 OFFCURVE",
"453 612 OFFCURVE",
"453 690 CURVE SMOOTH",
"453 724 OFFCURVE",
"481 758 OFFCURVE",
"516 762 CURVE",
"527 734 OFFCURVE",
"517 704 OFFCURVE",
"500 676 CURVE",
"515 638 OFFCURVE",
"557 604 OFFCURVE",
"633 603 CURVE",
"657 636 OFFCURVE",
"666 673 OFFCURVE",
"666 711 CURVE SMOOTH",
"666 779 OFFCURVE",
"512 878 OFFCURVE",
"434 878 CURVE SMOOTH",
"357 878 OFFCURVE",
"315 814 OFFCURVE",
"315 754 CURVE SMOOTH"
);
}
);
};
layerId = "AF1B7CCB-9C31-456C-8386-1D362D80AEF6";
name = "Bold Italic";
paths = (
{
closed = 1;
nodes = (
"315 646 OFFCURVE",
"444 557 OFFCURVE",
"444 441 CURVE SMOOTH",
"444 304 OFFCURVE",
"343 180 OFFCURVE",
"163 131 CURVE",
"204 231 OFFCURVE",
"314 301 OFFCURVE",
"314 344 CURVE SMOOTH",
"314 369 OFFCURVE",
"256 378 OFFCURVE",
"191 419 CURVE",
"246 456 OFFCURVE",
"288 474 OFFCURVE",
"343 490 CURVE",
"361 546 OFFCURVE",
"336 610 OFFCURVE",
"270 620 CURVE",
"154 604 OFFCURVE",
"23 509 OFFCURVE",
"23 457 CURVE SMOOTH",
"23 413 OFFCURVE",
"81 368 OFFCURVE",
"137 336 CURVE",
"91 289 OFFCURVE",
"14 218 OFFCURVE",
"14 165 CURVE SMOOTH",
"14 110 OFFCURVE",
"134 0 OFFCURVE",
"212 0 CURVE SMOOTH",
"379 0 OFFCURVE",
"581 228 OFFCURVE",
"581 373 CURVE SMOOTH",
"581 514 OFFCURVE",
"453 612 OFFCURVE",
"453 690 CURVE SMOOTH",
"453 724 OFFCURVE",
"481 758 OFFCURVE",
"516 762 CURVE",
"527 734 OFFCURVE",
"517 704 OFFCURVE",
"500 676 CURVE",
"515 638 OFFCURVE",
"557 604 OFFCURVE",
"633 603 CURVE",
"657 636 OFFCURVE",
"666 673 OFFCURVE",
"666 711 CURVE SMOOTH",
"666 779 OFFCURVE",
"512 878 OFFCURVE",
"434 878 CURVE SMOOTH",
"357 878 OFFCURVE",
"315 814 OFFCURVE",
"315 754 CURVE SMOOTH"
);
}
);
width = 619;
},
{
associatedMasterId = "AF1B7CCB-9C31-456C-8386-1D362D80AEF6";
background = {
paths = (
{
closed = 1;
nodes = (
"384 645 OFFCURVE",
"483 555 OFFCURVE",
"483 456 CURVE SMOOTH",
"483 316 OFFCURVE",
"386 187 OFFCURVE",
"181 137 CURVE",
"247 219 OFFCURVE",
"360 293 OFFCURVE",
"360 336 CURVE SMOOTH",
"360 369 OFFCURVE",
"292 378 OFFCURVE",
"226 419 CURVE",
"282 456 OFFCURVE",
"325 474 OFFCURVE",
"381 490 CURVE",
"400 539 OFFCURVE",
"392 606 OFFCURVE",
"306 619 CURVE",
"197 608 OFFCURVE",
"54 514 OFFCURVE",
"54 463 CURVE SMOOTH",
"54 416 OFFCURVE",
"113 368 OFFCURVE",
"171 336 CURVE",
"99 293 OFFCURVE",
"8 218 OFFCURVE",
"8 165 CURVE SMOOTH",
"8 107 OFFCURVE",
"116 -1 OFFCURVE",
"195 -1 CURVE SMOOTH",
"424 -1 OFFCURVE",
"617 204 OFFCURVE",
"617 377 CURVE SMOOTH",
"617 464 OFFCURVE",
"564 561 OFFCURVE",
"529 616 CURVE",
"568 650 OFFCURVE",
"611 666 OFFCURVE",
"646 681 CURVE",
"654 753 OFFCURVE",
"616 827 OFFCURVE",
"540 835 CURVE",
"479 812 OFFCURVE",
"384 761 OFFCURVE",
"384 712 CURVE SMOOTH"
);
}
);
};
layerId = "130CFE0B-97C4-49FE-994E-2D446186113E";
name = "Bold Italic Jul 15 15, 20:31";
paths = (
{
closed = 1;
nodes = (
"611 546 OFFCURVE",
"671 508 OFFCURVE",
"717 511 CURVE",
"748 537 OFFCURVE",
"762 579 OFFCURVE",
"762 612 CURVE SMOOTH",
"762 700 OFFCURVE",
"599 822 OFFCURVE",
"491 822 CURVE SMOOTH",
"423 822 OFFCURVE",
"384 783 OFFCURVE",
"384 722 CURVE SMOOTH",
"384 634 OFFCURVE",
"483 560 OFFCURVE",
"483 456 CURVE SMOOTH",
"483 316 OFFCURVE",
"386 187 OFFCURVE",
"181 137 CURVE",
"247 219 OFFCURVE",
"360 293 OFFCURVE",
"360 336 CURVE SMOOTH",
"360 369 OFFCURVE",
"292 378 OFFCURVE",
"226 419 CURVE",
"282 456 OFFCURVE",
"325 474 OFFCURVE",
"381 490 CURVE",
"400 539 OFFCURVE",
"392 606 OFFCURVE",
"306 619 CURVE",
"197 608 OFFCURVE",
"54 514 OFFCURVE",
"54 463 CURVE SMOOTH",
"54 416 OFFCURVE",
"113 368 OFFCURVE",
"171 336 CURVE",
"99 293 OFFCURVE",
"8 218 OFFCURVE",
"8 165 CURVE SMOOTH",
"8 107 OFFCURVE",
"116 -1 OFFCURVE",
"195 -1 CURVE SMOOTH",
"405 -1 OFFCURVE",
"617 191 OFFCURVE",
"617 377 CURVE SMOOTH",
"617 503 OFFCURVE",
"527 583 OFFCURVE",
"527 649 CURVE SMOOTH",
"527 677 OFFCURVE",
"541 696 OFFCURVE",
"567 696 CURVE SMOOTH",
"592 696 OFFCURVE",
"620 676 OFFCURVE",
"620 648 CURVE SMOOTH",
"620 637 OFFCURVE",
"607 619 OFFCURVE",
"591 598 CURVE"
);
}
);
width = 730;
},
{
associatedMasterId = "AF1B7CCB-9C31-456C-8386-1D362D80AEF6";
background = {
paths = (
{
closed = 1;
nodes = (
"525 594 OFFCURVE",
"557 564 OFFCURVE",
"637 563 CURVE",
"662 596 OFFCURVE",
"671 633 OFFCURVE",
"671 671 CURVE SMOOTH",
"671 739 OFFCURVE",
"536 838 OFFCURVE",
"447 838 CURVE SMOOTH",
"372 838 OFFCURVE",
"331 782 OFFCURVE",
"331 719 CURVE SMOOTH",
"331 601 OFFCURVE",
"422 543 OFFCURVE",
"422 441 CURVE SMOOTH",
"422 312 OFFCURVE",
"338 203 OFFCURVE",
"154 144 CURVE",
"209 233 OFFCURVE",
"299 303 OFFCURVE",
"299 336 CURVE SMOOTH",
"299 379 OFFCURVE",
"240 378 OFFCURVE",
"174 419 CURVE",
"230 456 OFFCURVE",
"273 474 OFFCURVE",
"329 490 CURVE",
"348 539 OFFCURVE",
"323 605 OFFCURVE",
"254 619 CURVE",
"145 608 OFFCURVE",
"2 514 OFFCURVE",
"2 463 CURVE SMOOTH",
"2 416 OFFCURVE",
"61 368 OFFCURVE",
"119 336 CURVE",
"72 289 OFFCURVE",
"-4 218 OFFCURVE",
"-4 165 CURVE SMOOTH",
"-4 107 OFFCURVE",
"129 -3 OFFCURVE",
"208 -3 CURVE SMOOTH",
"391 -3 OFFCURVE",
"569 223 OFFCURVE",
"569 369 CURVE SMOOTH",
"569 497 OFFCURVE",
"467 583 OFFCURVE",
"467 650 CURVE SMOOTH",
"467 684 OFFCURVE",
"497 717 OFFCURVE",
"527 721 CURVE",
"537 700 OFFCURVE",
"527 655 OFFCURVE",
"509 632 CURVE"
);
}
);
};
layerId = "C9CA8DA4-9653-4503-9C48-3790ACBDFEC2";
name = "Bold Italic Jul 27 15, 21:58";
paths = (
{
closed = 1;
nodes = (
"525 634 OFFCURVE",
"557 604 OFFCURVE",
"637 603 CURVE",
"662 636 OFFCURVE",
"671 673 OFFCURVE",
"671 711 CURVE SMOOTH",
"671 779 OFFCURVE",
"536 878 OFFCURVE",
"447 878 CURVE SMOOTH",
"372 878 OFFCURVE",
"331 822 OFFCURVE",
"331 740 CURVE SMOOTH",
"331 601 OFFCURVE",
"422 554 OFFCURVE",
"422 441 CURVE SMOOTH",
"422 312 OFFCURVE",
"338 203 OFFCURVE",
"154 144 CURVE",
"209 233 OFFCURVE",
"299 303 OFFCURVE",
"299 336 CURVE SMOOTH",
"299 379 OFFCURVE",
"240 378 OFFCURVE",
"174 419 CURVE",
"230 456 OFFCURVE",
"273 474 OFFCURVE",
"329 490 CURVE",
"348 539 OFFCURVE",
"323 605 OFFCURVE",
"254 619 CURVE",
"145 608 OFFCURVE",
"2 514 OFFCURVE",
"2 463 CURVE SMOOTH",
"2 416 OFFCURVE",
"61 368 OFFCURVE",
"119 336 CURVE",
"72 289 OFFCURVE",
"-4 218 OFFCURVE",
"-4 165 CURVE SMOOTH",
"-4 107 OFFCURVE",
"129 -3 OFFCURVE",
"208 -3 CURVE SMOOTH",
"391 -3 OFFCURVE",
"569 223 OFFCURVE",
"569 369 CURVE SMOOTH",
"569 497 OFFCURVE",
"467 583 OFFCURVE",
"467 690 CURVE SMOOTH",
"467 724 OFFCURVE",
"497 757 OFFCURVE",
"527 761 CURVE",
"537 740 OFFCURVE",
"527 695 OFFCURVE",
"509 672 CURVE"
);
}
);
width = 599;
}
);
leftKerningGroup = gjI;
leftMetricsKey = gjI;
rightKerningGroup = gjI;
unicode = 0A88;
},
{
color = 1;
glyphname = gjU;
lastChange = "2015-10-04 15:13:09 +0000";
layers = (
{
associatedMasterId = "AF1B7CCB-9C31-456C-8386-1D362D80AEF6";
background = {
paths = (
{
closed = 1;
nodes = (
"431 -1 OFFCURVE",
"563 99 OFFCURVE",
"564 157 CURVE SMOOTH",
"564 210 OFFCURVE",
"504 265 OFFCURVE",
"435 309 CURVE",
"539 350 OFFCURVE",
"637 416 OFFCURVE",
"640 480 CURVE SMOOTH",
"644 537 OFFCURVE",
"555 619 OFFCURVE",
"488 619 CURVE SMOOTH",
"386 619 OFFCURVE",
"312 589 OFFCURVE",
"311 537 CURVE SMOOTH",
"311 506 OFFCURVE",
"333 472 OFFCURVE",
"366 447 CURVE",
"407 469 OFFCURVE",
"460 486 OFFCURVE",
"506 494 CURVE",
"468 406 OFFCURVE",
"272 368 OFFCURVE",
"271 312 CURVE SMOOTH",
"271 280 OFFCURVE",
"323 231 OFFCURVE",
"384 173 CURVE",
"305 155 OFFCURVE",
"237 157 OFFCURVE",
"159 193 CURVE",
"170 466 OFFCURVE",
"252 604 OFFCURVE",
"410 781 CURVE",
"457 729 OFFCURVE",
"556 630 OFFCURVE",
"607 630 CURVE SMOOTH",
"646 630 OFFCURVE",
"683 636 OFFCURVE",
"738 665 CURVE",
"761 758 OFFCURVE",
"731 829 OFFCURVE",
"660 850 CURVE",
"616 810 OFFCURVE",
"577 785 OFFCURVE",
"535 761 CURVE",
"471 802 OFFCURVE",
"447 898 OFFCURVE",
"404 898 CURVE SMOOTH",
"213 898 OFFCURVE",
"6 519 OFFCURVE",
"4 282 CURVE SMOOTH",
"3 152 OFFCURVE",
"168 -1 OFFCURVE",
"293 -1 CURVE SMOOTH"
);
}
);
};
layerId = "BBB1FBCA-EE2F-4FEB-93F8-922589377641";
name = "Bold Italic Oct 3 15, 00:54";
paths = (
{
closed = 1;
nodes = (
"431 -1 OFFCURVE",
"563 99 OFFCURVE",
"564 157 CURVE SMOOTH",
"564 210 OFFCURVE",
"504 265 OFFCURVE",
"435 309 CURVE",
"539 350 OFFCURVE",
"637 416 OFFCURVE",
"640 480 CURVE SMOOTH",
"644 537 OFFCURVE",
"555 619 OFFCURVE",
"488 619 CURVE SMOOTH",
"386 619 OFFCURVE",
"312 589 OFFCURVE",
"311 537 CURVE SMOOTH",
"311 506 OFFCURVE",
"333 472 OFFCURVE",
"366 447 CURVE",
"407 469 OFFCURVE",
"460 486 OFFCURVE",
"506 494 CURVE",
"468 406 OFFCURVE",
"271 368 OFFCURVE",
"271 312 CURVE SMOOTH",
"271 278 OFFCURVE",
"344 207 OFFCURVE",
"398 168 CURVE",
"333 155 OFFCURVE",
"228 157 OFFCURVE",
"159 183 CURVE",
"170 466 OFFCURVE",
"252 604 OFFCURVE",
"410 781 CURVE",
"457 729 OFFCURVE",
"556 630 OFFCURVE",
"607 630 CURVE SMOOTH",
"646 630 OFFCURVE",
"683 636 OFFCURVE",
"738 665 CURVE",
"761 758 OFFCURVE",
"731 829 OFFCURVE",
"660 850 CURVE",
"616 810 OFFCURVE",
"577 785 OFFCURVE",
"535 761 CURVE",
"471 802 OFFCURVE",
"447 898 OFFCURVE",
"404 898 CURVE SMOOTH",
"213 898 OFFCURVE",
"6 519 OFFCURVE",
"4 282 CURVE SMOOTH",
"3 152 OFFCURVE",
"168 -1 OFFCURVE",
"293 -1 CURVE SMOOTH"
);
}
);
width = 676;
},
{
anchors = (
{
name = abvm;
position = "{473, 862}";
}
);
background = {
paths = (
{
closed = 1;
nodes = (
"434 -1 OFFCURVE",
"569 99 OFFCURVE",
"569 157 CURVE SMOOTH",
"569 210 OFFCURVE",
"506 265 OFFCURVE",
"435 309 CURVE",
"542 350 OFFCURVE",
"642 416 OFFCURVE",
"645 480 CURVE SMOOTH",
"649 537 OFFCURVE",
"556 619 OFFCURVE",
"487 619 CURVE SMOOTH",
"382 619 OFFCURVE",
"305 589 OFFCURVE",
"305 537 CURVE SMOOTH",
"305 506 OFFCURVE",
"328 472 OFFCURVE",
"362 447 CURVE",
"405 469 OFFCURVE",
"459 486 OFFCURVE",
"506 494 CURVE",
"468 406 OFFCURVE",
"266 368 OFFCURVE",
"266 312 CURVE SMOOTH",
"266 280 OFFCURVE",
"317 234 OFFCURVE",
"367 191 CURVE",
"301 163 OFFCURVE",
"231 166 OFFCURVE",
"157 194 CURVE",
"157 469 OFFCURVE",
"243 604 OFFCURVE",
"405 781 CURVE",
"454 729 OFFCURVE",
"557 630 OFFCURVE",
"609 630 CURVE SMOOTH",
"650 630 OFFCURVE",
"688 636 OFFCURVE",
"744 665 CURVE",
"767 758 OFFCURVE",
"736 829 OFFCURVE",
"662 850 CURVE",
"617 810 OFFCURVE",
"577 785 OFFCURVE",
"534 761 CURVE",
"468 802 OFFCURVE",
"442 898 OFFCURVE",
"398 898 CURVE SMOOTH",
"201 898 OFFCURVE",
"-10 519 OFFCURVE",
"-10 282 CURVE SMOOTH",
"-10 157 OFFCURVE",
"153 -1 OFFCURVE",
"301 -1 CURVE SMOOTH"
);
}
);
};
layerId = "AF1B7CCB-9C31-456C-8386-1D362D80AEF6";
name = "Bold Italic";
paths = (
{
closed = 1;
nodes = (
"434 -1 OFFCURVE",
"569 99 OFFCURVE",
"569 157 CURVE SMOOTH",
"569 210 OFFCURVE",
"506 265 OFFCURVE",
"435 309 CURVE",
"542 350 OFFCURVE",
"642 416 OFFCURVE",
"645 480 CURVE SMOOTH",
"649 537 OFFCURVE",
"556 619 OFFCURVE",
"487 619 CURVE SMOOTH",
"382 619 OFFCURVE",
"305 589 OFFCURVE",
"305 537 CURVE SMOOTH",
"305 506 OFFCURVE",
"328 472 OFFCURVE",
"362 447 CURVE",
"405 469 OFFCURVE",
"459 486 OFFCURVE",
"506 494 CURVE",
"468 406 OFFCURVE",
"266 368 OFFCURVE",
"266 312 CURVE SMOOTH",
"266 280 OFFCURVE",
"317 234 OFFCURVE",
"367 191 CURVE",
"301 163 OFFCURVE",
"231 166 OFFCURVE",
"157 194 CURVE",
"157 469 OFFCURVE",
"243 604 OFFCURVE",
"405 781 CURVE",
"454 729 OFFCURVE",
"557 630 OFFCURVE",
"609 630 CURVE SMOOTH",
"650 630 OFFCURVE",
"688 636 OFFCURVE",
"744 665 CURVE",
"767 758 OFFCURVE",
"736 829 OFFCURVE",
"662 850 CURVE",
"617 810 OFFCURVE",
"577 785 OFFCURVE",
"534 761 CURVE",
"468 802 OFFCURVE",
"442 898 OFFCURVE",
"398 898 CURVE SMOOTH",
"201 898 OFFCURVE",
"-10 519 OFFCURVE",
"-10 282 CURVE SMOOTH",
"-10 157 OFFCURVE",
"153 -1 OFFCURVE",
"301 -1 CURVE SMOOTH"
);
}
);
width = 657;
}
);
unicode = 0A89;
},
{
color = 1;
glyphname = gjUU;
lastChange = "2015-10-04 15:13:09 +0000";
layers = (
{
anchors = (
{
name = abvm;
position = "{919, 642}";
}
);
background = {
paths = (
{
closed = 1;
nodes = (
"433 -1 OFFCURVE",
"565 99 OFFCURVE",
"566 157 CURVE SMOOTH",
"566 210 OFFCURVE",
"506 265 OFFCURVE",
"437 309 CURVE",
"541 350 OFFCURVE",
"639 416 OFFCURVE",
"642 480 CURVE SMOOTH",
"646 537 OFFCURVE",
"557 619 OFFCURVE",
"490 619 CURVE SMOOTH",
"388 619 OFFCURVE",
"314 589 OFFCURVE",
"313 537 CURVE SMOOTH",
"313 506 OFFCURVE",
"335 472 OFFCURVE",
"368 447 CURVE",
"409 469 OFFCURVE",
"462 486 OFFCURVE",
"508 494 CURVE",
"470 406 OFFCURVE",
"274 368 OFFCURVE",
"273 312 CURVE SMOOTH",
"273 280 OFFCURVE",
"325 231 OFFCURVE",
"386 173 CURVE",
"307 155 OFFCURVE",
"239 157 OFFCURVE",
"161 193 CURVE",
"175 492 OFFCURVE",
"258 737 OFFCURVE",
"620 763 CURVE",
"687 721 OFFCURVE",
"715 667 OFFCURVE",
"715 599 CURVE SMOOTH",
"715 539 OFFCURVE",
"696 469 OFFCURVE",
"674 389 CURVE SMOOTH",
"641 267 OFFCURVE",
"605 140 OFFCURVE",
"605 125 CURVE SMOOTH",
"605 83 OFFCURVE",
"726 0 OFFCURVE",
"760 0 CURVE SMOOTH",
"812 0 OFFCURVE",
"966 76 OFFCURVE",
"966 130 CURVE SMOOTH",
"966 183 OFFCURVE",
"931 222 OFFCURVE",
"866 241 CURVE",
"835 208 OFFCURVE",
"808 188 OFFCURVE",
"765 160 CURVE",
"810 285 OFFCURVE",
"879 450 OFFCURVE",
"879 598 CURVE SMOOTH",
"879 719 OFFCURVE",
"729 894 OFFCURVE",
"558 894 CURVE SMOOTH",
"217 894 OFFCURVE",
"8 571 OFFCURVE",
"6 282 CURVE SMOOTH",
"5 152 OFFCURVE",
"170 -1 OFFCURVE",
"295 -1 CURVE SMOOTH"
);
}
);
};
layerId = "AF1B7CCB-9C31-456C-8386-1D362D80AEF6";
name = "Bold Italic";
paths = (
{
closed = 1;
nodes = (
"175 492 OFFCURVE",
"258 737 OFFCURVE",
"620 763 CURVE",
"687 721 OFFCURVE",
"715 667 OFFCURVE",
"715 599 CURVE SMOOTH",
"715 539 OFFCURVE",
"696 469 OFFCURVE",
"674 389 CURVE SMOOTH",
"641 267 OFFCURVE",
"605 140 OFFCURVE",
"605 125 CURVE SMOOTH",
"605 83 OFFCURVE",
"726 0 OFFCURVE",
"760 0 CURVE SMOOTH",
"812 0 OFFCURVE",
"966 76 OFFCURVE",
"966 130 CURVE SMOOTH",
"966 183 OFFCURVE",
"931 222 OFFCURVE",
"866 241 CURVE",
"835 208 OFFCURVE",
"808 188 OFFCURVE",
"765 160 CURVE",
"810 285 OFFCURVE",
"879 450 OFFCURVE",
"879 598 CURVE SMOOTH",
"879 719 OFFCURVE",
"729 894 OFFCURVE",
"558 894 CURVE SMOOTH",
"217 894 OFFCURVE",
"8 571 OFFCURVE",
"6 282 CURVE SMOOTH",
"5 152 OFFCURVE",
"170 -1 OFFCURVE",
"295 -1 CURVE SMOOTH",
"433 -1 OFFCURVE",
"565 99 OFFCURVE",
"566 157 CURVE SMOOTH",
"566 210 OFFCURVE",
"506 265 OFFCURVE",
"437 309 CURVE",
"541 350 OFFCURVE",
"639 416 OFFCURVE",
"642 480 CURVE SMOOTH",
"646 537 OFFCURVE",
"557 619 OFFCURVE",
"490 619 CURVE SMOOTH",
"388 619 OFFCURVE",
"314 589 OFFCURVE",
"313 537 CURVE SMOOTH",
"313 506 OFFCURVE",
"335 472 OFFCURVE",
"368 447 CURVE",
"409 469 OFFCURVE",
"462 486 OFFCURVE",
"508 494 CURVE",
"470 406 OFFCURVE",
"274 368 OFFCURVE",
"273 312 CURVE SMOOTH",
"273 278 OFFCURVE",
"346 207 OFFCURVE",
"400 168 CURVE",
"335 155 OFFCURVE",
"230 157 OFFCURVE",
"160 183 CURVE"
);
}
);
width = 1009;
},
{
associatedMasterId = "AF1B7CCB-9C31-456C-8386-1D362D80AEF6";
background = {
paths = (
{
closed = 1;
nodes = (
"243 894 OFFCURVE",
"-7 587 OFFCURVE",
"-7 261 CURVE SMOOTH",
"-7 177 OFFCURVE",
"130 -1 OFFCURVE",
"301 -1 CURVE SMOOTH",
"434 -1 OFFCURVE",
"569 99 OFFCURVE",
"569 157 CURVE SMOOTH",
"569 210 OFFCURVE",
"506 265 OFFCURVE",
"435 309 CURVE",
"542 350 OFFCURVE",
"642 416 OFFCURVE",
"645 480 CURVE SMOOTH",
"649 537 OFFCURVE",
"556 619 OFFCURVE",
"487 619 CURVE SMOOTH",
"378 619 OFFCURVE",
"305 585 OFFCURVE",
"305 540 CURVE SMOOTH",
"305 507 OFFCURVE",
"320 484 OFFCURVE",
"362 447 CURVE",
"407 469 OFFCURVE",
"453 485 OFFCURVE",
"506 494 CURVE",
"468 406 OFFCURVE",
"266 368 OFFCURVE",
"266 312 CURVE SMOOTH",
"266 280 OFFCURVE",
"317 234 OFFCURVE",
"367 191 CURVE",
"302 163 OFFCURVE",
"227 168 OFFCURVE",
"157 194 CURVE",
"158 498 OFFCURVE",
"263 700 OFFCURVE",
"655 763 CURVE",
"690 719 OFFCURVE",
"713 662 OFFCURVE",
"713 599 CURVE SMOOTH",
"713 442 OFFCURVE",
"606 216 OFFCURVE",
"606 123 CURVE SMOOTH",
"606 86 OFFCURVE",
"719 0 OFFCURVE",
"769 0 CURVE SMOOTH",
"830 0 OFFCURVE",
"1039 122 OFFCURVE",
"1039 193 CURVE SMOOTH",
"1039 237 OFFCURVE",
"987 293 OFFCURVE",
"918 312 CURVE",
"875 257 OFFCURVE",
"837 208 OFFCURVE",
"780 175 CURVE",
"839 352 OFFCURVE",
"877 475 OFFCURVE",
"877 598 CURVE SMOOTH",
"877 725 OFFCURVE",
"688 894 OFFCURVE",
"568 894 CURVE SMOOTH"
);
}
);
};
layerId = "C9FB806D-E17F-49ED-A50E-6D30E5278BC4";
name = "Bold Italic Jul 27 15, 22:04";
paths = (
{
closed = 1;
nodes = (
"224 894 OFFCURVE",
"-7 571 OFFCURVE",
"-7 261 CURVE SMOOTH",
"-7 177 OFFCURVE",
"130 -1 OFFCURVE",
"301 -1 CURVE SMOOTH",
"434 -1 OFFCURVE",
"569 99 OFFCURVE",
"569 157 CURVE SMOOTH",
"569 210 OFFCURVE",
"506 265 OFFCURVE",
"435 309 CURVE",
"542 350 OFFCURVE",
"642 416 OFFCURVE",
"645 480 CURVE SMOOTH",
"649 537 OFFCURVE",
"556 619 OFFCURVE",
"487 619 CURVE SMOOTH",
"378 619 OFFCURVE",
"305 585 OFFCURVE",
"305 540 CURVE SMOOTH",
"305 507 OFFCURVE",
"320 484 OFFCURVE",
"362 447 CURVE",
"407 469 OFFCURVE",
"453 485 OFFCURVE",
"506 494 CURVE",
"468 406 OFFCURVE",
"266 368 OFFCURVE",
"266 312 CURVE SMOOTH",
"266 280 OFFCURVE",
"317 234 OFFCURVE",
"367 191 CURVE",
"302 163 OFFCURVE",
"227 168 OFFCURVE",
"157 194 CURVE",
"154 520 OFFCURVE",
"291 734 OFFCURVE",
"618 763 CURVE",
"690 719 OFFCURVE",
"713 662 OFFCURVE",
"713 599 CURVE SMOOTH",
"713 442 OFFCURVE",
"606 216 OFFCURVE",
"606 123 CURVE SMOOTH",
"606 86 OFFCURVE",
"719 0 OFFCURVE",
"769 0 CURVE SMOOTH",
"830 0 OFFCURVE",
"1039 122 OFFCURVE",
"1039 193 CURVE SMOOTH",
"1039 237 OFFCURVE",
"987 293 OFFCURVE",
"918 312 CURVE",
"875 257 OFFCURVE",
"837 208 OFFCURVE",
"780 175 CURVE",
"839 352 OFFCURVE",
"877 475 OFFCURVE",
"877 598 CURVE SMOOTH",
"877 719 OFFCURVE",
"727 894 OFFCURVE",
"556 894 CURVE SMOOTH"
);
}
);
width = 1071;
}
);
leftMetricsKey = gjU;
rightMetricsKey = gjmAA;
unicode = 0A8A;
},
{
color = 0;
glyphname = gjvR;
lastChange = "2015-10-10 12:16:51 +0000";
layers = (
{
anchors = (
{
name = abvm;
position = "{466, 642}";
},
{
name = blwm;
position = "{349, 0}";
},
{
name = blwm.u;
position = "{349, 0}";
}
);
background = {
paths = (
{
closed = 1;
nodes = (
"193 464 LINE",
"249 434 OFFCURVE",
"287 383 OFFCURVE",
"311 315 CURVE",
"233 270 OFFCURVE",
"130 228 OFFCURVE",
"23 176 CURVE",
"-15 96 OFFCURVE",
"26 25 OFFCURVE",
"127 17 CURVE",
"212 89 OFFCURVE",
"273 138 OFFCURVE",
"347 199 CURVE",
"360 188 LINE",
"348 169 OFFCURVE",
"333 139 OFFCURVE",
"333 125 CURVE SMOOTH",
"333 83 OFFCURVE",
"454 0 OFFCURVE",
"488 0 CURVE SMOOTH",
"545 0 OFFCURVE",
"659 60 OFFCURVE",
"659 105 CURVE SMOOTH",
"659 156 OFFCURVE",
"624 197 OFFCURVE",
"561 208 CURVE",
"539 189 OFFCURVE",
"520 174 OFFCURVE",
"493 160 CURVE",
"538 285 OFFCURVE",
"617 450 OFFCURVE",
"617 493 CURVE SMOOTH",
"617 520 OFFCURVE",
"505 593 OFFCURVE",
"466 593 CURVE SMOOTH",
"447 593 OFFCURVE",
"433 521 OFFCURVE",
"407 409 CURVE SMOOTH",
"405 399 OFFCURVE",
"400 381 OFFCURVE",
"396 364 CURVE",
"377 353 LINE",
"336 511 OFFCURVE",
"273 603 OFFCURVE",
"177 603 CURVE SMOOTH",
"125 603 OFFCURVE",
"54 559 OFFCURVE",
"27 524 CURVE",
"23 447 OFFCURVE",
"65 404 OFFCURVE",
"130 390 CURVE",
"175 419 OFFCURVE",
"215 447 OFFCURVE",
"247 453 CURVE"
);
},
{
closed = 1;
nodes = (
"762 228 OFFCURVE",
"683 184 OFFCURVE",
"683 145 CURVE SMOOTH",
"683 97 OFFCURVE",
"791 0 OFFCURVE",
"828 0 CURVE SMOOTH",
"904 0 OFFCURVE",
"1041 65 OFFCURVE",
"1041 116 CURVE SMOOTH",
"1041 161 OFFCURVE",
"1023 188 OFFCURVE",
"960 214 CURVE",
"926 184 OFFCURVE",
"897 167 OFFCURVE",
"835 138 CURVE",
"866 191 OFFCURVE",
"931 244 OFFCURVE",
"931 279 CURVE SMOOTH",
"931 337 OFFCURVE",
"817 365 OFFCURVE",
"768 482 CURVE",
"673 410 OFFCURVE",
"564 353 OFFCURVE",
"452 317 CURVE",
"492 224 LINE",
"650 265 OFFCURVE",
"882 405 OFFCURVE",
"882 481 CURVE SMOOTH",
"882 513 OFFCURVE",
"820 577 OFFCURVE",
"786 577 CURVE SMOOTH",
"744 577 OFFCURVE",
"649 493 OFFCURVE",
"649 460 CURVE SMOOTH",
"649 413 OFFCURVE",
"741 327 OFFCURVE",
"780 285 CURVE"
);
}
);
};
layerId = "AF1B7CCB-9C31-456C-8386-1D362D80AEF6";
name = "Bold Italic";
paths = (
{
closed = 1;
nodes = (
"926 184 OFFCURVE",
"897 167 OFFCURVE",
"835 138 CURVE",
"866 191 OFFCURVE",
"931 244 OFFCURVE",
"931 279 CURVE SMOOTH",
"931 320 OFFCURVE",
"875 345 OFFCURVE",
"821 399 CURVE",
"860 428 OFFCURVE",
"882 458 OFFCURVE",
"882 481 CURVE SMOOTH",
"882 513 OFFCURVE",
"820 577 OFFCURVE",
"786 577 CURVE SMOOTH",
"744 577 OFFCURVE",
"649 493 OFFCURVE",
"649 460 CURVE SMOOTH",
"649 447 OFFCURVE",
"656 431 OFFCURVE",
"669 415 CURVE",
"637 396 OFFCURVE",
"596 380 OFFCURVE",
"563 362 CURVE",
"585 417 OFFCURVE",
"607 476 OFFCURVE",
"607 500 CURVE SMOOTH",
"607 527 OFFCURVE",
"505 593 OFFCURVE",
"466 593 CURVE SMOOTH",
"447 593 OFFCURVE",
"433 521 OFFCURVE",
"407 409 CURVE SMOOTH",
"405 399 OFFCURVE",
"400 381 OFFCURVE",
"396 364 CURVE",
"377 353 LINE",
"336 511 OFFCURVE",
"273 603 OFFCURVE",
"177 603 CURVE SMOOTH",
"125 603 OFFCURVE",
"54 559 OFFCURVE",
"27 524 CURVE",
"23 447 OFFCURVE",
"65 404 OFFCURVE",
"130 390 CURVE",
"164 412 OFFCURVE",
"195 433 OFFCURVE",
"222 445 CURVE",
"263 414 OFFCURVE",
"291 370 OFFCURVE",
"311 315 CURVE",
"233 270 OFFCURVE",
"130 228 OFFCURVE",
"23 176 CURVE",
"-15 96 OFFCURVE",
"26 25 OFFCURVE",
"127 17 CURVE",
"212 89 OFFCURVE",
"273 138 OFFCURVE",
"347 199 CURVE",
"360 188 LINE",
"348 169 OFFCURVE",
"333 139 OFFCURVE",
"333 125 CURVE SMOOTH",
"333 82 OFFCURVE",
"440 0 OFFCURVE",
"478 0 CURVE SMOOTH",
"535 0 OFFCURVE",
"649 60 OFFCURVE",
"649 105 CURVE SMOOTH",
"649 156 OFFCURVE",
"614 197 OFFCURVE",
"551 208 CURVE",
"529 189 OFFCURVE",
"510 174 OFFCURVE",
"483 160 CURVE",
"491 183 OFFCURVE",
"501 207 OFFCURVE",
"511 232 CURVE",
"594 266 OFFCURVE",
"680 302 OFFCURVE",
"739 336 CURVE",
"752 320 OFFCURVE",
"768 298 OFFCURVE",
"794 274 CURVE",
"754 228 OFFCURVE",
"687 174 OFFCURVE",
"687 145 CURVE SMOOTH",
"687 92 OFFCURVE",
"776 0 OFFCURVE",
"828 0 CURVE SMOOTH",
"904 0 OFFCURVE",
"1041 64 OFFCURVE",
"1041 116 CURVE SMOOTH",
"1041 161 OFFCURVE",
"1023 188 OFFCURVE",
"960 214 CURVE"
);
}
);
width = 1087;
}
);
rightKerningGroup = gjvR;
unicode = 0A8B;
},
{
glyphname = gjE;
lastChange = "2015-10-03 17:46:43 +0000";
layers = (
{
layerId = "AF1B7CCB-9C31-456C-8386-1D362D80AEF6";
name = "Bold Italic";
paths = (
{
closed = 1;
nodes = (
"492 259 OFFCURVE",
"526 239 OFFCURVE",
"540 239 CURVE SMOOTH",
"560 239 OFFCURVE",
"588 261 OFFCURVE",
"610 285 CURVE",
"632 270 LINE",
"605 230 OFFCURVE",
"541 147 OFFCURVE",
"541 124 CURVE SMOOTH",
"541 85 OFFCURVE",
"660 0 OFFCURVE",
"696 0 CURVE SMOOTH",
"748 0 OFFCURVE",
"902 76 OFFCURVE",
"902 130 CURVE SMOOTH",
"902 183 OFFCURVE",
"867 222 OFFCURVE",
"802 241 CURVE",
"771 208 OFFCURVE",
"744 188 OFFCURVE",
"701 160 CURVE",
"746 285 OFFCURVE",
"825 450 OFFCURVE",
"825 493 CURVE SMOOTH",
"825 520 OFFCURVE",
"711 593 OFFCURVE",
"674 593 CURVE SMOOTH",
"653 593 OFFCURVE",
"632 463 OFFCURVE",
"562 385 CURVE",
"518 420 OFFCURVE",
"486 449 OFFCURVE",
"462 449 CURVE SMOOTH",
"437 449 OFFCURVE",
"389 380 OFFCURVE",
"389 358 CURVE SMOOTH",
"389 343 OFFCURVE",
"418 321 OFFCURVE",
"460 289 CURVE",
"435 339 LINE",
"367 284 OFFCURVE",
"327 255 OFFCURVE",
"252 224 CURVE",
"219 268 LINE",
"332 330 OFFCURVE",
"418 431 OFFCURVE",
"418 492 CURVE SMOOTH",
"418 545 OFFCURVE",
"331 619 OFFCURVE",
"275 619 CURVE SMOOTH",
"196 619 OFFCURVE",
"76 586 OFFCURVE",
"76 518 CURVE SMOOTH",
"76 480 OFFCURVE",
"100 449 OFFCURVE",
"137 419 CURVE",
"185 446 OFFCURVE",
"228 462 OFFCURVE",
"287 480 CURVE",
"241 405 OFFCURVE",
"180 355 OFFCURVE",
"86 314 CURVE",
"137 306 LINE",
"118 346 OFFCURVE",
"83 423 OFFCURVE",
"48 425 CURVE SMOOTH",
"6 427 OFFCURVE",
"-59 377 OFFCURVE",
"-60 347 CURVE SMOOTH",
"-63 306 OFFCURVE",
"-6 230 OFFCURVE",
"35 230 CURVE SMOOTH",
"60 230 OFFCURVE",
"89 248 OFFCURVE",
"106 270 CURVE",
"53 253 LINE",
"86 177 OFFCURVE",
"159 85 OFFCURVE",
"239 85 CURVE SMOOTH",
"329 85 OFFCURVE",
"450 200 OFFCURVE",
"514 274 CURVE",
"478 277 LINE"
);
},
{
closed = 1;
nodes = (
"403 794 OFFCURVE",
"445 732 OFFCURVE",
"530 726 CURVE",
"564 761 OFFCURVE",
"593 781 OFFCURVE",
"630 803 CURVE",
"683 760 OFFCURVE",
"740 706 OFFCURVE",
"779 642 CURVE",
"797 642 OFFCURVE",
"823 650 OFFCURVE",
"827 669 CURVE",
"772 766 OFFCURVE",
"634 940 OFFCURVE",
"560 940 CURVE SMOOTH",
"509 940 OFFCURVE",
"455 913 OFFCURVE",
"408 865 CURVE"
);
}
);
width = 945;
}
);
leftKerningGroup = gjA;
rightKerningGroup = gjA;
unicode = 0A8F;
},
{
glyphname = gjAI;
lastChange = "2015-10-03 17:46:43 +0000";
layers = (
{
layerId = "AF1B7CCB-9C31-456C-8386-1D362D80AEF6";
name = "Bold Italic";
paths = (
{
closed = 1;
nodes = (
"492 259 OFFCURVE",
"526 239 OFFCURVE",
"540 239 CURVE SMOOTH",
"560 239 OFFCURVE",
"588 261 OFFCURVE",
"610 285 CURVE",
"632 270 LINE",
"605 230 OFFCURVE",
"541 147 OFFCURVE",
"541 124 CURVE SMOOTH",
"541 85 OFFCURVE",
"660 0 OFFCURVE",
"696 0 CURVE SMOOTH",
"748 0 OFFCURVE",
"902 76 OFFCURVE",
"902 130 CURVE SMOOTH",
"902 183 OFFCURVE",
"867 222 OFFCURVE",
"802 241 CURVE",
"771 208 OFFCURVE",
"744 188 OFFCURVE",
"701 160 CURVE",
"746 285 OFFCURVE",
"825 450 OFFCURVE",
"825 493 CURVE SMOOTH",
"825 520 OFFCURVE",
"711 593 OFFCURVE",
"674 593 CURVE SMOOTH",
"653 593 OFFCURVE",
"632 463 OFFCURVE",
"562 385 CURVE",
"518 420 OFFCURVE",
"486 449 OFFCURVE",
"462 449 CURVE SMOOTH",
"437 449 OFFCURVE",
"389 380 OFFCURVE",
"389 358 CURVE SMOOTH",
"389 343 OFFCURVE",
"418 321 OFFCURVE",
"460 289 CURVE",
"435 339 LINE",
"367 284 OFFCURVE",
"327 255 OFFCURVE",
"252 224 CURVE",
"219 268 LINE",
"332 330 OFFCURVE",
"418 431 OFFCURVE",
"418 492 CURVE SMOOTH",
"418 545 OFFCURVE",
"331 619 OFFCURVE",
"275 619 CURVE SMOOTH",
"196 619 OFFCURVE",
"76 586 OFFCURVE",
"76 518 CURVE SMOOTH",
"76 480 OFFCURVE",
"100 449 OFFCURVE",
"137 419 CURVE",
"185 446 OFFCURVE",
"228 462 OFFCURVE",
"287 480 CURVE",
"241 405 OFFCURVE",
"180 355 OFFCURVE",
"86 314 CURVE",
"137 306 LINE",
"118 346 OFFCURVE",
"83 423 OFFCURVE",
"48 425 CURVE SMOOTH",
"6 427 OFFCURVE",
"-59 377 OFFCURVE",
"-60 347 CURVE SMOOTH",
"-63 306 OFFCURVE",
"-6 230 OFFCURVE",
"35 230 CURVE SMOOTH",
"60 230 OFFCURVE",
"89 248 OFFCURVE",
"106 270 CURVE",
"53 253 LINE",
"86 177 OFFCURVE",
"159 85 OFFCURVE",
"239 85 CURVE SMOOTH",
"329 85 OFFCURVE",
"450 200 OFFCURVE",
"514 274 CURVE",
"478 277 LINE"
);
},
{
closed = 1;
nodes = (
"750 728 LINE",
"706 771 OFFCURVE",
"642 826 OFFCURVE",
"601 826 CURVE SMOOTH",
"560 826 OFFCURVE",
"524 803 OFFCURVE",
"497 774 CURVE",
"496 711 OFFCURVE",
"531 674 OFFCURVE",
"606 673 CURVE",
"624 700 OFFCURVE",
"641 720 OFFCURVE",
"658 733 CURVE",
"699 713 OFFCURVE",
"748 676 OFFCURVE",
"778 643 CURVE",
"798 641 OFFCURVE",
"824 654 OFFCURVE",
"830 670 CURVE",
"776 879 OFFCURVE",
"611 1001 OFFCURVE",
"542 1001 CURVE SMOOTH",
"492 1001 OFFCURVE",
"452 983 OFFCURVE",
"412 951 CURVE",
"401 894 OFFCURVE",
"448 834 OFFCURVE",
"513 830 CURVE",
"547 861 OFFCURVE",
"567 879 OFFCURVE",
"602 897 CURVE",
"663 860 OFFCURVE",
"724 798 OFFCURVE",
"761 737 CURVE"
);
}
);
width = 945;
}
);
leftKerningGroup = gjA;
rightKerningGroup = gjA;
unicode = 0A90;
},
{
glyphname = gjO;
lastChange = "2015-10-03 17:46:42 +0000";
layers = (
{
background = {
components = (
{
name = gjA;
},
{
name = gjmO;
transform = "{1, 0, 0, 1, 945, 0}";
}
);
};
layerId = "AF1B7CCB-9C31-456C-8386-1D362D80AEF6";
name = "Bold Italic";
paths = (
{
closed = 1;
nodes = (
"492 259 OFFCURVE",
"526 239 OFFCURVE",
"540 239 CURVE SMOOTH",
"560 239 OFFCURVE",
"588 261 OFFCURVE",
"610 285 CURVE",
"632 270 LINE",
"605 230 OFFCURVE",
"541 147 OFFCURVE",
"541 124 CURVE SMOOTH",
"541 85 OFFCURVE",
"660 0 OFFCURVE",
"696 0 CURVE SMOOTH",
"748 0 OFFCURVE",
"902 76 OFFCURVE",
"902 130 CURVE SMOOTH",
"902 183 OFFCURVE",
"867 222 OFFCURVE",
"802 241 CURVE",
"771 208 OFFCURVE",
"744 188 OFFCURVE",
"701 160 CURVE",
"746 285 OFFCURVE",
"825 450 OFFCURVE",
"825 493 CURVE SMOOTH",
"825 520 OFFCURVE",
"711 593 OFFCURVE",
"674 593 CURVE SMOOTH",
"653 593 OFFCURVE",
"632 463 OFFCURVE",
"562 385 CURVE",
"518 420 OFFCURVE",
"486 449 OFFCURVE",
"462 449 CURVE SMOOTH",
"437 449 OFFCURVE",
"389 380 OFFCURVE",
"389 358 CURVE SMOOTH",
"389 343 OFFCURVE",
"418 321 OFFCURVE",
"460 289 CURVE",
"435 339 LINE",
"367 284 OFFCURVE",
"327 255 OFFCURVE",
"252 224 CURVE",
"219 268 LINE",
"332 330 OFFCURVE",
"418 431 OFFCURVE",
"418 492 CURVE SMOOTH",
"418 545 OFFCURVE",
"331 619 OFFCURVE",
"275 619 CURVE SMOOTH",
"196 619 OFFCURVE",
"76 586 OFFCURVE",
"76 518 CURVE SMOOTH",
"76 480 OFFCURVE",
"100 449 OFFCURVE",
"137 419 CURVE",
"185 446 OFFCURVE",
"228 462 OFFCURVE",
"287 480 CURVE",
"241 405 OFFCURVE",
"180 355 OFFCURVE",
"86 314 CURVE",
"137 306 LINE",
"118 346 OFFCURVE",
"83 423 OFFCURVE",
"48 425 CURVE SMOOTH",
"6 427 OFFCURVE",
"-59 377 OFFCURVE",
"-60 347 CURVE SMOOTH",
"-63 306 OFFCURVE",
"-6 230 OFFCURVE",
"35 230 CURVE SMOOTH",
"60 230 OFFCURVE",
"89 248 OFFCURVE",
"106 270 CURVE",
"53 253 LINE",
"86 177 OFFCURVE",
"159 85 OFFCURVE",
"239 85 CURVE SMOOTH",
"329 85 OFFCURVE",
"450 200 OFFCURVE",
"514 274 CURVE",
"478 277 LINE"
);
},
{
closed = 1;
nodes = (
"1139 0 OFFCURVE",
"1293 76 OFFCURVE",
"1293 130 CURVE SMOOTH",
"1293 183 OFFCURVE",
"1258 222 OFFCURVE",
"1193 241 CURVE",
"1162 208 OFFCURVE",
"1135 188 OFFCURVE",
"1092 160 CURVE",
"1137 285 OFFCURVE",
"1216 450 OFFCURVE",
"1216 493 CURVE SMOOTH",
"1216 520 OFFCURVE",
"1104 593 OFFCURVE",
"1065 593 CURVE SMOOTH",
"1046 593 OFFCURVE",
"1027 501 OFFCURVE",
"1001 389 CURVE SMOOTH",
"972 266 OFFCURVE",
"932 140 OFFCURVE",
"932 125 CURVE SMOOTH",
"932 83 OFFCURVE",
"1053 0 OFFCURVE",
"1087 0 CURVE SMOOTH"
);
},
{
closed = 1;
nodes = (
"794 794 OFFCURVE",
"836 732 OFFCURVE",
"921 726 CURVE",
"955 761 OFFCURVE",
"984 781 OFFCURVE",
"1021 803 CURVE",
"1074 760 OFFCURVE",
"1131 706 OFFCURVE",
"1170 642 CURVE",
"1188 642 OFFCURVE",
"1214 650 OFFCURVE",
"1218 669 CURVE",
"1163 766 OFFCURVE",
"1025 940 OFFCURVE",
"951 940 CURVE SMOOTH",
"900 940 OFFCURVE",
"846 913 OFFCURVE",
"799 865 CURVE"
);
}
);
width = 1336;
}
);
leftKerningGroup = gjA;
rightKerningGroup = gjA;
unicode = 0A93;
},
{
glyphname = gjAU;
lastChange = "2015-10-03 17:46:42 +0000";
layers = (
{
background = {
components = (
{
name = gjA;
},
{
name = gjmAU;
transform = "{1, 0, 0, 1, 945, 0}";
}
);
};
layerId = "AF1B7CCB-9C31-456C-8386-1D362D80AEF6";
name = "Bold Italic";
paths = (
{
closed = 1;
nodes = (
"492 259 OFFCURVE",
"526 239 OFFCURVE",
"540 239 CURVE SMOOTH",
"560 239 OFFCURVE",
"588 261 OFFCURVE",
"610 285 CURVE",
"632 270 LINE",
"605 230 OFFCURVE",
"541 147 OFFCURVE",
"541 124 CURVE SMOOTH",
"541 85 OFFCURVE",
"660 0 OFFCURVE",
"696 0 CURVE SMOOTH",
"748 0 OFFCURVE",
"902 76 OFFCURVE",
"902 130 CURVE SMOOTH",
"902 183 OFFCURVE",
"867 222 OFFCURVE",
"802 241 CURVE",
"771 208 OFFCURVE",
"744 188 OFFCURVE",
"701 160 CURVE",
"746 285 OFFCURVE",
"825 450 OFFCURVE",
"825 493 CURVE SMOOTH",
"825 520 OFFCURVE",
"711 593 OFFCURVE",
"674 593 CURVE SMOOTH",
"653 593 OFFCURVE",
"632 463 OFFCURVE",
"562 385 CURVE",
"518 420 OFFCURVE",
"486 449 OFFCURVE",
"462 449 CURVE SMOOTH",
"437 449 OFFCURVE",
"389 380 OFFCURVE",
"389 358 CURVE SMOOTH",
"389 343 OFFCURVE",
"418 321 OFFCURVE",
"460 289 CURVE",
"435 339 LINE",
"367 284 OFFCURVE",
"327 255 OFFCURVE",
"252 224 CURVE",
"219 268 LINE",
"332 330 OFFCURVE",
"418 431 OFFCURVE",
"418 492 CURVE SMOOTH",
"418 545 OFFCURVE",
"331 619 OFFCURVE",
"275 619 CURVE SMOOTH",
"196 619 OFFCURVE",
"76 586 OFFCURVE",
"76 518 CURVE SMOOTH",
"76 480 OFFCURVE",
"100 449 OFFCURVE",
"137 419 CURVE",
"185 446 OFFCURVE",
"228 462 OFFCURVE",
"287 480 CURVE",
"241 405 OFFCURVE",
"180 355 OFFCURVE",
"86 314 CURVE",
"137 306 LINE",
"118 346 OFFCURVE",
"83 423 OFFCURVE",
"48 425 CURVE SMOOTH",
"6 427 OFFCURVE",
"-59 377 OFFCURVE",
"-60 347 CURVE SMOOTH",
"-63 306 OFFCURVE",
"-6 230 OFFCURVE",
"35 230 CURVE SMOOTH",
"60 230 OFFCURVE",
"89 248 OFFCURVE",
"106 270 CURVE",
"53 253 LINE",
"86 177 OFFCURVE",
"159 85 OFFCURVE",
"239 85 CURVE SMOOTH",
"329 85 OFFCURVE",
"450 200 OFFCURVE",
"514 274 CURVE",
"478 277 LINE"
);
},
{
closed = 1;
nodes = (
"1139 0 OFFCURVE",
"1293 76 OFFCURVE",
"1293 130 CURVE SMOOTH",
"1293 183 OFFCURVE",
"1258 222 OFFCURVE",
"1193 241 CURVE",
"1162 208 OFFCURVE",
"1135 188 OFFCURVE",
"1092 160 CURVE",
"1137 285 OFFCURVE",
"1216 450 OFFCURVE",
"1216 493 CURVE SMOOTH",
"1216 520 OFFCURVE",
"1104 593 OFFCURVE",
"1065 593 CURVE SMOOTH",
"1046 593 OFFCURVE",
"1027 501 OFFCURVE",
"1001 389 CURVE SMOOTH",
"972 266 OFFCURVE",
"932 140 OFFCURVE",
"932 125 CURVE SMOOTH",
"932 83 OFFCURVE",
"1053 0 OFFCURVE",
"1087 0 CURVE SMOOTH"
);
},
{
closed = 1;
nodes = (
"1141 728 LINE",
"1097 771 OFFCURVE",
"1033 826 OFFCURVE",
"992 826 CURVE SMOOTH",
"951 826 OFFCURVE",
"915 803 OFFCURVE",
"888 774 CURVE",
"887 711 OFFCURVE",
"922 674 OFFCURVE",
"997 673 CURVE",
"1015 700 OFFCURVE",
"1032 720 OFFCURVE",
"1049 733 CURVE",
"1090 713 OFFCURVE",
"1139 676 OFFCURVE",
"1169 643 CURVE",
"1189 641 OFFCURVE",
"1215 654 OFFCURVE",
"1221 670 CURVE",
"1167 879 OFFCURVE",
"1002 1001 OFFCURVE",
"933 1001 CURVE SMOOTH",
"883 1001 OFFCURVE",
"843 983 OFFCURVE",
"803 951 CURVE",
"792 894 OFFCURVE",
"839 834 OFFCURVE",
"904 830 CURVE",
"938 861 OFFCURVE",
"958 879 OFFCURVE",
"993 897 CURVE",
"1054 860 OFFCURVE",
"1115 798 OFFCURVE",
"1152 737 CURVE"
);
}
);
width = 1336;
}
);
leftKerningGroup = gjA;
leftMetricsKey = gjA;
rightKerningGroup = gjA;
rightMetricsKey = gjmAU;
unicode = 0A94;
},
{
glyphname = gjEcandra;
lastChange = "2015-10-03 17:46:43 +0000";
layers = (
{
background = {
paths = (
{
closed = 1;
nodes = (
"492 259 OFFCURVE",
"526 239 OFFCURVE",
"540 239 CURVE SMOOTH",
"560 239 OFFCURVE",
"588 261 OFFCURVE",
"610 285 CURVE",
"632 270 LINE",
"605 230 OFFCURVE",
"541 147 OFFCURVE",
"541 124 CURVE SMOOTH",
"541 85 OFFCURVE",
"660 0 OFFCURVE",
"696 0 CURVE SMOOTH",
"748 0 OFFCURVE",
"902 76 OFFCURVE",
"902 130 CURVE SMOOTH",
"902 183 OFFCURVE",
"867 222 OFFCURVE",
"802 241 CURVE",
"771 208 OFFCURVE",
"744 188 OFFCURVE",
"701 160 CURVE",
"746 285 OFFCURVE",
"825 450 OFFCURVE",
"825 493 CURVE SMOOTH",
"825 520 OFFCURVE",
"711 593 OFFCURVE",
"674 593 CURVE SMOOTH",
"653 593 OFFCURVE",
"632 463 OFFCURVE",
"562 385 CURVE",
"518 420 OFFCURVE",
"486 449 OFFCURVE",
"462 449 CURVE SMOOTH",
"437 449 OFFCURVE",
"389 380 OFFCURVE",
"389 358 CURVE SMOOTH",
"389 343 OFFCURVE",
"418 321 OFFCURVE",
"460 289 CURVE",
"435 339 LINE",
"367 284 OFFCURVE",
"327 255 OFFCURVE",
"252 224 CURVE",
"219 268 LINE",
"332 330 OFFCURVE",
"418 431 OFFCURVE",
"418 492 CURVE SMOOTH",
"418 545 OFFCURVE",
"331 619 OFFCURVE",
"275 619 CURVE SMOOTH",
"196 619 OFFCURVE",
"76 586 OFFCURVE",
"76 518 CURVE SMOOTH",
"76 480 OFFCURVE",
"100 449 OFFCURVE",
"137 419 CURVE",
"185 446 OFFCURVE",
"228 462 OFFCURVE",
"287 480 CURVE",
"241 405 OFFCURVE",
"180 355 OFFCURVE",
"86 314 CURVE",
"137 306 LINE",
"118 346 OFFCURVE",
"83 423 OFFCURVE",
"48 425 CURVE SMOOTH",
"6 427 OFFCURVE",
"-59 377 OFFCURVE",
"-60 347 CURVE SMOOTH",
"-63 306 OFFCURVE",
"-6 230 OFFCURVE",
"35 230 CURVE SMOOTH",
"60 230 OFFCURVE",
"89 248 OFFCURVE",
"106 270 CURVE",
"53 253 LINE",
"86 177 OFFCURVE",
"159 85 OFFCURVE",
"239 85 CURVE SMOOTH",
"329 85 OFFCURVE",
"450 200 OFFCURVE",
"514 274 CURVE",
"478 277 LINE"
);
},
{
closed = 1;
nodes = (
"827 619 OFFCURVE",
"898 632 OFFCURVE",
"946 662 CURVE",
"960 728 OFFCURVE",
"942 783 OFFCURVE",
"874 808 CURVE",
"816 775 OFFCURVE",
"765 758 OFFCURVE",
"705 748 CURVE",
"673 799 OFFCURVE",
"654 840 OFFCURVE",
"631 898 CURVE",
"597 912 OFFCURVE",
"564 903 OFFCURVE",
"539 871 CURVE",
"564 766 OFFCURVE",
"675 619 OFFCURVE",
"750 619 CURVE SMOOTH"
);
}
);
};
layerId = "AF1B7CCB-9C31-456C-8386-1D362D80AEF6";
name = "Bold Italic";
paths = (
{
closed = 1;
nodes = (
"492 259 OFFCURVE",
"526 239 OFFCURVE",
"540 239 CURVE SMOOTH",
"560 239 OFFCURVE",
"588 261 OFFCURVE",
"610 285 CURVE",
"632 270 LINE",
"605 230 OFFCURVE",
"541 147 OFFCURVE",
"541 124 CURVE SMOOTH",
"541 85 OFFCURVE",
"660 0 OFFCURVE",
"696 0 CURVE SMOOTH",
"748 0 OFFCURVE",
"902 76 OFFCURVE",
"902 130 CURVE SMOOTH",
"902 183 OFFCURVE",
"867 222 OFFCURVE",
"802 241 CURVE",
"771 208 OFFCURVE",
"744 188 OFFCURVE",
"701 160 CURVE",
"746 285 OFFCURVE",
"825 450 OFFCURVE",
"825 493 CURVE SMOOTH",
"825 520 OFFCURVE",
"711 593 OFFCURVE",
"674 593 CURVE SMOOTH",
"653 593 OFFCURVE",
"632 463 OFFCURVE",
"562 385 CURVE",
"518 420 OFFCURVE",
"486 449 OFFCURVE",
"462 449 CURVE SMOOTH",
"437 449 OFFCURVE",
"389 380 OFFCURVE",
"389 358 CURVE SMOOTH",
"389 343 OFFCURVE",
"418 321 OFFCURVE",
"460 289 CURVE",
"435 339 LINE",
"367 284 OFFCURVE",
"327 255 OFFCURVE",
"252 224 CURVE",
"219 268 LINE",
"332 330 OFFCURVE",
"418 431 OFFCURVE",
"418 492 CURVE SMOOTH",
"418 545 OFFCURVE",
"331 619 OFFCURVE",
"275 619 CURVE SMOOTH",
"196 619 OFFCURVE",
"76 586 OFFCURVE",
"76 518 CURVE SMOOTH",
"76 480 OFFCURVE",
"100 449 OFFCURVE",
"137 419 CURVE",
"185 446 OFFCURVE",
"228 462 OFFCURVE",
"287 480 CURVE",
"241 405 OFFCURVE",
"180 355 OFFCURVE",
"86 314 CURVE",
"137 306 LINE",
"118 346 OFFCURVE",
"83 423 OFFCURVE",
"48 425 CURVE SMOOTH",
"6 427 OFFCURVE",
"-59 377 OFFCURVE",
"-60 347 CURVE SMOOTH",
"-63 306 OFFCURVE",
"-6 230 OFFCURVE",
"35 230 CURVE SMOOTH",
"60 230 OFFCURVE",
"89 248 OFFCURVE",
"106 270 CURVE",
"53 253 LINE",
"86 177 OFFCURVE",
"159 85 OFFCURVE",
"239 85 CURVE SMOOTH",
"329 85 OFFCURVE",
"450 200 OFFCURVE",
"514 274 CURVE",
"478 277 LINE"
);
},
{
closed = 1;
nodes = (
"827 619 OFFCURVE",
"898 632 OFFCURVE",
"946 662 CURVE",
"960 728 OFFCURVE",
"942 783 OFFCURVE",
"874 808 CURVE",
"816 775 OFFCURVE",
"765 758 OFFCURVE",
"705 748 CURVE",
"673 799 OFFCURVE",
"654 840 OFFCURVE",
"631 898 CURVE",
"597 912 OFFCURVE",
"564 903 OFFCURVE",
"539 871 CURVE",
"564 766 OFFCURVE",
"675 619 OFFCURVE",
"750 619 CURVE SMOOTH"
);
}
);
width = 945;
}
);
leftKerningGroup = gjA;
rightKerningGroup = gjA;
unicode = 0A8D;
},
{
glyphname = gjOcandra;
lastChange = "2015-10-03 17:46:42 +0000";
layers = (
{
background = {
paths = (
{
closed = 1;
nodes = (
"492 259 OFFCURVE",
"526 239 OFFCURVE",
"540 239 CURVE SMOOTH",
"560 239 OFFCURVE",
"588 261 OFFCURVE",
"610 285 CURVE",
"632 270 LINE",
"605 230 OFFCURVE",
"541 147 OFFCURVE",
"541 124 CURVE SMOOTH",
"541 85 OFFCURVE",
"660 0 OFFCURVE",
"696 0 CURVE SMOOTH",
"748 0 OFFCURVE",
"902 76 OFFCURVE",
"902 130 CURVE SMOOTH",
"902 183 OFFCURVE",
"867 222 OFFCURVE",
"802 241 CURVE",
"771 208 OFFCURVE",
"744 188 OFFCURVE",
"701 160 CURVE",
"746 285 OFFCURVE",
"825 450 OFFCURVE",
"825 493 CURVE SMOOTH",
"825 520 OFFCURVE",
"711 593 OFFCURVE",
"674 593 CURVE SMOOTH",
"653 593 OFFCURVE",
"632 463 OFFCURVE",
"562 385 CURVE",
"518 420 OFFCURVE",
"486 449 OFFCURVE",
"462 449 CURVE SMOOTH",
"437 449 OFFCURVE",
"389 380 OFFCURVE",
"389 358 CURVE SMOOTH",
"389 343 OFFCURVE",
"418 321 OFFCURVE",
"460 289 CURVE",
"435 339 LINE",
"367 284 OFFCURVE",
"327 255 OFFCURVE",
"252 224 CURVE",
"219 268 LINE",
"332 330 OFFCURVE",
"418 431 OFFCURVE",
"418 492 CURVE SMOOTH",
"418 545 OFFCURVE",
"331 619 OFFCURVE",
"275 619 CURVE SMOOTH",
"196 619 OFFCURVE",
"76 586 OFFCURVE",
"76 518 CURVE SMOOTH",
"76 480 OFFCURVE",
"100 449 OFFCURVE",
"137 419 CURVE",
"185 446 OFFCURVE",
"228 462 OFFCURVE",
"287 480 CURVE",
"241 405 OFFCURVE",
"180 355 OFFCURVE",
"86 314 CURVE",
"137 306 LINE",
"118 346 OFFCURVE",
"83 423 OFFCURVE",
"48 425 CURVE SMOOTH",
"6 427 OFFCURVE",
"-59 377 OFFCURVE",
"-60 347 CURVE SMOOTH",
"-63 306 OFFCURVE",
"-6 230 OFFCURVE",
"35 230 CURVE SMOOTH",
"60 230 OFFCURVE",
"89 248 OFFCURVE",
"106 270 CURVE",
"53 253 LINE",
"86 177 OFFCURVE",
"159 85 OFFCURVE",
"239 85 CURVE SMOOTH",
"329 85 OFFCURVE",
"450 200 OFFCURVE",
"514 274 CURVE",
"478 277 LINE"
);
},
{
closed = 1;
nodes = (
"1139 0 OFFCURVE",
"1293 76 OFFCURVE",
"1293 130 CURVE SMOOTH",
"1293 183 OFFCURVE",
"1258 222 OFFCURVE",
"1193 241 CURVE",
"1162 208 OFFCURVE",
"1135 188 OFFCURVE",
"1092 160 CURVE",
"1137 285 OFFCURVE",
"1216 450 OFFCURVE",
"1216 493 CURVE SMOOTH",
"1216 520 OFFCURVE",
"1104 593 OFFCURVE",
"1065 593 CURVE SMOOTH",
"1046 593 OFFCURVE",
"1027 501 OFFCURVE",
"1001 389 CURVE SMOOTH",
"972 266 OFFCURVE",
"932 140 OFFCURVE",
"932 125 CURVE SMOOTH",
"932 83 OFFCURVE",
"1053 0 OFFCURVE",
"1087 0 CURVE SMOOTH"
);
},
{
closed = 1;
nodes = (
"1218 619 OFFCURVE",
"1289 632 OFFCURVE",
"1337 662 CURVE",
"1351 728 OFFCURVE",
"1333 783 OFFCURVE",
"1265 808 CURVE",
"1207 775 OFFCURVE",
"1156 758 OFFCURVE",
"1096 748 CURVE",
"1064 799 OFFCURVE",
"1045 840 OFFCURVE",
"1022 898 CURVE",
"988 912 OFFCURVE",
"955 903 OFFCURVE",
"930 871 CURVE",
"955 766 OFFCURVE",
"1066 619 OFFCURVE",
"1141 619 CURVE SMOOTH"
);
}
);
};
layerId = "AF1B7CCB-9C31-456C-8386-1D362D80AEF6";
name = "Bold Italic";
paths = (
{
closed = 1;
nodes = (
"492 259 OFFCURVE",
"526 239 OFFCURVE",
"540 239 CURVE SMOOTH",
"560 239 OFFCURVE",
"588 261 OFFCURVE",
"610 285 CURVE",
"632 270 LINE",
"605 230 OFFCURVE",
"541 147 OFFCURVE",
"541 124 CURVE SMOOTH",
"541 85 OFFCURVE",
"660 0 OFFCURVE",
"696 0 CURVE SMOOTH",
"748 0 OFFCURVE",
"902 76 OFFCURVE",
"902 130 CURVE SMOOTH",
"902 183 OFFCURVE",
"867 222 OFFCURVE",
"802 241 CURVE",
"771 208 OFFCURVE",
"744 188 OFFCURVE",
"701 160 CURVE",
"746 285 OFFCURVE",
"825 450 OFFCURVE",
"825 493 CURVE SMOOTH",
"825 520 OFFCURVE",
"711 593 OFFCURVE",
"674 593 CURVE SMOOTH",
"653 593 OFFCURVE",
"632 463 OFFCURVE",
"562 385 CURVE",
"518 420 OFFCURVE",
"486 449 OFFCURVE",
"462 449 CURVE SMOOTH",
"437 449 OFFCURVE",
"389 380 OFFCURVE",
"389 358 CURVE SMOOTH",
"389 343 OFFCURVE",
"418 321 OFFCURVE",
"460 289 CURVE",
"435 339 LINE",
"367 284 OFFCURVE",
"327 255 OFFCURVE",
"252 224 CURVE",
"219 268 LINE",
"332 330 OFFCURVE",
"418 431 OFFCURVE",
"418 492 CURVE SMOOTH",
"418 545 OFFCURVE",
"331 619 OFFCURVE",
"275 619 CURVE SMOOTH",
"196 619 OFFCURVE",
"76 586 OFFCURVE",
"76 518 CURVE SMOOTH",
"76 480 OFFCURVE",
"100 449 OFFCURVE",
"137 419 CURVE",
"185 446 OFFCURVE",
"228 462 OFFCURVE",
"287 480 CURVE",
"241 405 OFFCURVE",
"180 355 OFFCURVE",
"86 314 CURVE",
"137 306 LINE",
"118 346 OFFCURVE",
"83 423 OFFCURVE",
"48 425 CURVE SMOOTH",
"6 427 OFFCURVE",
"-59 377 OFFCURVE",
"-60 347 CURVE SMOOTH",
"-63 306 OFFCURVE",
"-6 230 OFFCURVE",
"35 230 CURVE SMOOTH",
"60 230 OFFCURVE",
"89 248 OFFCURVE",
"106 270 CURVE",
"53 253 LINE",
"86 177 OFFCURVE",
"159 85 OFFCURVE",
"239 85 CURVE SMOOTH",
"329 85 OFFCURVE",
"450 200 OFFCURVE",
"514 274 CURVE",
"478 277 LINE"
);
},
{
closed = 1;
nodes = (
"1139 0 OFFCURVE",
"1293 76 OFFCURVE",
"1293 130 CURVE SMOOTH",
"1293 183 OFFCURVE",
"1258 222 OFFCURVE",
"1193 241 CURVE",
"1162 208 OFFCURVE",
"1135 188 OFFCURVE",
"1092 160 CURVE",
"1137 285 OFFCURVE",
"1216 450 OFFCURVE",
"1216 493 CURVE SMOOTH",
"1216 520 OFFCURVE",
"1104 593 OFFCURVE",
"1065 593 CURVE SMOOTH",
"1046 593 OFFCURVE",
"1027 501 OFFCURVE",
"1001 389 CURVE SMOOTH",
"972 266 OFFCURVE",
"932 140 OFFCURVE",
"932 125 CURVE SMOOTH",
"932 83 OFFCURVE",
"1053 0 OFFCURVE",
"1087 0 CURVE SMOOTH"
);
},
{
closed = 1;
nodes = (
"1218 619 OFFCURVE",
"1289 632 OFFCURVE",
"1337 662 CURVE",
"1351 728 OFFCURVE",
"1333 783 OFFCURVE",
"1265 808 CURVE",
"1207 775 OFFCURVE",
"1156 758 OFFCURVE",
"1096 748 CURVE",
"1064 799 OFFCURVE",
"1045 840 OFFCURVE",
"1022 898 CURVE",
"988 912 OFFCURVE",
"955 903 OFFCURVE",
"930 871 CURVE",
"955 766 OFFCURVE",
"1066 619 OFFCURVE",
"1141 619 CURVE SMOOTH"
);
}
);
width = 1336;
}
);
leftKerningGroup = gjA;
leftMetricsKey = gjA;
rightKerningGroup = gjA;
rightMetricsKey = gjmOcandra;
unicode = 0A91;
},
{
glyphname = gjmAA;
lastChange = "2015-09-16 14:55:47 +0000";
layers = (
{
associatedMasterId = "AF1B7CCB-9C31-456C-8386-1D362D80AEF6";
background = {
paths = (
{
closed = 1;
nodes = (
"113 583 OFFCURVE",
"40 148 OFFCURVE",
"40 119 CURVE SMOOTH",
"40 80 OFFCURVE",
"147 -1 OFFCURVE",
"191 -1 CURVE SMOOTH",
"273 -1 OFFCURVE",
"463 132 OFFCURVE",
"463 191 CURVE SMOOTH",
"463 247 OFFCURVE",
"402 296 OFFCURVE",
"326 316 CURVE",
"296 276 OFFCURVE",
"255 235 OFFCURVE",
"213 210 CURVE",
"251 308 OFFCURVE",
"346 451 OFFCURVE",
"346 515 CURVE SMOOTH",
"346 537 OFFCURVE",
"231 583 OFFCURVE",
"153 583 CURVE SMOOTH"
);
}
);
};
layerId = "8E7199BD-264A-4A8E-AA5C-69EB600A5050";
name = "Bold Jul 8 15, 12:31";
paths = (
{
closed = 1;
nodes = (
"113 583 OFFCURVE",
"40 148 OFFCURVE",
"40 119 CURVE SMOOTH",
"40 80 OFFCURVE",
"147 -1 OFFCURVE",
"191 -1 CURVE SMOOTH",
"273 -1 OFFCURVE",
"463 132 OFFCURVE",
"463 191 CURVE SMOOTH",
"463 247 OFFCURVE",
"402 296 OFFCURVE",
"326 316 CURVE",
"296 276 OFFCURVE",
"255 235 OFFCURVE",
"213 210 CURVE",
"251 308 OFFCURVE",
"346 451 OFFCURVE",
"346 515 CURVE SMOOTH",
"346 537 OFFCURVE",
"231 583 OFFCURVE",
"153 583 CURVE SMOOTH"
);
}
);
width = 443;
},
{
background = {
paths = (
{
closed = 1;
nodes = (
"197 0 OFFCURVE",
"348 80 OFFCURVE",
"348 130 CURVE SMOOTH",
"348 179 OFFCURVE",
"317 224 OFFCURVE",
"241 243 CURVE",
"214 215 OFFCURVE",
"190 196 OFFCURVE",
"156 175 CURVE",
"202 308 OFFCURVE",
"268 447 OFFCURVE",
"268 483 CURVE SMOOTH",
"268 511 OFFCURVE",
"152 583 OFFCURVE",
"118 583 CURVE SMOOTH",
"82 583 OFFCURVE",
"-12 163 OFFCURVE",
"-12 121 CURVE SMOOTH",
"-12 82 OFFCURVE",
"106 0 OFFCURVE",
"142 0 CURVE SMOOTH"
);
}
);
};
guideLines = (
{
position = "{112, 334}";
showMeasurement = 1;
}
);
layerId = "AF1B7CCB-9C31-456C-8386-1D362D80AEF6";
name = "Bold Italic";
paths = (
{
closed = 1;
nodes = (
"194 0 OFFCURVE",
"348 76 OFFCURVE",
"348 130 CURVE SMOOTH",
"348 183 OFFCURVE",
"313 222 OFFCURVE",
"248 241 CURVE",
"217 208 OFFCURVE",
"190 188 OFFCURVE",
"147 160 CURVE",
"192 285 OFFCURVE",
"271 450 OFFCURVE",
"271 493 CURVE SMOOTH",
"271 520 OFFCURVE",
"159 593 OFFCURVE",
"120 593 CURVE SMOOTH",
"101 593 OFFCURVE",
"82 501 OFFCURVE",
"56 389 CURVE SMOOTH",
"27 266 OFFCURVE",
"-13 140 OFFCURVE",
"-13 125 CURVE SMOOTH",
"-13 83 OFFCURVE",
"108 0 OFFCURVE",
"142 0 CURVE SMOOTH"
);
}
);
width = 391;
},
{
associatedMasterId = "AF1B7CCB-9C31-456C-8386-1D362D80AEF6";
background = {
paths = (
{
closed = 1;
nodes = (
"87 583 OFFCURVE",
"14 148 OFFCURVE",
"14 119 CURVE SMOOTH",
"14 80 OFFCURVE",
"121 -1 OFFCURVE",
"165 -1 CURVE SMOOTH",
"247 -1 OFFCURVE",
"437 132 OFFCURVE",
"437 191 CURVE SMOOTH",
"437 247 OFFCURVE",
"376 296 OFFCURVE",
"300 316 CURVE",
"270 276 OFFCURVE",
"229 235 OFFCURVE",
"187 210 CURVE",
"225 308 OFFCURVE",
"320 451 OFFCURVE",
"320 515 CURVE SMOOTH",
"320 537 OFFCURVE",
"205 583 OFFCURVE",
"127 583 CURVE SMOOTH"
);
}
);
};
layerId = "9904313C-8FEF-4716-995F-F807C3C192E6";
name = "Bold Italic Jul 10 15, 19:20";
paths = (
{
closed = 1;
nodes = (
"97 583 OFFCURVE",
"4 152 OFFCURVE",
"4 123 CURVE SMOOTH",
"4 84 OFFCURVE",
"121 -1 OFFCURVE",
"165 -1 CURVE SMOOTH",
"247 -1 OFFCURVE",
"437 132 OFFCURVE",
"437 191 CURVE SMOOTH",
"437 247 OFFCURVE",
"371 298 OFFCURVE",
"316 312 CURVE",
"278 267 OFFCURVE",
"241 222 OFFCURVE",
"199 197 CURVE",
"241 322 OFFCURVE",
"320 457 OFFCURVE",
"320 515 CURVE SMOOTH",
"320 542 OFFCURVE",
"194 583 OFFCURVE",
"133 583 CURVE SMOOTH"
);
}
);
width = 467;
},
{
associatedMasterId = "AF1B7CCB-9C31-456C-8386-1D362D80AEF6";
background = {
paths = (
{
closed = 1;
nodes = (
"102 583 OFFCURVE",
"8 163 OFFCURVE",
"8 123 CURVE SMOOTH",
"8 86 OFFCURVE",
"121 0 OFFCURVE",
"171 0 CURVE SMOOTH",
"232 0 OFFCURVE",
"441 122 OFFCURVE",
"441 193 CURVE SMOOTH",
"441 237 OFFCURVE",
"389 293 OFFCURVE",
"320 312 CURVE",
"277 257 OFFCURVE",
"239 208 OFFCURVE",
"182 175 CURVE",
"230 315 OFFCURVE",
"304 471 OFFCURVE",
"304 522 CURVE SMOOTH",
"304 551 OFFCURVE",
"188 583 OFFCURVE",
"138 583 CURVE SMOOTH"
);
}
);
};
layerId = "110F3FD9-2534-4653-82A4-05BB632B7011";
name = equal;
paths = (
{
closed = 1;
nodes = (
"7 87 OFFCURVE",
"120 0 OFFCURVE",
"170 0 CURVE SMOOTH",
"231 0 OFFCURVE",
"440 122 OFFCURVE",
"440 193 CURVE SMOOTH",
"440 237 OFFCURVE",
"388 293 OFFCURVE",
"319 312 CURVE",
"276 257 OFFCURVE",
"238 208 OFFCURVE",
"181 175 CURVE",
"229 315 OFFCURVE",
"309 480 OFFCURVE",
"309 541 CURVE SMOOTH",
"309 570 OFFCURVE",
"192 602 OFFCURVE",
"147 602 CURVE SMOOTH",
"105 602 OFFCURVE",
"7 168 OFFCURVE",
"7 122 CURVE SMOOTH"
);
}
);
width = 498;
}
);
unicode = 0ABE;
},
{
glyphname = gjmII;
lastChange = "2015-10-02 12:30:05 +0000";
layers = (
{
background = {
paths = (
{
closed = 1;
nodes = (
"237 399 OFFCURVE",
"280 576 OFFCURVE",
"280 700 CURVE SMOOTH",
"280 781 OFFCURVE",
"185 903 OFFCURVE",
"106 903 CURVE SMOOTH",
"-11 903 OFFCURVE",
"-178 771 OFFCURVE",
"-178 672 CURVE SMOOTH",
"-178 619 OFFCURVE",
"-148 561 OFFCURVE",
"-90 561 CURVE SMOOTH",
"-48 561 OFFCURVE",
"-8 580 OFFCURVE",
"9 608 CURVE",
"-15 637 OFFCURVE",
"-26 658 OFFCURVE",
"-38 683 CURVE",
"7 734 OFFCURVE",
"63 758 OFFCURVE",
"132 776 CURVE",
"106 430 OFFCURVE",
"-12 279 OFFCURVE",
"-12 123 CURVE SMOOTH",
"-12 86 OFFCURVE",
"101 0 OFFCURVE",
"151 0 CURVE SMOOTH",
"206 0 OFFCURVE",
"357 80 OFFCURVE",
"357 130 CURVE SMOOTH",
"357 179 OFFCURVE",
"326 224 OFFCURVE",
"250 243 CURVE",
"223 215 OFFCURVE",
"199 196 OFFCURVE",
"162 175 CURVE"
);
}
);
};
guideLines = (
{
locked = 1;
position = "{76, 641}";
}
);
layerId = "AF1B7CCB-9C31-456C-8386-1D362D80AEF6";
name = "Bold Italic";
paths = (
{
closed = 1;
nodes = (
"155 632 OFFCURVE",
"-12 167 OFFCURVE",
"-12 125 CURVE SMOOTH",
"-12 83 OFFCURVE",
"109 0 OFFCURVE",
"143 0 CURVE SMOOTH",
"195 0 OFFCURVE",
"349 76 OFFCURVE",
"349 130 CURVE SMOOTH",
"349 183 OFFCURVE",
"314 222 OFFCURVE",
"249 241 CURVE",
"218 208 OFFCURVE",
"191 188 OFFCURVE",
"148 160 CURVE",
"218 328 OFFCURVE",
"279 604 OFFCURVE",
"279 692 CURVE SMOOTH",
"279 776 OFFCURVE",
"191 902 OFFCURVE",
"106 902 CURVE SMOOTH",
"-13 902 OFFCURVE",
"-150 779 OFFCURVE",
"-150 685 CURVE SMOOTH",
"-150 623 OFFCURVE",
"-109 581 OFFCURVE",
"-54 581 CURVE SMOOTH",
"-22 581 OFFCURVE",
"12 597 OFFCURVE",
"37 626 CURVE",
"17 650 OFFCURVE",
"2 676 OFFCURVE",
"-10 701 CURVE",
"30 736 OFFCURVE",
"78 766 OFFCURVE",
"136 772 CURVE"
);
}
);
width = 392;
},
{
associatedMasterId = "AF1B7CCB-9C31-456C-8386-1D362D80AEF6";
background = {
paths = (
{
closed = 1;
nodes = (
"237 399 OFFCURVE",
"280 576 OFFCURVE",
"280 700 CURVE SMOOTH",
"280 781 OFFCURVE",
"185 903 OFFCURVE",
"106 903 CURVE SMOOTH",
"-11 903 OFFCURVE",
"-178 771 OFFCURVE",
"-178 672 CURVE SMOOTH",
"-178 619 OFFCURVE",
"-148 561 OFFCURVE",
"-90 561 CURVE SMOOTH",
"-48 561 OFFCURVE",
"-8 580 OFFCURVE",
"9 608 CURVE",
"-15 637 OFFCURVE",
"-26 658 OFFCURVE",
"-38 683 CURVE",
"7 734 OFFCURVE",
"63 758 OFFCURVE",
"132 776 CURVE",
"106 430 OFFCURVE",
"-12 279 OFFCURVE",
"-12 123 CURVE SMOOTH",
"-12 86 OFFCURVE",
"101 0 OFFCURVE",
"151 0 CURVE SMOOTH",
"206 0 OFFCURVE",
"357 80 OFFCURVE",
"357 130 CURVE SMOOTH",
"357 179 OFFCURVE",
"326 224 OFFCURVE",
"250 243 CURVE",
"223 215 OFFCURVE",
"199 196 OFFCURVE",
"162 175 CURVE"
);
}
);
};
guideLines = (
{
locked = 1;
position = "{76, 641}";
}
);
layerId = "1DB534A1-FB27-4E60-A2D1-E7424457C470";
name = "Bold Italic Jul 27 15, 19:55";
paths = (
{
closed = 1;
nodes = (
"120 470 OFFCURVE",
"-12 279 OFFCURVE",
"-12 123 CURVE SMOOTH",
"-12 86 OFFCURVE",
"101 0 OFFCURVE",
"151 0 CURVE SMOOTH",
"212 0 OFFCURVE",
"421 122 OFFCURVE",
"421 193 CURVE SMOOTH",
"421 237 OFFCURVE",
"369 293 OFFCURVE",
"300 312 CURVE",
"257 257 OFFCURVE",
"219 208 OFFCURVE",
"162 175 CURVE",
"237 399 OFFCURVE",
"294 616 OFFCURVE",
"294 745 CURVE SMOOTH",
"294 822 OFFCURVE",
"202 943 OFFCURVE",
"120 943 CURVE SMOOTH",
"-7 943 OFFCURVE",
"-151 776 OFFCURVE",
"-151 692 CURVE SMOOTH",
"-151 639 OFFCURVE",
"-121 581 OFFCURVE",
"-63 581 CURVE SMOOTH",
"-21 581 OFFCURVE",
"19 600 OFFCURVE",
"36 628 CURVE",
"12 657 OFFCURVE",
"1 678 OFFCURVE",
"-11 703 CURVE",
"28 763 OFFCURVE",
"77 798 OFFCURVE",
"146 816 CURVE"
);
}
);
width = 394;
visible = 1;
}
);
leftKerningGroup = gjmII;
rightMetricsKey = gjmAA;
unicode = 0AC0;
},
{
color = 3;
glyphname = gjmU;
lastChange = "2015-10-04 15:01:50 +0000";
layers = (
{
associatedMasterId = "AF1B7CCB-9C31-456C-8386-1D362D80AEF6";
background = {
paths = (
{
closed = 1;
nodes = (
"-576 -189 OFFCURVE",
"-522 -142 OFFCURVE",
"-489 -58 CURVE",
"-540 -54 OFFCURVE",
"-571 -66 OFFCURVE",
"-604 -88 CURVE",
"-571 -137 OFFCURVE",
"-552 -152 OFFCURVE",
"-517 -164 CURVE",
"-571 -204 LINE",
"-654 -172 OFFCURVE",
"-711 -121 OFFCURVE",
"-711 -77 CURVE SMOOTH",
"-711 -20 OFFCURVE",
"-591 38 OFFCURVE",
"-531 38 CURVE SMOOTH",
"-456 38 OFFCURVE",
"-389 -60 OFFCURVE",
"-389 -88 CURVE SMOOTH",
"-389 -178 OFFCURVE",
"-505 -277 OFFCURVE",
"-651 -277 CURVE SMOOTH",
"-769 -277 OFFCURVE",
"-891 -175 OFFCURVE",
"-922 -52 CURVE",
"-908 18 OFFCURVE",
"-789 37 OFFCURVE",
"-747 -19 CURVE",
"-760 -54 OFFCURVE",
"-766 -88 OFFCURVE",
"-766 -118 CURVE",
"-746 -160 OFFCURVE",
"-689 -189 OFFCURVE",
"-660 -189 CURVE SMOOTH"
);
}
);
};
layerId = "EC98ADD1-F0F4-4E5B-AA1F-91B444C492F7";
name = "Bold Italic Jul 16 15, 23:31";
paths = (
{
closed = 1;
nodes = (
"-576 -189 OFFCURVE",
"-522 -142 OFFCURVE",
"-489 -58 CURVE",
"-540 -54 OFFCURVE",
"-571 -66 OFFCURVE",
"-604 -88 CURVE",
"-571 -137 OFFCURVE",
"-552 -152 OFFCURVE",
"-517 -164 CURVE",
"-571 -204 LINE",
"-654 -172 OFFCURVE",
"-711 -121 OFFCURVE",
"-711 -77 CURVE SMOOTH",
"-711 -20 OFFCURVE",
"-591 38 OFFCURVE",
"-531 38 CURVE SMOOTH",
"-456 38 OFFCURVE",
"-389 -60 OFFCURVE",
"-389 -88 CURVE SMOOTH",
"-389 -178 OFFCURVE",
"-505 -277 OFFCURVE",
"-651 -277 CURVE SMOOTH",
"-769 -277 OFFCURVE",
"-891 -175 OFFCURVE",
"-922 -52 CURVE",
"-908 18 OFFCURVE",
"-789 37 OFFCURVE",
"-747 -19 CURVE",
"-760 -54 OFFCURVE",
"-766 -88 OFFCURVE",
"-766 -118 CURVE",
"-746 -160 OFFCURVE",
"-689 -189 OFFCURVE",
"-660 -189 CURVE SMOOTH"
);
}
);
width = 0;
},
{
associatedMasterId = "AF1B7CCB-9C31-456C-8386-1D362D80AEF6";
background = {
paths = (
{
closed = 1;
nodes = (
"-409 -282 OFFCURVE",
"-276 -194 OFFCURVE",
"-276 -99 CURVE SMOOTH",
"-276 -45 OFFCURVE",
"-353 45 OFFCURVE",
"-408 45 CURVE SMOOTH",
"-483 45 OFFCURVE",
"-549 -18 OFFCURVE",
"-549 -60 CURVE SMOOTH",
"-549 -93 OFFCURVE",
"-532 -127 OFFCURVE",
"-505 -153 CURVE",
"-444 -172 OFFCURVE",
"-405 -180 OFFCURVE",
"-353 -182 CURVE",
"-337 -147 LINE",
"-374 -139 OFFCURVE",
"-435 -110 OFFCURVE",
"-463 -81 CURVE",
"-440 -34 OFFCURVE",
"-380 -47 OFFCURVE",
"-360 -72 CURVE",
"-398 -153 OFFCURVE",
"-461 -195 OFFCURVE",
"-545 -205 CURVE",
"-568 -153 OFFCURVE",
"-575 -113 OFFCURVE",
"-577 -58 CURVE",
"-630 -36 OFFCURVE",
"-677 -53 OFFCURVE",
"-709 -106 CURVE",
"-681 -178 OFFCURVE",
"-603 -282 OFFCURVE",
"-520 -282 CURVE SMOOTH"
);
}
);
};
guideLines = (
{
position = "{-293, -291}";
}
);
layerId = "7EA15CD0-BDE1-4305-A055-50186710E04E";
name = "Bold Italic Aug 20 15, 22:05";
paths = (
{
closed = 1;
nodes = (
"-410 -282 OFFCURVE",
"-277 -194 OFFCURVE",
"-277 -99 CURVE SMOOTH",
"-277 -45 OFFCURVE",
"-346 35 OFFCURVE",
"-401 35 CURVE SMOOTH",
"-476 35 OFFCURVE",
"-542 -28 OFFCURVE",
"-542 -70 CURVE SMOOTH",
"-542 -103 OFFCURVE",
"-520 -137 OFFCURVE",
"-492 -158 CURVE",
"-445 -172 OFFCURVE",
"-406 -180 OFFCURVE",
"-354 -182 CURVE",
"-338 -147 LINE",
"-375 -139 OFFCURVE",
"-428 -120 OFFCURVE",
"-464 -81 CURVE",
"-445 -45 OFFCURVE",
"-383 -28 OFFCURVE",
"-361 -72 CURVE",
"-383 -145 OFFCURVE",
"-462 -195 OFFCURVE",
"-546 -205 CURVE",
"-560 -167 OFFCURVE",
"-566 -137 OFFCURVE",
"-572 -83 CURVE",
"-616 -58 OFFCURVE",
"-661 -74 OFFCURVE",
"-700 -124 CURVE",
"-678 -192 OFFCURVE",
"-597 -282 OFFCURVE",
"-533 -282 CURVE SMOOTH"
);
}
);
width = 1;
},
{
associatedMasterId = "AF1B7CCB-9C31-456C-8386-1D362D80AEF6";
background = {
paths = (
{
closed = 1;
nodes = (
"-471 48 OFFCURVE",
"-562 -11 OFFCURVE",
"-562 -67 CURVE SMOOTH",
"-562 -85 OFFCURVE",
"-538 -127 OFFCURVE",
"-521 -140 CURVE",
"-496 -151 OFFCURVE",
"-468 -161 OFFCURVE",
"-449 -164 CURVE",
"-480 -182 OFFCURVE",
"-512 -194 OFFCURVE",
"-546 -198 CURVE",
"-567 -162 OFFCURVE",
"-583 -117 OFFCURVE",
"-593 -60 CURVE",
"-654 -31 OFFCURVE",
"-701 -59 OFFCURVE",
"-719 -111 CURVE",
"-696 -186 OFFCURVE",
"-616 -269 OFFCURVE",
"-534 -269 CURVE SMOOTH",
"-406 -269 OFFCURVE",
"-280 -184 OFFCURVE",
"-280 -111 CURVE SMOOTH",
"-280 -42 OFFCURVE",
"-360 48 OFFCURVE",
"-420 48 CURVE SMOOTH"
);
},
{
closed = 1;
nodes = (
"-468 -74 OFFCURVE",
"-438 -50 OFFCURVE",
"-408 -50 CURVE SMOOTH",
"-389 -50 OFFCURVE",
"-369 -71 OFFCURVE",
"-360 -90 CURVE",
"-374 -108 OFFCURVE",
"-384 -118 OFFCURVE",
"-409 -135 CURVE",
"-436 -126 OFFCURVE",
"-468 -104 OFFCURVE",
"-468 -92 CURVE SMOOTH"
);
}
);
};
guideLines = (
{
position = "{-293, -291}";
}
);
layerId = "2FA8B1A4-F126-4E12-BBE8-7D0F3837DA7E";
name = "Bold Italic Oct 2 15, 20:35";
paths = (
{
closed = 1;
nodes = (
"-477 48 OFFCURVE",
"-568 -11 OFFCURVE",
"-568 -67 CURVE SMOOTH",
"-568 -85 OFFCURVE",
"-544 -127 OFFCURVE",
"-527 -140 CURVE",
"-502 -151 OFFCURVE",
"-474 -161 OFFCURVE",
"-455 -164 CURVE",
"-486 -182 OFFCURVE",
"-518 -194 OFFCURVE",
"-552 -198 CURVE",
"-573 -162 OFFCURVE",
"-589 -117 OFFCURVE",
"-599 -60 CURVE",
"-660 -31 OFFCURVE",
"-707 -59 OFFCURVE",
"-725 -111 CURVE",
"-702 -186 OFFCURVE",
"-622 -269 OFFCURVE",
"-540 -269 CURVE SMOOTH",
"-412 -269 OFFCURVE",
"-286 -184 OFFCURVE",
"-286 -111 CURVE SMOOTH",
"-286 -42 OFFCURVE",
"-366 48 OFFCURVE",
"-426 48 CURVE SMOOTH"
);
},
{
closed = 1;
nodes = (
"-474 -74 OFFCURVE",
"-444 -50 OFFCURVE",
"-414 -50 CURVE SMOOTH",
"-395 -50 OFFCURVE",
"-375 -71 OFFCURVE",
"-366 -90 CURVE",
"-380 -108 OFFCURVE",
"-390 -118 OFFCURVE",
"-415 -135 CURVE",
"-442 -126 OFFCURVE",
"-474 -104 OFFCURVE",
"-474 -92 CURVE SMOOTH"
);
}
);
width = 1;
},
{
anchors = (
{
name = _blwm.u;
position = "{-382, 0}";
}
);
background = {
paths = (
{
closed = 1;
nodes = (
"-456 21 OFFCURVE",
"-547 -38 OFFCURVE",
"-547 -94 CURVE SMOOTH",
"-547 -112 OFFCURVE",
"-523 -154 OFFCURVE",
"-506 -167 CURVE",
"-481 -178 OFFCURVE",
"-453 -188 OFFCURVE",
"-434 -191 CURVE",
"-465 -209 OFFCURVE",
"-497 -221 OFFCURVE",
"-531 -225 CURVE",
"-552 -189 OFFCURVE",
"-568 -144 OFFCURVE",
"-578 -87 CURVE",
"-639 -58 OFFCURVE",
"-686 -86 OFFCURVE",
"-704 -138 CURVE",
"-681 -213 OFFCURVE",
"-601 -296 OFFCURVE",
"-519 -296 CURVE SMOOTH",
"-391 -296 OFFCURVE",
"-265 -211 OFFCURVE",
"-265 -138 CURVE SMOOTH",
"-265 -69 OFFCURVE",
"-345 21 OFFCURVE",
"-405 21 CURVE SMOOTH"
);
},
{
closed = 1;
nodes = (
"-453 -101 OFFCURVE",
"-423 -77 OFFCURVE",
"-393 -77 CURVE SMOOTH",
"-374 -77 OFFCURVE",
"-354 -98 OFFCURVE",
"-345 -117 CURVE",
"-359 -135 OFFCURVE",
"-369 -145 OFFCURVE",
"-394 -162 CURVE",
"-421 -153 OFFCURVE",
"-453 -131 OFFCURVE",
"-453 -119 CURVE SMOOTH"
);
}
);
};
guideLines = (
{
position = "{-293, -291}";
}
);
layerId = "AF1B7CCB-9C31-456C-8386-1D362D80AEF6";
name = "Bold Italic";
paths = (
{
closed = 1;
nodes = (
"-361 -152 LINE",
"-404 -140 OFFCURVE",
"-442 -120 OFFCURVE",
"-442 -106 CURVE SMOOTH",
"-442 -91 OFFCURVE",
"-422 -73 OFFCURVE",
"-398 -73 CURVE SMOOTH",
"-370 -73 OFFCURVE",
"-354 -87 OFFCURVE",
"-340 -109 CURVE",
"-385 -170 OFFCURVE",
"-432 -189 OFFCURVE",
"-528 -206 CURVE",
"-556 -170 OFFCURVE",
"-576 -126 OFFCURVE",
"-591 -71 CURVE",
"-648 -47 OFFCURVE",
"-692 -79 OFFCURVE",
"-705 -132 CURVE",
"-675 -205 OFFCURVE",
"-592 -277 OFFCURVE",
"-504 -277 CURVE SMOOTH",
"-377 -277 OFFCURVE",
"-266 -207 OFFCURVE",
"-266 -126 CURVE SMOOTH",
"-266 -64 OFFCURVE",
"-347 21 OFFCURVE",
"-406 21 CURVE SMOOTH",
"-458 21 OFFCURVE",
"-537 -33 OFFCURVE",
"-537 -75 CURVE SMOOTH",
"-537 -94 OFFCURVE",
"-514 -135 OFFCURVE",
"-489 -153 CURVE",
"-459 -166 OFFCURVE",
"-426 -176 OFFCURVE",
"-379 -182 CURVE"
);
}
);
width = 1;
}
);
unicode = 0AC1;
},
{
color = 3;
glyphname = gjmUU;
lastChange = "2015-10-04 13:04:39 +0000";
layers = (
{
associatedMasterId = "AF1B7CCB-9C31-456C-8386-1D362D80AEF6";
background = {
paths = (
{
closed = 1;
nodes = (
"-60 -239 OFFCURVE",
"-47 -168 OFFCURVE",
"-77 -129 CURVE",
"-346 -181 OFFCURVE",
"-468 21 OFFCURVE",
"-560 21 CURVE SMOOTH",
"-618 21 OFFCURVE",
"-715 -74 OFFCURVE",
"-715 -119 CURVE SMOOTH",
"-715 -171 OFFCURVE",
"-603 -231 OFFCURVE",
"-528 -231 CURVE SMOOTH",
"-491 -231 OFFCURVE",
"-441 -199 OFFCURVE",
"-402 -156 CURVE",
"-320 -217 OFFCURVE",
"-244 -256 OFFCURVE",
"-101 -274 CURVE"
);
}
);
};
layerId = "795FB4C9-9DF7-4054-A460-02AD5FA6676D";
name = knotless;
paths = (
{
closed = 1;
nodes = (
"-77 -222 OFFCURVE",
"-65 -114 OFFCURVE",
"-140 -61 CURVE",
"-168 -73 OFFCURVE",
"-207 -86 OFFCURVE",
"-244 -86 CURVE SMOOTH",
"-299 -86 OFFCURVE",
"-337 -63 OFFCURVE",
"-370 -35 CURVE SMOOTH",
"-430 17 OFFCURVE",
"-465 66 OFFCURVE",
"-503 66 CURVE SMOOTH",
"-597 66 OFFCURVE",
"-647 -5 OFFCURVE",
"-647 -51 CURVE SMOOTH",
"-647 -97 OFFCURVE",
"-544 -155 OFFCURVE",
"-497 -155 CURVE SMOOTH",
"-464 -155 OFFCURVE",
"-419 -120 OFFCURVE",
"-403 -94 CURVE",
"-366 -131 OFFCURVE",
"-292 -188 OFFCURVE",
"-212 -224 CURVE"
);
}
);
width = 0;
},
{
associatedMasterId = "AF1B7CCB-9C31-456C-8386-1D362D80AEF6";
background = {
paths = (
{
closed = 1;
nodes = (
"-470 -146 OFFCURVE",
"-340 -272 OFFCURVE",
"-240 -272 CURVE SMOOTH",
"-196 -272 OFFCURVE",
"-146 -258 OFFCURVE",
"-91 -218 CURVE",
"-75 -148 OFFCURVE",
"-103 -98 OFFCURVE",
"-160 -79 CURVE",
"-198 -103 OFFCURVE",
"-241 -115 OFFCURVE",
"-270 -115 CURVE SMOOTH",
"-395 -115 OFFCURVE",
"-455 44 OFFCURVE",
"-541 44 CURVE SMOOTH",
"-607 44 OFFCURVE",
"-730 -79 OFFCURVE",
"-730 -153 CURVE SMOOTH",
"-730 -204 OFFCURVE",
"-634 -275 OFFCURVE",
"-563 -275 CURVE SMOOTH",
"-513 -275 OFFCURVE",
"-388 -198 OFFCURVE",
"-356 -118 CURVE",
"-418 -49 LINE",
"-463 -121 OFFCURVE",
"-520 -156 OFFCURVE",
"-597 -171 CURVE",
"-590 -120 OFFCURVE",
"-561 -92 OFFCURVE",
"-523 -70 CURVE"
);
}
);
};
layerId = "937C4513-EF9B-45A9-9E2A-190EFAE03887";
name = potentialllll;
paths = (
{
closed = 1;
nodes = (
"-421 -112 LINE",
"-459 -153 OFFCURVE",
"-524 -170 OFFCURVE",
"-587 -174 CURVE",
"-573 -118 OFFCURVE",
"-546 -92 OFFCURVE",
"-514 -64 CURVE",
"-455 -134 OFFCURVE",
"-329 -272 OFFCURVE",
"-223 -272 CURVE SMOOTH",
"-174 -272 OFFCURVE",
"-121 -246 OFFCURVE",
"-91 -218 CURVE",
"-75 -148 OFFCURVE",
"-103 -98 OFFCURVE",
"-165 -85 CURVE",
"-191 -104 OFFCURVE",
"-224 -125 OFFCURVE",
"-265 -125 CURVE SMOOTH",
"-396 -125 OFFCURVE",
"-444 31 OFFCURVE",
"-525 31 CURVE SMOOTH",
"-597 31 OFFCURVE",
"-708 -85 OFFCURVE",
"-708 -151 CURVE SMOOTH",
"-708 -189 OFFCURVE",
"-628 -277 OFFCURVE",
"-546 -277 CURVE SMOOTH",
"-480 -277 OFFCURVE",
"-403 -206 OFFCURVE",
"-374 -151 CURVE"
);
}
);
width = 0;
},
{
associatedMasterId = "AF1B7CCB-9C31-456C-8386-1D362D80AEF6";
background = {
paths = (
{
closed = 1;
nodes = (
"-375 -102 LINE",
"-425 -139 OFFCURVE",
"-479 -163 OFFCURVE",
"-531 -171 CURVE",
"-519 -123 OFFCURVE",
"-492 -92 OFFCURVE",
"-460 -61 CURVE",
"-378 -153 OFFCURVE",
"-264 -291 OFFCURVE",
"-190 -291 CURVE SMOOTH",
"-152 -291 OFFCURVE",
"-103 -268 OFFCURVE",
"-74 -236 CURVE",
"-75 -150 OFFCURVE",
"-120 -98 OFFCURVE",
"-202 -90 CURVE",
"-231 -118 OFFCURVE",
"-248 -128 OFFCURVE",
"-274 -139 CURVE",
"-395 -97 OFFCURVE",
"-439 24 OFFCURVE",
"-490 24 CURVE SMOOTH",
"-568 24 OFFCURVE",
"-654 -80 OFFCURVE",
"-654 -129 CURVE SMOOTH",
"-654 -171 OFFCURVE",
"-569 -262 OFFCURVE",
"-506 -262 CURVE SMOOTH",
"-439 -262 OFFCURVE",
"-370 -201 OFFCURVE",
"-332 -133 CURVE"
);
}
);
};
layerId = "BB73FE93-699E-4846-8A79-75BB9A24E268";
name = "Bold Italic Jul 28 15, 19:19";
paths = (
{
closed = 1;
nodes = (
"-345 -86 LINE",
"-395 -123 OFFCURVE",
"-449 -147 OFFCURVE",
"-501 -155 CURVE",
"-489 -107 OFFCURVE",
"-462 -76 OFFCURVE",
"-430 -45 CURVE",
"-348 -137 OFFCURVE",
"-234 -275 OFFCURVE",
"-160 -275 CURVE SMOOTH",
"-122 -275 OFFCURVE",
"-73 -252 OFFCURVE",
"-44 -220 CURVE",
"-45 -134 OFFCURVE",
"-90 -82 OFFCURVE",
"-172 -74 CURVE",
"-201 -102 OFFCURVE",
"-218 -112 OFFCURVE",
"-244 -123 CURVE",
"-365 -81 OFFCURVE",
"-409 40 OFFCURVE",
"-460 40 CURVE SMOOTH",
"-538 40 OFFCURVE",
"-624 -64 OFFCURVE",
"-624 -113 CURVE SMOOTH",
"-624 -155 OFFCURVE",
"-539 -246 OFFCURVE",
"-476 -246 CURVE SMOOTH",
"-409 -246 OFFCURVE",
"-340 -185 OFFCURVE",
"-302 -117 CURVE"
);
}
);
width = 0;
},
{
associatedMasterId = "AF1B7CCB-9C31-456C-8386-1D362D80AEF6";
background = {
paths = (
{
closed = 1;
nodes = (
"-300 -78 LINE",
"-350 -115 OFFCURVE",
"-404 -139 OFFCURVE",
"-456 -147 CURVE",
"-444 -99 OFFCURVE",
"-417 -68 OFFCURVE",
"-385 -37 CURVE",
"-314 -115 OFFCURVE",
"-206 -256 OFFCURVE",
"-132 -256 CURVE SMOOTH",
"-89 -256 OFFCURVE",
"-55 -240 OFFCURVE",
"-28 -219 CURVE",
"-13 -147 OFFCURVE",
"-58 -79 OFFCURVE",
"-139 -60 CURVE",
"-165 -82 OFFCURVE",
"-182 -91 OFFCURVE",
"-222 -110 CURVE",
"-308 -68 OFFCURVE",
"-364 48 OFFCURVE",
"-415 48 CURVE SMOOTH",
"-493 48 OFFCURVE",
"-579 -56 OFFCURVE",
"-579 -105 CURVE SMOOTH",
"-579 -147 OFFCURVE",
"-494 -238 OFFCURVE",
"-431 -238 CURVE SMOOTH",
"-364 -238 OFFCURVE",
"-295 -177 OFFCURVE",
"-257 -109 CURVE"
);
}
);
};
layerId = "783E757A-E9A3-4DD9-9D8F-D921CDBF4A25";
name = original.;
paths = (
{
closed = 1;
nodes = (
"-300 -78 LINE",
"-350 -115 OFFCURVE",
"-404 -139 OFFCURVE",
"-456 -147 CURVE",
"-444 -99 OFFCURVE",
"-417 -68 OFFCURVE",
"-385 -37 CURVE",
"-314 -115 OFFCURVE",
"-206 -256 OFFCURVE",
"-132 -256 CURVE SMOOTH",
"-89 -256 OFFCURVE",
"-55 -240 OFFCURVE",
"-28 -219 CURVE",
"-13 -147 OFFCURVE",
"-58 -79 OFFCURVE",
"-139 -60 CURVE",
"-165 -82 OFFCURVE",
"-182 -91 OFFCURVE",
"-222 -110 CURVE",
"-308 -68 OFFCURVE",
"-364 48 OFFCURVE",
"-415 48 CURVE SMOOTH",
"-493 48 OFFCURVE",
"-579 -56 OFFCURVE",
"-579 -105 CURVE SMOOTH",
"-579 -147 OFFCURVE",
"-494 -238 OFFCURVE",
"-431 -238 CURVE SMOOTH",
"-364 -238 OFFCURVE",
"-295 -177 OFFCURVE",
"-257 -109 CURVE"
);
}
);
width = 0;
},
{
associatedMasterId = "AF1B7CCB-9C31-456C-8386-1D362D80AEF6";
background = {
paths = (
{
closed = 1;
nodes = (
"-300 -78 LINE",
"-350 -115 OFFCURVE",
"-404 -139 OFFCURVE",
"-456 -147 CURVE",
"-444 -99 OFFCURVE",
"-417 -68 OFFCURVE",
"-385 -37 CURVE",
"-314 -115 OFFCURVE",
"-206 -256 OFFCURVE",
"-132 -256 CURVE SMOOTH",
"-89 -256 OFFCURVE",
"-55 -240 OFFCURVE",
"-28 -219 CURVE",
"-13 -147 OFFCURVE",
"-58 -79 OFFCURVE",
"-139 -60 CURVE",
"-165 -82 OFFCURVE",
"-182 -91 OFFCURVE",
"-222 -110 CURVE",
"-308 -68 OFFCURVE",
"-364 48 OFFCURVE",
"-415 48 CURVE SMOOTH",
"-493 48 OFFCURVE",
"-579 -56 OFFCURVE",
"-579 -105 CURVE SMOOTH",
"-579 -147 OFFCURVE",
"-494 -238 OFFCURVE",
"-431 -238 CURVE SMOOTH",
"-364 -238 OFFCURVE",
"-295 -177 OFFCURVE",
"-257 -109 CURVE"
);
}
);
};
layerId = "AC202CF5-20E5-4943-BC49-F04A831C5DF1";
name = "Bold Italic Oct 2 15, 20:13";
paths = (
{
closed = 1;
nodes = (
"-300 -78 LINE",
"-350 -115 OFFCURVE",
"-404 -139 OFFCURVE",
"-456 -147 CURVE",
"-444 -99 OFFCURVE",
"-417 -68 OFFCURVE",
"-385 -37 CURVE",
"-314 -115 OFFCURVE",
"-206 -256 OFFCURVE",
"-132 -256 CURVE SMOOTH",
"-89 -256 OFFCURVE",
"-55 -240 OFFCURVE",
"-28 -219 CURVE",
"-13 -147 OFFCURVE",
"-58 -79 OFFCURVE",
"-139 -60 CURVE",
"-165 -82 OFFCURVE",
"-182 -91 OFFCURVE",
"-222 -110 CURVE",
"-308 -68 OFFCURVE",
"-364 48 OFFCURVE",
"-415 48 CURVE SMOOTH",
"-493 48 OFFCURVE",
"-579 -56 OFFCURVE",
"-579 -105 CURVE SMOOTH",
"-579 -147 OFFCURVE",
"-494 -238 OFFCURVE",
"-431 -238 CURVE SMOOTH",
"-364 -238 OFFCURVE",
"-295 -177 OFFCURVE",
"-257 -109 CURVE"
);
}
);
width = 0;
},
{
anchors = (
{
name = _blwm;
position = "{-366, 0}";
}
);
background = {
paths = (
{
closed = 1;
nodes = (
"-318 -101 LINE",
"-359 -138 OFFCURVE",
"-397 -163 OFFCURVE",
"-461 -177 CURVE",
"-451 -137 OFFCURVE",
"-428 -101 OFFCURVE",
"-390 -73 CURVE",
"-297 -180 OFFCURVE",
"-206 -260 OFFCURVE",
"-151 -260 CURVE SMOOTH",
"-108 -260 OFFCURVE",
"-62 -241 OFFCURVE",
"-27 -218 CURVE",
"2 -137 OFFCURVE",
"-37 -76 OFFCURVE",
"-124 -68 CURVE",
"-153 -96 OFFCURVE",
"-178 -115 OFFCURVE",
"-218 -141 CURVE",
"-305 -79 OFFCURVE",
"-350 21 OFFCURVE",
"-393 21 CURVE SMOOTH",
"-459 21 OFFCURVE",
"-561 -86 OFFCURVE",
"-561 -143 CURVE SMOOTH",
"-561 -188 OFFCURVE",
"-483 -260 OFFCURVE",
"-431 -260 CURVE SMOOTH",
"-375 -260 OFFCURVE",
"-315 -211 OFFCURVE",
"-274 -147 CURVE"
);
}
);
};
layerId = "AF1B7CCB-9C31-456C-8386-1D362D80AEF6";
name = "Bold Italic";
paths = (
{
closed = 1;
nodes = (
"-316 -101 LINE",
"-357 -138 OFFCURVE",
"-395 -163 OFFCURVE",
"-459 -177 CURVE",
"-449 -137 OFFCURVE",
"-426 -101 OFFCURVE",
"-388 -73 CURVE",
"-311 -161 OFFCURVE",
"-217 -260 OFFCURVE",
"-142 -260 CURVE SMOOTH",
"-108 -260 OFFCURVE",
"-70 -243 OFFCURVE",
"-38 -221 CURVE",
"-19 -142 OFFCURVE",
"-52 -88 OFFCURVE",
"-134 -79 CURVE",
"-157 -102 OFFCURVE",
"-183 -123 OFFCURVE",
"-221 -143 CURVE",
"-289 -89 OFFCURVE",
"-348 21 OFFCURVE",
"-399 21 CURVE SMOOTH",
"-457 21 OFFCURVE",
"-559 -86 OFFCURVE",
"-559 -143 CURVE SMOOTH",
"-559 -188 OFFCURVE",
"-481 -260 OFFCURVE",
"-429 -260 CURVE SMOOTH",
"-373 -260 OFFCURVE",
"-313 -211 OFFCURVE",
"-272 -147 CURVE"
);
}
);
width = 0;
},
{
associatedMasterId = "AF1B7CCB-9C31-456C-8386-1D362D80AEF6";
background = {
paths = (
{
closed = 1;
nodes = (
"-300 -78 LINE",
"-350 -115 OFFCURVE",
"-404 -139 OFFCURVE",
"-456 -147 CURVE",
"-444 -99 OFFCURVE",
"-417 -68 OFFCURVE",
"-385 -37 CURVE",
"-314 -115 OFFCURVE",
"-206 -256 OFFCURVE",
"-132 -256 CURVE SMOOTH",
"-89 -256 OFFCURVE",
"-55 -240 OFFCURVE",
"-28 -219 CURVE",
"-13 -147 OFFCURVE",
"-58 -79 OFFCURVE",
"-139 -60 CURVE",
"-165 -82 OFFCURVE",
"-182 -91 OFFCURVE",
"-222 -110 CURVE",
"-308 -68 OFFCURVE",
"-364 48 OFFCURVE",
"-415 48 CURVE SMOOTH",
"-493 48 OFFCURVE",
"-579 -56 OFFCURVE",
"-579 -105 CURVE SMOOTH",
"-579 -147 OFFCURVE",
"-494 -238 OFFCURVE",
"-431 -238 CURVE SMOOTH",
"-364 -238 OFFCURVE",
"-295 -177 OFFCURVE",
"-257 -109 CURVE"
);
}
);
};
layerId = "C7AD41FA-172D-4D33-AB3B-7477509EF001";
name = "original. Oct 2 15, 20:14";
paths = (
{
closed = 1;
nodes = (
"-300 -78 LINE",
"-350 -115 OFFCURVE",
"-404 -139 OFFCURVE",
"-456 -147 CURVE",
"-444 -99 OFFCURVE",
"-417 -68 OFFCURVE",
"-385 -37 CURVE",
"-314 -115 OFFCURVE",
"-206 -256 OFFCURVE",
"-132 -256 CURVE SMOOTH",
"-89 -256 OFFCURVE",
"-55 -240 OFFCURVE",
"-28 -219 CURVE",
"-13 -147 OFFCURVE",
"-58 -79 OFFCURVE",
"-139 -60 CURVE",
"-165 -82 OFFCURVE",
"-182 -91 OFFCURVE",
"-222 -110 CURVE",
"-308 -68 OFFCURVE",
"-364 48 OFFCURVE",
"-415 48 CURVE SMOOTH",
"-493 48 OFFCURVE",
"-579 -56 OFFCURVE",
"-579 -105 CURVE SMOOTH",
"-579 -147 OFFCURVE",
"-494 -238 OFFCURVE",
"-431 -238 CURVE SMOOTH",
"-364 -238 OFFCURVE",
"-295 -177 OFFCURVE",
"-257 -109 CURVE"
);
}
);
width = 0;
}
);
unicode = 0AC2;
},
{
color = 3;
glyphname = gjmvR;
lastChange = "2015-10-04 14:05:22 +0000";
layers = (
{
anchors = (
{
name = _blwm.u;
position = "{-275, -52}";
}
);
background = {
paths = (
{
closed = 1;
nodes = (
"-228 -219 OFFCURVE",
"-292 -256 OFFCURVE",
"-381 -256 CURVE",
"-346 -211 OFFCURVE",
"-285 -169 OFFCURVE",
"-240 -152 CURVE",
"-214 -94 OFFCURVE",
"-243 -33 OFFCURVE",
"-327 -38 CURVE",
"-444 -103 OFFCURVE",
"-495 -182 OFFCURVE",
"-495 -225 CURVE SMOOTH",
"-495 -271 OFFCURVE",
"-426 -357 OFFCURVE",
"-359 -367 CURVE SMOOTH",
"-270 -381 OFFCURVE",
"-94 -326 OFFCURVE",
"-94 -247 CURVE SMOOTH",
"-94 -213 OFFCURVE",
"-119 -183 OFFCURVE",
"-168 -170 CURVE"
);
}
);
};
guideLines = (
{
position = "{-552, -38}";
}
);
layerId = "AF1B7CCB-9C31-456C-8386-1D362D80AEF6";
name = "Bold Italic";
paths = (
{
closed = 1;
nodes = (
"-257 -210 OFFCURVE",
"-301 -225 OFFCURVE",
"-380 -236 CURVE",
"-333 -173 OFFCURVE",
"-300 -147 OFFCURVE",
"-238 -120 CURVE",
"-232 -68 OFFCURVE",
"-258 -38 OFFCURVE",
"-315 -38 CURVE",
"-407 -95 OFFCURVE",
"-465 -158 OFFCURVE",
"-470 -203 CURVE SMOOTH",
"-474 -239 OFFCURVE",
"-438 -294 OFFCURVE",
"-398 -310 CURVE SMOOTH",
"-321 -340 OFFCURVE",
"-144 -294 OFFCURVE",
"-144 -237 CURVE SMOOTH",
"-144 -208 OFFCURVE",
"-160 -183 OFFCURVE",
"-198 -173 CURVE"
);
}
);
width = 0;
},
{
associatedMasterId = "AF1B7CCB-9C31-456C-8386-1D362D80AEF6";
background = {
paths = (
{
closed = 1;
nodes = (
"-228 -221 OFFCURVE",
"-292 -259 OFFCURVE",
"-390 -267 CURVE",
"-346 -203 OFFCURVE",
"-294 -166 OFFCURVE",
"-234 -152 CURVE",
"-214 -81 OFFCURVE",
"-243 -40 OFFCURVE",
"-327 -38 CURVE",
"-444 -103 OFFCURVE",
"-495 -182 OFFCURVE",
"-495 -225 CURVE SMOOTH",
"-495 -271 OFFCURVE",
"-416 -368 OFFCURVE",
"-341 -368 CURVE SMOOTH",
"-201 -368 OFFCURVE",
"-94 -319 OFFCURVE",
"-94 -256 CURVE SMOOTH",
"-94 -214 OFFCURVE",
"-117 -187 OFFCURVE",
"-171 -167 CURVE"
);
}
);
};
guideLines = (
{
position = "{-552, -38}";
}
);
layerId = "E9AF7BC9-24FE-4EF6-805C-4C587A7A5B7E";
name = "Bold Italic Oct 4 15, 00:43";
paths = (
{
closed = 1;
nodes = (
"-228 -219 OFFCURVE",
"-292 -256 OFFCURVE",
"-381 -256 CURVE",
"-346 -211 OFFCURVE",
"-285 -169 OFFCURVE",
"-240 -152 CURVE",
"-214 -94 OFFCURVE",
"-243 -33 OFFCURVE",
"-327 -38 CURVE",
"-444 -103 OFFCURVE",
"-495 -182 OFFCURVE",
"-495 -225 CURVE SMOOTH",
"-495 -271 OFFCURVE",
"-426 -357 OFFCURVE",
"-359 -367 CURVE SMOOTH",
"-270 -381 OFFCURVE",
"-94 -326 OFFCURVE",
"-94 -247 CURVE SMOOTH",
"-94 -213 OFFCURVE",
"-119 -183 OFFCURVE",
"-168 -170 CURVE"
);
}
);
width = 0;
}
);
unicode = 0AC3;
},
{
color = 3;
glyphname = gjmE;
lastChange = "2015-10-03 19:27:08 +0000";
layers = (
{
associatedMasterId = "AF1B7CCB-9C31-456C-8386-1D362D80AEF6";
background = {
paths = (
{
closed = 1;
nodes = (
"-602 855 OFFCURVE",
"-549 796 OFFCURVE",
"-475 782 CURVE",
"-439 810 OFFCURVE",
"-407 832 OFFCURVE",
"-368 850 CURVE",
"-313 811 OFFCURVE",
"-284 731 OFFCURVE",
"-280 650 CURVE",
"-271 641 OFFCURVE",
"-245 639 OFFCURVE",
"-228 642 CURVE",
"-210 818 OFFCURVE",
"-306 1001 OFFCURVE",
"-433 1001 CURVE SMOOTH",
"-496 1001 OFFCURVE",
"-550 974 OFFCURVE",
"-597 926 CURVE"
);
}
);
};
layerId = "B77B136A-9E21-479E-9EE6-EB18821D9C75";
name = "Bold Italic Jul 24 15, 22:36";
paths = (
{
closed = 1;
nodes = (
"-602 855 OFFCURVE",
"-549 796 OFFCURVE",
"-475 782 CURVE",
"-439 810 OFFCURVE",
"-407 832 OFFCURVE",
"-368 850 CURVE",
"-313 811 OFFCURVE",
"-284 731 OFFCURVE",
"-280 650 CURVE",
"-271 641 OFFCURVE",
"-245 639 OFFCURVE",
"-228 642 CURVE",
"-210 818 OFFCURVE",
"-306 1001 OFFCURVE",
"-433 1001 CURVE SMOOTH",
"-496 1001 OFFCURVE",
"-550 974 OFFCURVE",
"-597 926 CURVE"
);
}
);
width = 0;
},
{
anchors = (
{
name = _abvm;
position = "{-271, 642}";
}
);
background = {
paths = (
{
closed = 1;
nodes = (
"-602 855 OFFCURVE",
"-549 796 OFFCURVE",
"-475 782 CURVE",
"-439 810 OFFCURVE",
"-407 832 OFFCURVE",
"-368 850 CURVE",
"-313 811 OFFCURVE",
"-284 731 OFFCURVE",
"-280 650 CURVE",
"-271 641 OFFCURVE",
"-245 639 OFFCURVE",
"-228 642 CURVE",
"-210 818 OFFCURVE",
"-306 1001 OFFCURVE",
"-433 1001 CURVE SMOOTH",
"-496 1001 OFFCURVE",
"-550 974 OFFCURVE",
"-597 926 CURVE"
);
}
);
};
layerId = "AF1B7CCB-9C31-456C-8386-1D362D80AEF6";
name = "Bold Italic";
paths = (
{
closed = 1;
nodes = (
"-542 794 OFFCURVE",
"-500 732 OFFCURVE",
"-415 726 CURVE",
"-381 761 OFFCURVE",
"-352 781 OFFCURVE",
"-315 803 CURVE",
"-262 760 OFFCURVE",
"-205 706 OFFCURVE",
"-166 642 CURVE",
"-148 642 OFFCURVE",
"-122 650 OFFCURVE",
"-118 669 CURVE",
"-173 766 OFFCURVE",
"-311 940 OFFCURVE",
"-385 940 CURVE SMOOTH",
"-436 940 OFFCURVE",
"-490 913 OFFCURVE",
"-537 865 CURVE"
);
}
);
width = 0;
}
);
unicode = 0AC7;
},
{
color = 3;
glyphname = gjmAI;
lastChange = "2015-10-03 19:27:14 +0000";
layers = (
{
anchors = (
{
name = _abvm;
position = "{-271, 642}";
}
);
background = {
components = (
{
name = gjmE;
}
);
paths = (
{
closed = 1;
nodes = (
"-453 992 OFFCURVE",
"-498 973 OFFCURVE",
"-537 941 CURVE",
"-549 879 OFFCURVE",
"-507 823 OFFCURVE",
"-431 827 CURVE",
"-408 854 OFFCURVE",
"-377 878 OFFCURVE",
"-344 893 CURVE",
"-277 850 OFFCURVE",
"-203 788 OFFCURVE",
"-169 700 CURVE",
"-224 758 OFFCURVE",
"-299 826 OFFCURVE",
"-339 826 CURVE SMOOTH",
"-385 826 OFFCURVE",
"-421 803 OFFCURVE",
"-448 774 CURVE",
"-449 711 OFFCURVE",
"-414 674 OFFCURVE",
"-339 673 CURVE",
"-321 700 OFFCURVE",
"-304 720 OFFCURVE",
"-287 729 CURVE",
"-250 715 OFFCURVE",
"-209 671 OFFCURVE",
"-183 642 CURVE",
"-159 638 OFFCURVE",
"-130 650 OFFCURVE",
"-119 664 CURVE",
"-169 879 OFFCURVE",
"-321 992 OFFCURVE",
"-411 992 CURVE SMOOTH"
);
}
);
};
guideLines = (
{
position = "{-664, 1023}";
}
);
layerId = "AF1B7CCB-9C31-456C-8386-1D362D80AEF6";
name = "Bold Italic";
paths = (
{
closed = 1;
nodes = (
"-195 728 LINE",
"-239 771 OFFCURVE",
"-303 826 OFFCURVE",
"-344 826 CURVE SMOOTH",
"-385 826 OFFCURVE",
"-421 803 OFFCURVE",
"-448 774 CURVE",
"-449 711 OFFCURVE",
"-414 674 OFFCURVE",
"-339 673 CURVE",
"-321 700 OFFCURVE",
"-304 720 OFFCURVE",
"-287 733 CURVE",
"-246 713 OFFCURVE",
"-197 676 OFFCURVE",
"-167 643 CURVE",
"-147 641 OFFCURVE",
"-121 654 OFFCURVE",
"-115 670 CURVE",
"-169 879 OFFCURVE",
"-334 1001 OFFCURVE",
"-403 1001 CURVE SMOOTH",
"-453 1001 OFFCURVE",
"-493 983 OFFCURVE",
"-533 951 CURVE",
"-544 894 OFFCURVE",
"-497 834 OFFCURVE",
"-432 830 CURVE",
"-398 861 OFFCURVE",
"-378 879 OFFCURVE",
"-343 897 CURVE",
"-282 860 OFFCURVE",
"-221 798 OFFCURVE",
"-184 737 CURVE"
);
}
);
width = 0;
},
{
associatedMasterId = "AF1B7CCB-9C31-456C-8386-1D362D80AEF6";
background = {
paths = (
{
closed = 1;
nodes = (
"-413 1023 OFFCURVE",
"-444 1013 OFFCURVE",
"-480 996 CURVE",
"-502 929 OFFCURVE",
"-468 865 OFFCURVE",
"-392 849 CURVE",
"-364 862 OFFCURVE",
"-328 879 OFFCURVE",
"-309 886 CURVE",
"-274 833 OFFCURVE",
"-265 771 OFFCURVE",
"-267 702 CURVE",
"-313 763 OFFCURVE",
"-381 813 OFFCURVE",
"-436 813 CURVE SMOOTH",
"-474 813 OFFCURVE",
"-516 793 OFFCURVE",
"-548 757 CURVE",
"-546 695 OFFCURVE",
"-505 650 OFFCURVE",
"-421 654 CURVE",
"-408 678 OFFCURVE",
"-389 703 OFFCURVE",
"-373 714 CURVE",
"-341 702 OFFCURVE",
"-310 676 OFFCURVE",
"-281 643 CURVE",
"-258 636 OFFCURVE",
"-227 644 OFFCURVE",
"-216 657 CURVE",
"-192 885 OFFCURVE",
"-255 1023 OFFCURVE",
"-374 1023 CURVE SMOOTH"
);
}
);
};
guideLines = (
{
position = "{-664, 1023}";
}
);
layerId = "A71524B2-C3A3-4442-AC90-80D9C25F8A82";
name = "Bold Italic Jul 28 15, 17:58";
paths = (
{
closed = 1;
nodes = (
"-393 1023 OFFCURVE",
"-424 1013 OFFCURVE",
"-461 996 CURVE",
"-486 929 OFFCURVE",
"-457 867 OFFCURVE",
"-382 851 CURVE",
"-353 864 OFFCURVE",
"-316 881 OFFCURVE",
"-297 888 CURVE",
"-264 835 OFFCURVE",
"-256 771 OFFCURVE",
"-261 702 CURVE",
"-304 763 OFFCURVE",
"-358 824 OFFCURVE",
"-409 824 CURVE SMOOTH",
"-447 824 OFFCURVE",
"-471 818 OFFCURVE",
"-512 793 CURVE",
"-525 732 OFFCURVE",
"-496 684 OFFCURVE",
"-418 671 CURVE",
"-394 691 OFFCURVE",
"-378 707 OFFCURVE",
"-360 714 CURVE",
"-330 696 OFFCURVE",
"-305 676 OFFCURVE",
"-278 643 CURVE",
"-255 636 OFFCURVE",
"-224 644 OFFCURVE",
"-212 657 CURVE",
"-183 885 OFFCURVE",
"-255 1023 OFFCURVE",
"-349 1023 CURVE SMOOTH"
);
}
);
width = 0;
}
);
unicode = 0AC8;
},
{
glyphname = gjmO;
lastChange = "2015-10-03 17:46:42 +0000";
layers = (
{
layerId = "AF1B7CCB-9C31-456C-8386-1D362D80AEF6";
name = "Bold Italic";
paths = (
{
closed = 1;
nodes = (
"194 0 OFFCURVE",
"348 76 OFFCURVE",
"348 130 CURVE SMOOTH",
"348 183 OFFCURVE",
"313 222 OFFCURVE",
"248 241 CURVE",
"217 208 OFFCURVE",
"190 188 OFFCURVE",
"147 160 CURVE",
"192 285 OFFCURVE",
"271 450 OFFCURVE",
"271 493 CURVE SMOOTH",
"271 520 OFFCURVE",
"159 593 OFFCURVE",
"120 593 CURVE SMOOTH",
"101 593 OFFCURVE",
"82 501 OFFCURVE",
"56 389 CURVE SMOOTH",
"27 266 OFFCURVE",
"-13 140 OFFCURVE",
"-13 125 CURVE SMOOTH",
"-13 83 OFFCURVE",
"108 0 OFFCURVE",
"142 0 CURVE SMOOTH"
);
},
{
closed = 1;
nodes = (
"-151 794 OFFCURVE",
"-109 732 OFFCURVE",
"-24 726 CURVE",
"10 761 OFFCURVE",
"39 781 OFFCURVE",
"76 803 CURVE",
"129 760 OFFCURVE",
"186 706 OFFCURVE",
"225 642 CURVE",
"243 642 OFFCURVE",
"269 650 OFFCURVE",
"273 669 CURVE",
"218 766 OFFCURVE",
"80 940 OFFCURVE",
"6 940 CURVE SMOOTH",
"-45 940 OFFCURVE",
"-99 913 OFFCURVE",
"-146 865 CURVE"
);
}
);
width = 391;
}
);
unicode = 0ACB;
},
{
glyphname = gjmAU;
lastChange = "2015-10-03 17:46:43 +0000";
layers = (
{
background = {
paths = (
{
closed = 1;
nodes = (
"194 0 OFFCURVE",
"348 76 OFFCURVE",
"348 130 CURVE SMOOTH",
"348 183 OFFCURVE",
"313 222 OFFCURVE",
"248 241 CURVE",
"217 208 OFFCURVE",
"190 188 OFFCURVE",
"147 160 CURVE",
"192 285 OFFCURVE",
"271 450 OFFCURVE",
"271 493 CURVE SMOOTH",
"271 520 OFFCURVE",
"159 593 OFFCURVE",
"120 593 CURVE SMOOTH",
"101 593 OFFCURVE",
"82 501 OFFCURVE",
"56 389 CURVE SMOOTH",
"27 266 OFFCURVE",
"-13 140 OFFCURVE",
"-13 125 CURVE SMOOTH",
"-13 83 OFFCURVE",
"108 0 OFFCURVE",
"142 0 CURVE SMOOTH"
);
},
{
closed = 1;
nodes = (
"196 728 LINE",
"152 771 OFFCURVE",
"88 826 OFFCURVE",
"47 826 CURVE SMOOTH",
"6 826 OFFCURVE",
"-30 803 OFFCURVE",
"-57 774 CURVE",
"-58 711 OFFCURVE",
"-23 674 OFFCURVE",
"52 673 CURVE",
"70 700 OFFCURVE",
"87 720 OFFCURVE",
"104 733 CURVE",
"145 713 OFFCURVE",
"194 676 OFFCURVE",
"224 643 CURVE",
"244 641 OFFCURVE",
"270 654 OFFCURVE",
"276 670 CURVE",
"222 879 OFFCURVE",
"57 1001 OFFCURVE",
"-12 1001 CURVE SMOOTH",
"-62 1001 OFFCURVE",
"-102 983 OFFCURVE",
"-142 951 CURVE",
"-153 894 OFFCURVE",
"-106 834 OFFCURVE",
"-41 830 CURVE",
"-7 861 OFFCURVE",
"13 879 OFFCURVE",
"48 897 CURVE",
"109 860 OFFCURVE",
"170 798 OFFCURVE",
"207 737 CURVE"
);
}
);
};
layerId = "AF1B7CCB-9C31-456C-8386-1D362D80AEF6";
name = "Bold Italic";
paths = (
{
closed = 1;
nodes = (
"194 0 OFFCURVE",
"348 76 OFFCURVE",
"348 130 CURVE SMOOTH",
"348 183 OFFCURVE",
"313 222 OFFCURVE",
"248 241 CURVE",
"217 208 OFFCURVE",
"190 188 OFFCURVE",
"147 160 CURVE",
"192 285 OFFCURVE",
"271 450 OFFCURVE",
"271 493 CURVE SMOOTH",
"271 520 OFFCURVE",
"159 593 OFFCURVE",
"120 593 CURVE SMOOTH",
"101 593 OFFCURVE",
"82 501 OFFCURVE",
"56 389 CURVE SMOOTH",
"27 266 OFFCURVE",
"-13 140 OFFCURVE",
"-13 125 CURVE SMOOTH",
"-13 83 OFFCURVE",
"108 0 OFFCURVE",
"142 0 CURVE SMOOTH"
);
},
{
closed = 1;
nodes = (
"196 728 LINE",
"152 771 OFFCURVE",
"88 826 OFFCURVE",
"47 826 CURVE SMOOTH",
"6 826 OFFCURVE",
"-30 803 OFFCURVE",
"-57 774 CURVE",
"-58 711 OFFCURVE",
"-23 674 OFFCURVE",
"52 673 CURVE",
"70 700 OFFCURVE",
"87 720 OFFCURVE",
"104 733 CURVE",
"145 713 OFFCURVE",
"194 676 OFFCURVE",
"224 643 CURVE",
"244 641 OFFCURVE",
"270 654 OFFCURVE",
"276 670 CURVE",
"222 879 OFFCURVE",
"57 1001 OFFCURVE",
"-12 1001 CURVE SMOOTH",
"-62 1001 OFFCURVE",
"-102 983 OFFCURVE",
"-142 951 CURVE",
"-153 894 OFFCURVE",
"-106 834 OFFCURVE",
"-41 830 CURVE",
"-7 861 OFFCURVE",
"13 879 OFFCURVE",
"48 897 CURVE",
"109 860 OFFCURVE",
"170 798 OFFCURVE",
"207 737 CURVE"
);
}
);
width = 391;
}
);
unicode = 0ACC;
},
{
color = 3;
glyphname = gjmEcandra;
lastChange = "2015-10-04 11:39:22 +0000";
layers = (
{
anchors = (
{
name = _abvm;
position = "{-278, 619}";
}
);
background = {
paths = (
{
closed = 1;
nodes = (
"-92 619 OFFCURVE",
"-33 628 OFFCURVE",
"21 662 CURVE",
"35 728 OFFCURVE",
"17 783 OFFCURVE",
"-51 808 CURVE",
"-110 777 OFFCURVE",
"-158 762 OFFCURVE",
"-217 753 CURVE",
"-250 791 OFFCURVE",
"-278 841 OFFCURVE",
"-303 903 CURVE",
"-338 916 OFFCURVE",
"-371 906 OFFCURVE",
"-399 873 CURVE",
"-368 769 OFFCURVE",
"-250 619 OFFCURVE",
"-169 619 CURVE SMOOTH"
);
}
);
};
layerId = "AF1B7CCB-9C31-456C-8386-1D362D80AEF6";
name = "Bold Italic";
paths = (
{
closed = 1;
nodes = (
"-118 619 OFFCURVE",
"-47 632 OFFCURVE",
"1 662 CURVE",
"15 728 OFFCURVE",
"-3 783 OFFCURVE",
"-71 808 CURVE",
"-129 775 OFFCURVE",
"-180 758 OFFCURVE",
"-240 748 CURVE",
"-272 799 OFFCURVE",
"-291 840 OFFCURVE",
"-314 898 CURVE",
"-348 912 OFFCURVE",
"-381 903 OFFCURVE",
"-406 871 CURVE",
"-381 766 OFFCURVE",
"-270 619 OFFCURVE",
"-195 619 CURVE SMOOTH"
);
}
);
width = 0;
},
{
associatedMasterId = "AF1B7CCB-9C31-456C-8386-1D362D80AEF6";
background = {
paths = (
{
closed = 1;
nodes = (
"-123 619 OFFCURVE",
"-58 633 OFFCURVE",
"-10 665 CURVE",
"8 735 OFFCURVE",
"-11 795 OFFCURVE",
"-84 816 CURVE",
"-143 785 OFFCURVE",
"-200 771 OFFCURVE",
"-271 771 CURVE",
"-305 813 OFFCURVE",
"-319 844 OFFCURVE",
"-334 896 CURVE",
"-369 916 OFFCURVE",
"-404 913 OFFCURVE",
"-441 886 CURVE",
"-410 767 OFFCURVE",
"-284 619 OFFCURVE",
"-192 619 CURVE SMOOTH"
);
}
);
};
layerId = "06014D9F-C659-4CD5-AC1C-D7CAD234F9CA";
name = "Bold Italic Jul 28 15, 19:10";
paths = (
{
closed = 1;
nodes = (
"-115 619 OFFCURVE",
"-58 633 OFFCURVE",
"-10 665 CURVE",
"8 735 OFFCURVE",
"-11 795 OFFCURVE",
"-84 816 CURVE",
"-143 785 OFFCURVE",
"-200 767 OFFCURVE",
"-259 758 CURVE",
"-292 796 OFFCURVE",
"-318 841 OFFCURVE",
"-343 903 CURVE",
"-378 916 OFFCURVE",
"-411 906 OFFCURVE",
"-439 879 CURVE",
"-398 747 OFFCURVE",
"-280 619 OFFCURVE",
"-206 619 CURVE SMOOTH"
);
}
);
width = 0;
}
);
unicode = 0AC5;
},
{
glyphname = gjmOcandra;
lastChange = "2015-10-03 17:46:43 +0000";
layers = (
{
background = {
paths = (
{
closed = 1;
nodes = (
"194 0 OFFCURVE",
"348 76 OFFCURVE",
"348 130 CURVE SMOOTH",
"348 183 OFFCURVE",
"313 222 OFFCURVE",
"248 241 CURVE",
"217 208 OFFCURVE",
"190 188 OFFCURVE",
"147 160 CURVE",
"192 285 OFFCURVE",
"271 450 OFFCURVE",
"271 493 CURVE SMOOTH",
"271 520 OFFCURVE",
"159 593 OFFCURVE",
"120 593 CURVE SMOOTH",
"101 593 OFFCURVE",
"82 501 OFFCURVE",
"56 389 CURVE SMOOTH",
"27 266 OFFCURVE",
"-13 140 OFFCURVE",
"-13 125 CURVE SMOOTH",
"-13 83 OFFCURVE",
"108 0 OFFCURVE",
"142 0 CURVE SMOOTH"
);
},
{
closed = 1;
nodes = (
"273 619 OFFCURVE",
"344 632 OFFCURVE",
"392 662 CURVE",
"406 728 OFFCURVE",
"388 783 OFFCURVE",
"320 808 CURVE",
"262 775 OFFCURVE",
"211 758 OFFCURVE",
"151 748 CURVE",
"119 799 OFFCURVE",
"100 840 OFFCURVE",
"77 898 CURVE",
"43 912 OFFCURVE",
"10 903 OFFCURVE",
"-15 871 CURVE",
"10 766 OFFCURVE",
"121 619 OFFCURVE",
"196 619 CURVE SMOOTH"
);
}
);
};
layerId = "AF1B7CCB-9C31-456C-8386-1D362D80AEF6";
name = "Bold Italic";
paths = (
{
closed = 1;
nodes = (
"194 0 OFFCURVE",
"348 76 OFFCURVE",
"348 130 CURVE SMOOTH",
"348 183 OFFCURVE",
"313 222 OFFCURVE",
"248 241 CURVE",
"217 208 OFFCURVE",
"190 188 OFFCURVE",
"147 160 CURVE",
"192 285 OFFCURVE",
"271 450 OFFCURVE",
"271 493 CURVE SMOOTH",
"271 520 OFFCURVE",
"159 593 OFFCURVE",
"120 593 CURVE SMOOTH",
"101 593 OFFCURVE",
"82 501 OFFCURVE",
"56 389 CURVE SMOOTH",
"27 266 OFFCURVE",
"-13 140 OFFCURVE",
"-13 125 CURVE SMOOTH",
"-13 83 OFFCURVE",
"108 0 OFFCURVE",
"142 0 CURVE SMOOTH"
);
},
{
closed = 1;
nodes = (
"273 619 OFFCURVE",
"344 632 OFFCURVE",
"392 662 CURVE",
"406 728 OFFCURVE",
"388 783 OFFCURVE",
"320 808 CURVE",
"262 775 OFFCURVE",
"211 758 OFFCURVE",
"151 748 CURVE",
"119 799 OFFCURVE",
"100 840 OFFCURVE",
"77 898 CURVE",
"43 912 OFFCURVE",
"10 903 OFFCURVE",
"-15 871 CURVE",
"10 766 OFFCURVE",
"121 619 OFFCURVE",
"196 619 CURVE SMOOTH"
);
}
);
width = 391;
}
);
unicode = 0AC9;
},
{
color = 3;
glyphname = gjKA;
lastChange = "2015-10-04 13:46:24 +0000";
layers = (
{
anchors = (
{
name = abvm;
position = "{255, 642}";
},
{
name = blwm;
position = "{194, -52}";
},
{
name = blwm.u;
position = "{264, -52}";
}
);
background = {
paths = (
{
closed = 1;
nodes = (
"353 0 OFFCURVE",
"515 101 OFFCURVE",
"515 195 CURVE SMOOTH",
"515 233 OFFCURVE",
"449 277 OFFCURVE",
"372 291 CURVE",
"291 275 LINE",
"319 251 OFFCURVE",
"331 234 OFFCURVE",
"331 216 CURVE SMOOTH",
"331 169 OFFCURVE",
"271 114 OFFCURVE",
"194 93 CURVE",
"197 120 OFFCURVE",
"200 132 OFFCURVE",
"206 150 CURVE",
"164 187 OFFCURVE",
"95 196 OFFCURVE",
"22 175 CURVE",
"11 156 OFFCURVE",
"6 138 OFFCURVE",
"6 117 CURVE SMOOTH",
"6 72 OFFCURVE",
"110 0 OFFCURVE",
"215 0 CURVE SMOOTH"
);
},
{
closed = 1;
nodes = (
"269 261 OFFCURVE",
"362 282 OFFCURVE",
"540 315 CURVE",
"567 363 OFFCURVE",
"549 414 OFFCURVE",
"503 439 CURVE",
"367 393 OFFCURVE",
"206 355 OFFCURVE",
"39 340 CURVE",
"3 299 OFFCURVE",
"22 233 OFFCURVE",
"69 217 CURVE"
);
},
{
closed = 1;
nodes = (
"290 368 LINE",
"275 378 OFFCURVE",
"267 388 OFFCURVE",
"267 400 CURVE SMOOTH",
"267 443 OFFCURVE",
"344 472 OFFCURVE",
"463 484 CURVE",
"495 537 OFFCURVE",
"469 606 OFFCURVE",
"407 621 CURVE",
"227 608 OFFCURVE",
"84 523 OFFCURVE",
"84 457 CURVE SMOOTH",
"84 420 OFFCURVE",
"154 369 OFFCURVE",
"228 350 CURVE"
);
}
);
};
layerId = "AF1B7CCB-9C31-456C-8386-1D362D80AEF6";
name = "Bold Italic";
paths = (
{
closed = 1;
nodes = (
"353 0 OFFCURVE",
"515 101 OFFCURVE",
"515 195 CURVE SMOOTH",
"515 233 OFFCURVE",
"449 277 OFFCURVE",
"372 291 CURVE",
"291 275 LINE",
"319 251 OFFCURVE",
"331 234 OFFCURVE",
"331 216 CURVE SMOOTH",
"331 170 OFFCURVE",
"277 120 OFFCURVE",
"199 97 CURVE",
"189 117 OFFCURVE",
"176 149 OFFCURVE",
"168 187 CURVE",
"67 199 OFFCURVE",
"7 162 OFFCURVE",
"7 113 CURVE SMOOTH",
"7 57 OFFCURVE",
"126 0 OFFCURVE",
"215 0 CURVE SMOOTH"
);
},
{
closed = 1;
nodes = (
"269 261 OFFCURVE",
"362 282 OFFCURVE",
"540 315 CURVE",
"567 363 OFFCURVE",
"549 414 OFFCURVE",
"503 439 CURVE",
"367 393 OFFCURVE",
"206 355 OFFCURVE",
"39 340 CURVE",
"3 299 OFFCURVE",
"22 233 OFFCURVE",
"69 217 CURVE"
);
},
{
closed = 1;
nodes = (
"290 368 LINE",
"275 378 OFFCURVE",
"267 388 OFFCURVE",
"267 400 CURVE SMOOTH",
"267 443 OFFCURVE",
"344 472 OFFCURVE",
"463 484 CURVE",
"495 537 OFFCURVE",
"469 606 OFFCURVE",
"407 621 CURVE",
"227 608 OFFCURVE",
"84 523 OFFCURVE",
"84 457 CURVE SMOOTH",
"84 420 OFFCURVE",
"154 369 OFFCURVE",
"228 350 CURVE"
);
}
);
width = 593;
},
{
associatedMasterId = "AF1B7CCB-9C31-456C-8386-1D362D80AEF6";
background = {
paths = (
{
closed = 1;
nodes = (
"240 351 LINE",
"149 376 OFFCURVE",
"92 429 OFFCURVE",
"92 463 CURVE SMOOTH",
"92 533 OFFCURVE",
"244 613 OFFCURVE",
"426 620 CURVE",
"488 600 OFFCURVE",
"517 537 OFFCURVE",
"481 481 CURVE",
"345 463 OFFCURVE",
"287 432 OFFCURVE",
"287 406 CURVE SMOOTH",
"287 391 OFFCURVE",
"294 380 OFFCURVE",
"309 370 CURVE"
);
},
{
closed = 1;
nodes = (
"400 284 OFFCURVE",
"305 263 OFFCURVE",
"93 210 CURVE",
"45 224 OFFCURVE",
"14 294 OFFCURVE",
"51 344 CURVE",
"203 362 OFFCURVE",
"390 405 OFFCURVE",
"521 458 CURVE",
"572 433 OFFCURVE",
"593 376 OFFCURVE",
"571 324 CURVE"
);
},
{
closed = 1;
nodes = (
"336 239 OFFCURVE",
"320 259 OFFCURVE",
"303 267 CURVE",
"384 289 LINE",
"465 272 OFFCURVE",
"529 228 OFFCURVE",
"529 193 CURVE SMOOTH",
"529 99 OFFCURVE",
"362 0 OFFCURVE",
"202 0 CURVE SMOOTH",
"102 0 OFFCURVE",
"-2 78 OFFCURVE",
"-3 123 CURVE SMOOTH",
"-3 139 OFFCURVE",
"3 163 OFFCURVE",
"16 182 CURVE",
"93 204 OFFCURVE",
"167 193 OFFCURVE",
"208 153 CURVE",
"202 136 OFFCURVE",
"198 124 OFFCURVE",
"195 101 CURVE",
"262 115 OFFCURVE",
"336 175 OFFCURVE",
"336 217 CURVE SMOOTH"
);
}
);
};
layerId = "281602D0-7A71-4E7B-9FB4-7C2BEA252D14";
name = "Bold Italic Jul 28 15, 15:34";
paths = (
{
closed = 1;
nodes = (
"368 0 OFFCURVE",
"532 103 OFFCURVE",
"532 197 CURVE SMOOTH",
"532 234 OFFCURVE",
"467 281 OFFCURVE",
"385 295 CURVE",
"298 271 LINE",
"326 254 OFFCURVE",
"339 237 OFFCURVE",
"339 218 CURVE SMOOTH",
"339 175 OFFCURVE",
"287 122 OFFCURVE",
"212 99 CURVE",
"215 124 OFFCURVE",
"218 135 OFFCURVE",
"224 152 CURVE",
"181 191 OFFCURVE",
"107 201 OFFCURVE",
"31 178 CURVE",
"19 158 OFFCURVE",
"14 141 OFFCURVE",
"14 119 CURVE SMOOTH",
"14 74 OFFCURVE",
"121 0 OFFCURVE",
"228 0 CURVE SMOOTH"
);
},
{
closed = 1;
nodes = (
"298 264 OFFCURVE",
"393 283 OFFCURVE",
"564 321 CURVE",
"585 373 OFFCURVE",
"564 423 OFFCURVE",
"513 448 CURVE",
"382 397 OFFCURVE",
"200 357 OFFCURVE",
"48 340 CURVE",
"11 291 OFFCURVE",
"39 227 OFFCURVE",
"87 213 CURVE"
);
},
{
closed = 1;
nodes = (
"307 367 LINE",
"290 378 OFFCURVE",
"283 389 OFFCURVE",
"283 400 CURVE SMOOTH",
"283 436 OFFCURVE",
"367 467 OFFCURVE",
"478 482 CURVE",
"512 539 OFFCURVE",
"480 602 OFFCURVE",
"419 621 CURVE",
"241 611 OFFCURVE",
"89 524 OFFCURVE",
"89 458 CURVE SMOOTH",
"89 419 OFFCURVE",
"163 367 OFFCURVE",
"239 348 CURVE"
);
}
);
width = 607;
},
{
associatedMasterId = "AF1B7CCB-9C31-456C-8386-1D362D80AEF6";
background = {
paths = (
{
closed = 1;
nodes = (
"368 0 OFFCURVE",
"532 103 OFFCURVE",
"532 197 CURVE SMOOTH",
"532 234 OFFCURVE",
"467 281 OFFCURVE",
"385 295 CURVE",
"298 271 LINE",
"326 254 OFFCURVE",
"339 237 OFFCURVE",
"339 218 CURVE SMOOTH",
"339 175 OFFCURVE",
"287 122 OFFCURVE",
"212 99 CURVE",
"215 124 OFFCURVE",
"218 135 OFFCURVE",
"224 152 CURVE",
"181 191 OFFCURVE",
"107 201 OFFCURVE",
"31 178 CURVE",
"19 158 OFFCURVE",
"14 141 OFFCURVE",
"14 119 CURVE SMOOTH",
"14 74 OFFCURVE",
"121 0 OFFCURVE",
"228 0 CURVE SMOOTH"
);
},
{
closed = 1;
nodes = (
"298 264 OFFCURVE",
"393 283 OFFCURVE",
"564 321 CURVE",
"585 373 OFFCURVE",
"564 423 OFFCURVE",
"513 448 CURVE",
"382 397 OFFCURVE",
"200 357 OFFCURVE",
"48 340 CURVE",
"11 291 OFFCURVE",
"39 227 OFFCURVE",
"87 213 CURVE"
);
},
{
closed = 1;
nodes = (
"307 367 LINE",
"290 378 OFFCURVE",
"283 389 OFFCURVE",
"283 400 CURVE SMOOTH",
"283 436 OFFCURVE",
"367 467 OFFCURVE",
"478 482 CURVE",
"512 539 OFFCURVE",
"480 602 OFFCURVE",
"419 621 CURVE",
"241 611 OFFCURVE",
"89 524 OFFCURVE",
"89 458 CURVE SMOOTH",
"89 419 OFFCURVE",
"163 367 OFFCURVE",
"239 348 CURVE"
);
}
);
};
layerId = "A42EC7F1-375B-457A-94C5-E0F20BC42287";
name = "Bold Italic Jul 28 15, 16:14";
paths = (
{
closed = 1;
nodes = (
"367 0 OFFCURVE",
"529 101 OFFCURVE",
"529 195 CURVE SMOOTH",
"529 233 OFFCURVE",
"463 277 OFFCURVE",
"386 291 CURVE",
"305 275 LINE",
"333 251 OFFCURVE",
"345 234 OFFCURVE",
"345 216 CURVE SMOOTH",
"345 169 OFFCURVE",
"285 114 OFFCURVE",
"208 93 CURVE",
"211 120 OFFCURVE",
"214 132 OFFCURVE",
"220 150 CURVE",
"178 187 OFFCURVE",
"109 196 OFFCURVE",
"36 175 CURVE",
"25 156 OFFCURVE",
"20 138 OFFCURVE",
"20 117 CURVE SMOOTH",
"20 72 OFFCURVE",
"124 0 OFFCURVE",
"229 0 CURVE SMOOTH"
);
},
{
closed = 1;
nodes = (
"283 261 OFFCURVE",
"376 282 OFFCURVE",
"554 315 CURVE",
"581 363 OFFCURVE",
"563 414 OFFCURVE",
"517 439 CURVE",
"381 393 OFFCURVE",
"220 355 OFFCURVE",
"53 340 CURVE",
"17 299 OFFCURVE",
"36 233 OFFCURVE",
"83 217 CURVE"
);
},
{
closed = 1;
nodes = (
"304 368 LINE",
"289 378 OFFCURVE",
"281 388 OFFCURVE",
"281 400 CURVE SMOOTH",
"281 443 OFFCURVE",
"358 472 OFFCURVE",
"477 484 CURVE",
"509 537 OFFCURVE",
"483 606 OFFCURVE",
"421 621 CURVE",
"241 608 OFFCURVE",
"98 523 OFFCURVE",
"98 457 CURVE SMOOTH",
"98 420 OFFCURVE",
"168 369 OFFCURVE",
"242 350 CURVE"
);
}
);
width = 607;
}
);
leftKerningGroup = gjKA;
rightKerningGroup = gjKA;
unicode = 0A95;
},
{
glyphname = gjKHA;
lastChange = "2015-10-02 09:59:37 +0000";
layers = (
{
associatedMasterId = "AF1B7CCB-9C31-456C-8386-1D362D80AEF6";
background = {
paths = (
{
closed = 0;
nodes = (
"630 358 LINE",
"593 416 OFFCURVE",
"557 459 OFFCURVE",
"515 459 CURVE SMOOTH",
"488 459 OFFCURVE",
"424 399 OFFCURVE",
"424 373 CURVE SMOOTH",
"424 356 OFFCURVE",
"444 334 OFFCURVE",
"462 322 CURVE",
"435 294 OFFCURVE",
"379 272 OFFCURVE",
"344 261 CURVE",
"335 270 LINE",
"380 328 OFFCURVE",
"455 477 OFFCURVE",
"454 504 CURVE SMOOTH",
"453 534 OFFCURVE",
"339 616 OFFCURVE",
"263 616 CURVE SMOOTH",
"187 616 OFFCURVE",
"-12 533 OFFCURVE",
"-12 471 CURVE SMOOTH",
"-12 426 OFFCURVE",
"59 345 OFFCURVE",
"129 329 CURVE",
"182 367 OFFCURVE",
"227 403 OFFCURVE",
"269 432 CURVE",
"280 416 LINE",
"178 341 LINE",
"167 305 OFFCURVE",
"155 242 OFFCURVE",
"155 218 CURVE SMOOTH",
"155 181 OFFCURVE",
"281 97 OFFCURVE",
"328 97 CURVE SMOOTH",
"379 97 OFFCURVE",
"487 201 OFFCURVE",
"530 251 CURVE",
"552 226 OFFCURVE",
"581 208 OFFCURVE",
"593 208 CURVE SMOOTH",
"611 208 OFFCURVE",
"644 228 OFFCURVE",
"680 261 CURVE",
"693 252 LINE",
"655 201 OFFCURVE",
"615 146 OFFCURVE",
"615 123 CURVE SMOOTH",
"615 84 OFFCURVE",
"732 -1 OFFCURVE",
"776 -1 CURVE SMOOTH",
"858 -1 OFFCURVE",
"1048 132 OFFCURVE",
"1048 191 CURVE SMOOTH",
"1048 247 OFFCURVE",
"987 296 OFFCURVE",
"911 316 CURVE",
"881 276 OFFCURVE",
"840 235 OFFCURVE",
"798 210 CURVE",
"836 308 OFFCURVE",
"931 451 OFFCURVE",
"931 515 CURVE SMOOTH",
"931 537 OFFCURVE",
"814 583 OFFCURVE",
"747 583 CURVE SMOOTH",
"708 583 OFFCURVE",
"697 399 OFFCURVE",
"535 291 CURVE",
"526 300 LINE"
);
}
);
};
layerId = "1E2C12CA-5535-49E2-9D35-078858B3216A";
name = "bolder faster meaner";
paths = (
{
closed = 1;
nodes = (
"575 416 OFFCURVE",
"546 462 OFFCURVE",
"508 457 CURVE SMOOTH",
"481 452 OFFCURVE",
"421 391 OFFCURVE",
"423 365 CURVE SMOOTH",
"424 348 OFFCURVE",
"439 335 OFFCURVE",
"458 324 CURVE",
"424 294 OFFCURVE",
"379 272 OFFCURVE",
"344 261 CURVE",
"335 270 LINE",
"380 328 OFFCURVE",
"455 477 OFFCURVE",
"454 504 CURVE SMOOTH",
"453 534 OFFCURVE",
"339 616 OFFCURVE",
"263 616 CURVE SMOOTH",
"187 616 OFFCURVE",
"-12 533 OFFCURVE",
"-12 471 CURVE SMOOTH",
"-12 426 OFFCURVE",
"59 345 OFFCURVE",
"129 329 CURVE",
"182 367 OFFCURVE",
"227 403 OFFCURVE",
"269 432 CURVE",
"280 416 LINE",
"178 341 LINE",
"167 305 OFFCURVE",
"155 242 OFFCURVE",
"155 218 CURVE SMOOTH",
"155 181 OFFCURVE",
"281 97 OFFCURVE",
"328 97 CURVE SMOOTH",
"379 97 OFFCURVE",
"490 206 OFFCURVE",
"529 256 CURVE",
"553 232 OFFCURVE",
"583 216 OFFCURVE",
"595 217 CURVE SMOOTH",
"613 218 OFFCURVE",
"644 228 OFFCURVE",
"680 261 CURVE",
"693 252 LINE",
"655 201 OFFCURVE",
"615 146 OFFCURVE",
"615 123 CURVE SMOOTH",
"615 84 OFFCURVE",
"732 -1 OFFCURVE",
"776 -1 CURVE SMOOTH",
"858 -1 OFFCURVE",
"1048 132 OFFCURVE",
"1048 191 CURVE SMOOTH",
"1048 247 OFFCURVE",
"987 296 OFFCURVE",
"911 316 CURVE",
"881 276 OFFCURVE",
"840 235 OFFCURVE",
"798 210 CURVE",
"836 308 OFFCURVE",
"931 451 OFFCURVE",
"931 515 CURVE SMOOTH",
"931 537 OFFCURVE",
"814 583 OFFCURVE",
"747 583 CURVE SMOOTH",
"715 583 OFFCURVE",
"688 432 OFFCURVE",
"616 370 CURVE"
);
}
);
width = 1028;
},
{
background = {
paths = (
{
closed = 1;
nodes = (
"547 593 OFFCURVE",
"536 471 OFFCURVE",
"456 381 CURVE",
"409 419 OFFCURVE",
"372 463 OFFCURVE",
"346 463 CURVE SMOOTH",
"311 463 OFFCURVE",
"264 394 OFFCURVE",
"264 373 CURVE SMOOTH",
"264 362 OFFCURVE",
"279 342 OFFCURVE",
"306 321 CURVE",
"277 290 OFFCURVE",
"240 273 OFFCURVE",
"200 257 CURVE",
"171 278 LINE",
"218 351 OFFCURVE",
"285 477 OFFCURVE",
"285 521 CURVE SMOOTH",
"285 557 OFFCURVE",
"177 619 OFFCURVE",
"140 619 CURVE SMOOTH",
"61 619 OFFCURVE",
"-53 564 OFFCURVE",
"-53 512 CURVE SMOOTH",
"-53 470 OFFCURVE",
"-8 415 OFFCURVE",
"41 398 CURVE",
"80 426 OFFCURVE",
"106 449 OFFCURVE",
"137 470 CURVE",
"159 444 LINE",
"55 351 LINE",
"40 313 OFFCURVE",
"19 232 OFFCURVE",
"19 201 CURVE SMOOTH",
"19 175 OFFCURVE",
"122 104 OFFCURVE",
"166 104 CURVE SMOOTH",
"205 104 OFFCURVE",
"328 188 OFFCURVE",
"380 266 CURVE",
"400 249 OFFCURVE",
"420 236 OFFCURVE",
"435 236 CURVE SMOOTH",
"453 236 OFFCURVE",
"486 260 OFFCURVE",
"506 285 CURVE",
"528 270 LINE",
"501 230 OFFCURVE",
"437 147 OFFCURVE",
"437 124 CURVE SMOOTH",
"437 85 OFFCURVE",
"556 0 OFFCURVE",
"592 0 CURVE SMOOTH",
"644 0 OFFCURVE",
"798 76 OFFCURVE",
"798 130 CURVE SMOOTH",
"798 183 OFFCURVE",
"763 222 OFFCURVE",
"698 241 CURVE",
"667 208 OFFCURVE",
"640 188 OFFCURVE",
"597 160 CURVE",
"642 285 OFFCURVE",
"721 450 OFFCURVE",
"721 493 CURVE SMOOTH",
"721 520 OFFCURVE",
"609 593 OFFCURVE",
"570 593 CURVE SMOOTH"
);
}
);
};
layerId = "AF1B7CCB-9C31-456C-8386-1D362D80AEF6";
name = "Bold Italic";
paths = (
{
closed = 1;
nodes = (
"555 593 OFFCURVE",
"544 471 OFFCURVE",
"464 381 CURVE",
"417 419 OFFCURVE",
"380 463 OFFCURVE",
"354 463 CURVE SMOOTH",
"319 463 OFFCURVE",
"272 394 OFFCURVE",
"272 373 CURVE SMOOTH",
"272 362 OFFCURVE",
"287 342 OFFCURVE",
"314 321 CURVE",
"285 290 OFFCURVE",
"247 268 OFFCURVE",
"207 252 CURVE",
"171 278 LINE",
"218 351 OFFCURVE",
"285 477 OFFCURVE",
"285 521 CURVE SMOOTH",
"285 557 OFFCURVE",
"177 619 OFFCURVE",
"140 619 CURVE SMOOTH",
"61 619 OFFCURVE",
"-53 564 OFFCURVE",
"-53 512 CURVE SMOOTH",
"-53 470 OFFCURVE",
"-8 415 OFFCURVE",
"41 398 CURVE",
"80 426 OFFCURVE",
"106 449 OFFCURVE",
"137 470 CURVE",
"159 444 LINE",
"55 351 LINE",
"40 313 OFFCURVE",
"19 232 OFFCURVE",
"19 201 CURVE SMOOTH",
"19 175 OFFCURVE",
"129 99 OFFCURVE",
"173 99 CURVE SMOOTH",
"212 99 OFFCURVE",
"336 188 OFFCURVE",
"388 266 CURVE",
"408 249 OFFCURVE",
"428 236 OFFCURVE",
"443 236 CURVE SMOOTH",
"461 236 OFFCURVE",
"494 260 OFFCURVE",
"514 285 CURVE",
"536 270 LINE",
"509 230 OFFCURVE",
"445 147 OFFCURVE",
"445 124 CURVE SMOOTH",
"445 85 OFFCURVE",
"564 0 OFFCURVE",
"600 0 CURVE SMOOTH",
"652 0 OFFCURVE",
"806 76 OFFCURVE",
"806 130 CURVE SMOOTH",
"806 183 OFFCURVE",
"771 222 OFFCURVE",
"706 241 CURVE",
"675 208 OFFCURVE",
"648 188 OFFCURVE",
"605 160 CURVE",
"650 285 OFFCURVE",
"729 450 OFFCURVE",
"729 493 CURVE SMOOTH",
"729 520 OFFCURVE",
"617 593 OFFCURVE",
"578 593 CURVE SMOOTH"
);
}
);
width = 849;
},
{
associatedMasterId = "AF1B7CCB-9C31-456C-8386-1D362D80AEF6";
background = {
paths = (
{
closed = 1;
nodes = (
"562 414 OFFCURVE",
"516 478 OFFCURVE",
"478 473 CURVE SMOOTH",
"451 468 OFFCURVE",
"391 408 OFFCURVE",
"391 382 CURVE SMOOTH",
"391 365 OFFCURVE",
"402 347 OFFCURVE",
"421 330 CURVE",
"399 308 OFFCURVE",
"349 276 OFFCURVE",
"313 257 CURVE",
"282 277 LINE",
"327 347 OFFCURVE",
"389 458 OFFCURVE",
"389 510 CURVE SMOOTH",
"389 540 OFFCURVE",
"278 616 OFFCURVE",
"202 616 CURVE SMOOTH",
"126 616 OFFCURVE",
"-56 544 OFFCURVE",
"-56 482 CURVE SMOOTH",
"-56 437 OFFCURVE",
"6 368 OFFCURVE",
"65 350 CURVE",
"114 388 OFFCURVE",
"142 413 OFFCURVE",
"188 442 CURVE",
"204 426 LINE",
"117 341 LINE",
"106 305 OFFCURVE",
"100 261 OFFCURVE",
"100 228 CURVE SMOOTH",
"100 187 OFFCURVE",
"236 97 OFFCURVE",
"322 97 CURVE SMOOTH",
"373 97 OFFCURVE",
"464 206 OFFCURVE",
"503 256 CURVE",
"527 232 OFFCURVE",
"555 217 OFFCURVE",
"569 217 CURVE SMOOTH",
"587 217 OFFCURVE",
"618 228 OFFCURVE",
"657 261 CURVE",
"675 247 LINE",
"637 196 OFFCURVE",
"597 141 OFFCURVE",
"597 118 CURVE SMOOTH",
"597 79 OFFCURVE",
"709 -1 OFFCURVE",
"753 -1 CURVE SMOOTH",
"835 -1 OFFCURVE",
"1025 132 OFFCURVE",
"1025 191 CURVE SMOOTH",
"1025 247 OFFCURVE",
"959 298 OFFCURVE",
"904 312 CURVE",
"866 267 OFFCURVE",
"829 222 OFFCURVE",
"787 197 CURVE",
"829 322 OFFCURVE",
"908 457 OFFCURVE",
"908 515 CURVE SMOOTH",
"908 542 OFFCURVE",
"782 583 OFFCURVE",
"728 583 CURVE SMOOTH",
"694 583 OFFCURVE",
"680 470 OFFCURVE",
"598 369 CURVE"
);
}
);
};
layerId = "DE4BF2F3-45F9-48E1-8424-192218BC9FAF";
name = "Bold Italic Jul 9 15, 14:52";
paths = (
{
closed = 1;
nodes = (
"557 414 OFFCURVE",
"512 473 OFFCURVE",
"473 473 CURVE SMOOTH",
"446 473 OFFCURVE",
"386 408 OFFCURVE",
"386 382 CURVE SMOOTH",
"386 365 OFFCURVE",
"397 347 OFFCURVE",
"421 324 CURVE",
"393 304 OFFCURVE",
"349 271 OFFCURVE",
"313 257 CURVE",
"282 277 LINE",
"327 347 OFFCURVE",
"389 458 OFFCURVE",
"389 510 CURVE SMOOTH",
"389 540 OFFCURVE",
"278 616 OFFCURVE",
"202 616 CURVE SMOOTH",
"126 616 OFFCURVE",
"-56 544 OFFCURVE",
"-56 482 CURVE SMOOTH",
"-56 437 OFFCURVE",
"6 368 OFFCURVE",
"65 350 CURVE",
"114 388 OFFCURVE",
"142 413 OFFCURVE",
"188 442 CURVE",
"204 426 LINE",
"117 341 LINE",
"106 305 OFFCURVE",
"100 261 OFFCURVE",
"100 228 CURVE SMOOTH",
"100 187 OFFCURVE",
"236 97 OFFCURVE",
"315 97 CURVE SMOOTH",
"378 97 OFFCURVE",
"472 206 OFFCURVE",
"509 247 CURVE",
"524 236 OFFCURVE",
"551 217 OFFCURVE",
"564 217 CURVE SMOOTH",
"582 217 OFFCURVE",
"613 228 OFFCURVE",
"652 261 CURVE",
"670 247 LINE",
"632 196 OFFCURVE",
"592 141 OFFCURVE",
"592 118 CURVE SMOOTH",
"592 79 OFFCURVE",
"704 -1 OFFCURVE",
"748 -1 CURVE SMOOTH",
"830 -1 OFFCURVE",
"1020 132 OFFCURVE",
"1020 191 CURVE SMOOTH",
"1020 247 OFFCURVE",
"954 298 OFFCURVE",
"899 312 CURVE",
"861 267 OFFCURVE",
"824 222 OFFCURVE",
"782 197 CURVE",
"824 322 OFFCURVE",
"903 457 OFFCURVE",
"903 515 CURVE SMOOTH",
"903 542 OFFCURVE",
"777 583 OFFCURVE",
"723 583 CURVE SMOOTH",
"689 583 OFFCURVE",
"675 470 OFFCURVE",
"593 369 CURVE"
);
}
);
width = 1050;
},
{
associatedMasterId = "AF1B7CCB-9C31-456C-8386-1D362D80AEF6";
background = {
paths = (
{
closed = 1;
nodes = (
"536 414 OFFCURVE",
"491 473 OFFCURVE",
"452 473 CURVE SMOOTH",
"425 473 OFFCURVE",
"365 408 OFFCURVE",
"365 382 CURVE SMOOTH",
"365 365 OFFCURVE",
"376 347 OFFCURVE",
"400 324 CURVE",
"372 304 OFFCURVE",
"328 271 OFFCURVE",
"292 257 CURVE",
"261 277 LINE",
"306 347 OFFCURVE",
"368 458 OFFCURVE",
"368 510 CURVE SMOOTH",
"368 540 OFFCURVE",
"257 616 OFFCURVE",
"181 616 CURVE SMOOTH",
"105 616 OFFCURVE",
"-77 544 OFFCURVE",
"-77 482 CURVE SMOOTH",
"-77 437 OFFCURVE",
"-15 368 OFFCURVE",
"44 350 CURVE",
"93 388 OFFCURVE",
"121 413 OFFCURVE",
"167 442 CURVE",
"183 426 LINE",
"96 341 LINE",
"85 305 OFFCURVE",
"79 261 OFFCURVE",
"79 228 CURVE SMOOTH",
"79 187 OFFCURVE",
"215 97 OFFCURVE",
"294 97 CURVE SMOOTH",
"357 97 OFFCURVE",
"451 206 OFFCURVE",
"488 247 CURVE",
"503 236 OFFCURVE",
"530 217 OFFCURVE",
"543 217 CURVE SMOOTH",
"561 217 OFFCURVE",
"592 228 OFFCURVE",
"631 261 CURVE",
"649 247 LINE",
"611 196 OFFCURVE",
"571 141 OFFCURVE",
"571 118 CURVE SMOOTH",
"571 79 OFFCURVE",
"683 -1 OFFCURVE",
"727 -1 CURVE SMOOTH",
"809 -1 OFFCURVE",
"999 132 OFFCURVE",
"999 191 CURVE SMOOTH",
"999 247 OFFCURVE",
"933 298 OFFCURVE",
"878 312 CURVE",
"840 267 OFFCURVE",
"803 222 OFFCURVE",
"761 197 CURVE",
"803 322 OFFCURVE",
"882 457 OFFCURVE",
"882 515 CURVE SMOOTH",
"882 542 OFFCURVE",
"756 583 OFFCURVE",
"702 583 CURVE SMOOTH",
"668 583 OFFCURVE",
"654 470 OFFCURVE",
"572 369 CURVE"
);
}
);
};
layerId = "833E410C-F1DF-4475-8B95-0F5662C596D2";
name = "Bold Italic Jul 10 15, 20:40";
paths = (
{
closed = 1;
nodes = (
"305 346 OFFCURVE",
"368 464 OFFCURVE",
"368 510 CURVE SMOOTH",
"368 540 OFFCURVE",
"257 616 OFFCURVE",
"181 616 CURVE SMOOTH",
"111 616 OFFCURVE",
"-47 559 OFFCURVE",
"-47 491 CURVE SMOOTH",
"-47 450 OFFCURVE",
"-12 402 OFFCURVE",
"59 374 CURVE",
"95 404 OFFCURVE",
"140 441 OFFCURVE",
"171 462 CURVE",
"194 438 LINE",
"96 341 LINE",
"85 305 OFFCURVE",
"79 261 OFFCURVE",
"79 228 CURVE SMOOTH",
"79 187 OFFCURVE",
"215 97 OFFCURVE",
"294 97 CURVE SMOOTH",
"357 97 OFFCURVE",
"451 206 OFFCURVE",
"488 247 CURVE",
"503 236 OFFCURVE",
"530 217 OFFCURVE",
"543 217 CURVE SMOOTH",
"561 217 OFFCURVE",
"592 228 OFFCURVE",
"631 261 CURVE",
"649 247 LINE",
"611 196 OFFCURVE",
"571 141 OFFCURVE",
"571 118 CURVE SMOOTH",
"571 79 OFFCURVE",
"683 -1 OFFCURVE",
"727 -1 CURVE SMOOTH",
"809 -1 OFFCURVE",
"999 132 OFFCURVE",
"999 191 CURVE SMOOTH",
"999 247 OFFCURVE",
"933 298 OFFCURVE",
"878 312 CURVE",
"840 267 OFFCURVE",
"803 222 OFFCURVE",
"761 197 CURVE",
"803 322 OFFCURVE",
"882 457 OFFCURVE",
"882 515 CURVE SMOOTH",
"882 542 OFFCURVE",
"756 583 OFFCURVE",
"702 583 CURVE SMOOTH",
"668 583 OFFCURVE",
"654 470 OFFCURVE",
"572 369 CURVE",
"536 414 OFFCURVE",
"491 473 OFFCURVE",
"452 473 CURVE SMOOTH",
"425 473 OFFCURVE",
"365 408 OFFCURVE",
"365 382 CURVE SMOOTH",
"365 365 OFFCURVE",
"376 347 OFFCURVE",
"400 324 CURVE",
"372 304 OFFCURVE",
"328 271 OFFCURVE",
"292 257 CURVE",
"261 277 LINE"
);
}
);
width = 1029;
},
{
associatedMasterId = "AF1B7CCB-9C31-456C-8386-1D362D80AEF6";
background = {
paths = (
{
closed = 1;
nodes = (
"549 82 OFFCURVE",
"657 0 OFFCURVE",
"707 0 CURVE SMOOTH",
"768 0 OFFCURVE",
"977 122 OFFCURVE",
"977 193 CURVE SMOOTH",
"977 237 OFFCURVE",
"925 293 OFFCURVE",
"856 312 CURVE",
"813 257 OFFCURVE",
"775 208 OFFCURVE",
"718 175 CURVE",
"766 315 OFFCURVE",
"840 471 OFFCURVE",
"840 522 CURVE SMOOTH",
"840 551 OFFCURVE",
"723 583 OFFCURVE",
"678 583 CURVE SMOOTH",
"645 583 OFFCURVE",
"646 474 OFFCURVE",
"550 369 CURVE",
"514 414 OFFCURVE",
"469 473 OFFCURVE",
"430 473 CURVE SMOOTH",
"403 473 OFFCURVE",
"343 408 OFFCURVE",
"343 382 CURVE SMOOTH",
"343 365 OFFCURVE",
"354 347 OFFCURVE",
"378 324 CURVE",
"350 304 OFFCURVE",
"306 271 OFFCURVE",
"270 257 CURVE",
"236 284 LINE",
"281 353 OFFCURVE",
"335 473 OFFCURVE",
"335 520 CURVE SMOOTH",
"335 551 OFFCURVE",
"220 619 OFFCURVE",
"169 619 CURVE SMOOTH",
"101 619 OFFCURVE",
"-35 566 OFFCURVE",
"-35 499 CURVE SMOOTH",
"-35 455 OFFCURVE",
"2 411 OFFCURVE",
"71 384 CURVE",
"107 414 OFFCURVE",
"141 441 OFFCURVE",
"172 462 CURVE",
"195 438 LINE",
"97 341 LINE",
"86 308 OFFCURVE",
"75 261 OFFCURVE",
"75 217 CURVE SMOOTH",
"75 163 OFFCURVE",
"214 97 OFFCURVE",
"272 97 CURVE SMOOTH",
"335 97 OFFCURVE",
"429 206 OFFCURVE",
"466 247 CURVE",
"481 236 OFFCURVE",
"508 217 OFFCURVE",
"521 217 CURVE SMOOTH",
"539 217 OFFCURVE",
"570 228 OFFCURVE",
"609 261 CURVE",
"627 247 LINE",
"589 196 OFFCURVE",
"549 141 OFFCURVE",
"549 118 CURVE SMOOTH"
);
}
);
};
layerId = "723EFAF0-F58C-4208-B3F0-B38FBEC97CA2";
name = equal;
paths = (
{
closed = 1;
nodes = (
"514 414 OFFCURVE",
"469 473 OFFCURVE",
"430 473 CURVE SMOOTH",
"403 473 OFFCURVE",
"343 408 OFFCURVE",
"343 382 CURVE SMOOTH",
"343 365 OFFCURVE",
"354 347 OFFCURVE",
"378 324 CURVE",
"350 304 OFFCURVE",
"306 271 OFFCURVE",
"270 257 CURVE",
"236 284 LINE",
"281 353 OFFCURVE",
"335 473 OFFCURVE",
"335 520 CURVE SMOOTH",
"335 551 OFFCURVE",
"220 619 OFFCURVE",
"169 619 CURVE SMOOTH",
"101 619 OFFCURVE",
"-35 566 OFFCURVE",
"-35 499 CURVE SMOOTH",
"-35 455 OFFCURVE",
"2 411 OFFCURVE",
"71 384 CURVE",
"107 414 OFFCURVE",
"141 441 OFFCURVE",
"172 462 CURVE",
"195 438 LINE",
"97 341 LINE",
"86 308 OFFCURVE",
"75 261 OFFCURVE",
"75 217 CURVE SMOOTH",
"75 163 OFFCURVE",
"214 97 OFFCURVE",
"272 97 CURVE SMOOTH",
"335 97 OFFCURVE",
"429 206 OFFCURVE",
"466 247 CURVE",
"481 236 OFFCURVE",
"508 217 OFFCURVE",
"521 217 CURVE SMOOTH",
"539 217 OFFCURVE",
"570 228 OFFCURVE",
"609 261 CURVE",
"627 247 LINE",
"589 196 OFFCURVE",
"549 141 OFFCURVE",
"549 118 CURVE SMOOTH",
"549 82 OFFCURVE",
"657 0 OFFCURVE",
"707 0 CURVE SMOOTH",
"768 0 OFFCURVE",
"977 122 OFFCURVE",
"977 193 CURVE SMOOTH",
"977 237 OFFCURVE",
"925 293 OFFCURVE",
"856 312 CURVE",
"813 257 OFFCURVE",
"774 208 OFFCURVE",
"717 175 CURVE",
"765 315 OFFCURVE",
"845 480 OFFCURVE",
"845 541 CURVE SMOOTH",
"845 570 OFFCURVE",
"728 602 OFFCURVE",
"689 602 CURVE SMOOTH",
"652 602 OFFCURVE",
"638 456 OFFCURVE",
"550 369 CURVE"
);
}
);
width = 1034;
}
);
leftKerningGroup = gjPA;
leftMetricsKey = gjPA;
rightMetricsKey = gjmAA;
unicode = 0A96;
},
{
glyphname = gjGA;
lastChange = "2015-10-15 16:47:49 +0000";
layers = (
{
background = {
components = (
{
name = gjmAA;
transform = "{1, 0, 0, 1, 370, 0}";
}
);
paths = (
{
closed = 1;
nodes = (
"45 164 OFFCURVE",
"-44 241 OFFCURVE",
"-44 295 CURVE SMOOTH",
"-44 315 OFFCURVE",
"-38 331 OFFCURVE",
"-26 348 CURVE",
"40 366 OFFCURVE",
"88 355 OFFCURVE",
"123 316 CURVE",
"117 302 OFFCURVE",
"113 291 OFFCURVE",
"109 271 CURVE",
"193 316 OFFCURVE",
"236 395 OFFCURVE",
"237 483 CURVE",
"174 467 OFFCURVE",
"137 449 OFFCURVE",
"86 416 CURVE",
"40 447 OFFCURVE",
"26 479 OFFCURVE",
"26 508 CURVE SMOOTH",
"26 570 OFFCURVE",
"120 619 OFFCURVE",
"203 619 CURVE SMOOTH",
"286 619 OFFCURVE",
"378 521 OFFCURVE",
"378 464 CURVE SMOOTH",
"378 312 OFFCURVE",
"254 164 OFFCURVE",
"113 164 CURVE SMOOTH"
);
}
);
};
layerId = "AF1B7CCB-9C31-456C-8386-1D362D80AEF6";
name = "Bold Italic";
paths = (
{
closed = 1;
nodes = (
"35 164 OFFCURVE",
"-40 234 OFFCURVE",
"-40 278 CURVE SMOOTH",
"-40 320 OFFCURVE",
"-3 358 OFFCURVE",
"80 352 CURVE",
"87 319 OFFCURVE",
"100 292 OFFCURVE",
"109 271 CURVE",
"193 316 OFFCURVE",
"236 395 OFFCURVE",
"237 483 CURVE",
"174 467 OFFCURVE",
"137 449 OFFCURVE",
"86 416 CURVE",
"40 447 OFFCURVE",
"26 479 OFFCURVE",
"26 508 CURVE SMOOTH",
"26 570 OFFCURVE",
"120 619 OFFCURVE",
"203 619 CURVE SMOOTH",
"286 619 OFFCURVE",
"378 521 OFFCURVE",
"378 464 CURVE SMOOTH",
"378 312 OFFCURVE",
"254 164 OFFCURVE",
"113 164 CURVE SMOOTH"
);
},
{
closed = 1;
nodes = (
"564 0 OFFCURVE",
"718 76 OFFCURVE",
"718 130 CURVE SMOOTH",
"718 183 OFFCURVE",
"683 222 OFFCURVE",
"618 241 CURVE",
"587 208 OFFCURVE",
"560 188 OFFCURVE",
"517 160 CURVE",
"562 285 OFFCURVE",
"641 450 OFFCURVE",
"641 493 CURVE SMOOTH",
"641 520 OFFCURVE",
"529 593 OFFCURVE",
"490 593 CURVE SMOOTH",
"471 593 OFFCURVE",
"452 501 OFFCURVE",
"426 389 CURVE SMOOTH",
"397 266 OFFCURVE",
"357 140 OFFCURVE",
"357 125 CURVE SMOOTH",
"357 83 OFFCURVE",
"478 0 OFFCURVE",
"512 0 CURVE SMOOTH"
);
}
);
width = 761;
},
{
associatedMasterId = "AF1B7CCB-9C31-456C-8386-1D362D80AEF6";
background = {
paths = (
{
closed = 1;
nodes = (
"573 583 OFFCURVE",
"480 152 OFFCURVE",
"480 123 CURVE SMOOTH",
"480 84 OFFCURVE",
"597 -1 OFFCURVE",
"641 -1 CURVE SMOOTH",
"723 -1 OFFCURVE",
"913 132 OFFCURVE",
"913 191 CURVE SMOOTH",
"913 247 OFFCURVE",
"847 298 OFFCURVE",
"792 312 CURVE",
"754 267 OFFCURVE",
"717 222 OFFCURVE",
"675 197 CURVE",
"717 322 OFFCURVE",
"796 457 OFFCURVE",
"796 515 CURVE SMOOTH",
"796 542 OFFCURVE",
"670 583 OFFCURVE",
"609 583 CURVE SMOOTH"
);
},
{
closed = 1;
nodes = (
"211 281 OFFCURVE",
"309 363 OFFCURVE",
"318 452 CURVE",
"265 444 OFFCURVE",
"209 416 OFFCURVE",
"163 386 CURVE",
"106 411 OFFCURVE",
"66 460 OFFCURVE",
"66 510 CURVE SMOOTH",
"66 576 OFFCURVE",
"204 619 OFFCURVE",
"302 619 CURVE SMOOTH",
"376 619 OFFCURVE",
"484 545 OFFCURVE",
"484 457 CURVE SMOOTH",
"484 296 OFFCURVE",
"369 126 OFFCURVE",
"197 126 CURVE SMOOTH",
"118 126 OFFCURVE",
"30 190 OFFCURVE",
"-15 265 CURVE",
"36 321 LINE",
"82 292 OFFCURVE",
"124 281 OFFCURVE",
"153 281 CURVE SMOOTH"
);
}
);
};
layerId = "B3A3B0B3-AA34-42F5-B7E4-6F411EFB700E";
name = "top heavy";
paths = (
{
closed = 1;
nodes = (
"573 583 OFFCURVE",
"480 152 OFFCURVE",
"480 123 CURVE SMOOTH",
"480 84 OFFCURVE",
"597 -1 OFFCURVE",
"641 -1 CURVE SMOOTH",
"723 -1 OFFCURVE",
"913 132 OFFCURVE",
"913 191 CURVE SMOOTH",
"913 247 OFFCURVE",
"847 298 OFFCURVE",
"792 312 CURVE",
"754 267 OFFCURVE",
"717 222 OFFCURVE",
"675 197 CURVE",
"717 322 OFFCURVE",
"796 457 OFFCURVE",
"796 515 CURVE SMOOTH",
"796 542 OFFCURVE",
"670 583 OFFCURVE",
"609 583 CURVE SMOOTH"
);
},
{
closed = 1;
nodes = (
"240 294 OFFCURVE",
"314 386 OFFCURVE",
"318 452 CURVE",
"265 444 OFFCURVE",
"209 416 OFFCURVE",
"163 386 CURVE",
"106 411 OFFCURVE",
"66 460 OFFCURVE",
"66 510 CURVE SMOOTH",
"66 576 OFFCURVE",
"204 619 OFFCURVE",
"302 619 CURVE SMOOTH",
"376 619 OFFCURVE",
"484 545 OFFCURVE",
"484 457 CURVE SMOOTH",
"484 300 OFFCURVE",
"367 139 OFFCURVE",
"202 139 CURVE SMOOTH",
"125 139 OFFCURVE",
"44 213 OFFCURVE",
"10 282 CURVE",
"61 338 LINE",
"89 315 OFFCURVE",
"137 294 OFFCURVE",
"175 294 CURVE SMOOTH"
);
}
);
width = 943;
},
{
associatedMasterId = "AF1B7CCB-9C31-456C-8386-1D362D80AEF6";
background = {
paths = (
{
closed = 1;
nodes = (
"573 583 OFFCURVE",
"480 152 OFFCURVE",
"480 123 CURVE SMOOTH",
"480 84 OFFCURVE",
"597 -1 OFFCURVE",
"641 -1 CURVE SMOOTH",
"723 -1 OFFCURVE",
"913 132 OFFCURVE",
"913 191 CURVE SMOOTH",
"913 247 OFFCURVE",
"847 298 OFFCURVE",
"792 312 CURVE",
"754 267 OFFCURVE",
"717 222 OFFCURVE",
"675 197 CURVE",
"717 322 OFFCURVE",
"796 457 OFFCURVE",
"796 515 CURVE SMOOTH",
"796 542 OFFCURVE",
"670 583 OFFCURVE",
"609 583 CURVE SMOOTH"
);
},
{
closed = 1;
nodes = (
"240 294 OFFCURVE",
"314 386 OFFCURVE",
"318 452 CURVE",
"265 444 OFFCURVE",
"209 416 OFFCURVE",
"163 386 CURVE",
"106 411 OFFCURVE",
"66 460 OFFCURVE",
"66 510 CURVE SMOOTH",
"66 576 OFFCURVE",
"204 619 OFFCURVE",
"302 619 CURVE SMOOTH",
"376 619 OFFCURVE",
"484 545 OFFCURVE",
"484 457 CURVE SMOOTH",
"484 300 OFFCURVE",
"367 139 OFFCURVE",
"202 139 CURVE SMOOTH",
"125 139 OFFCURVE",
"44 213 OFFCURVE",
"10 282 CURVE",
"61 338 LINE",
"89 315 OFFCURVE",
"137 294 OFFCURVE",
"175 294 CURVE SMOOTH"
);
},
{
closed = 0;
nodes = (
"237 239 LINE",
"353 301 OFFCURVE",
"484 424 OFFCURVE",
"484 485 CURVE SMOOTH",
"484 545 OFFCURVE",
"376 619 OFFCURVE",
"302 619 CURVE SMOOTH",
"204 619 OFFCURVE",
"66 576 OFFCURVE",
"66 510 CURVE SMOOTH",
"66 465 OFFCURVE",
"92 431 OFFCURVE",
"139 398 CURVE",
"195 436 OFFCURVE",
"249 458 OFFCURVE",
"319 480 CURVE",
"263 400 OFFCURVE",
"191 354 OFFCURVE",
"86 309 CURVE"
);
}
);
};
layerId = "AC423EF5-1CBF-401E-B0B6-EEDF623E5623";
name = "Bold Italic Jul 9 15, 16:36";
paths = (
{
closed = 1;
nodes = (
"573 583 OFFCURVE",
"480 152 OFFCURVE",
"480 123 CURVE SMOOTH",
"480 84 OFFCURVE",
"597 -1 OFFCURVE",
"641 -1 CURVE SMOOTH",
"723 -1 OFFCURVE",
"913 132 OFFCURVE",
"913 191 CURVE SMOOTH",
"913 247 OFFCURVE",
"847 298 OFFCURVE",
"792 312 CURVE",
"754 267 OFFCURVE",
"717 222 OFFCURVE",
"675 197 CURVE",
"717 322 OFFCURVE",
"796 457 OFFCURVE",
"796 515 CURVE SMOOTH",
"796 542 OFFCURVE",
"670 583 OFFCURVE",
"609 583 CURVE SMOOTH"
);
},
{
closed = 1;
nodes = (
"247 292 OFFCURVE",
"323 385 OFFCURVE",
"330 478 CURVE",
"248 460 OFFCURVE",
"193 433 OFFCURVE",
"139 398 CURVE",
"98 426 OFFCURVE",
"66 462 OFFCURVE",
"66 510 CURVE SMOOTH",
"66 576 OFFCURVE",
"204 619 OFFCURVE",
"302 619 CURVE SMOOTH",
"376 619 OFFCURVE",
"484 545 OFFCURVE",
"484 457 CURVE SMOOTH",
"484 300 OFFCURVE",
"366 143 OFFCURVE",
"201 143 CURVE SMOOTH",
"124 143 OFFCURVE",
"43 217 OFFCURVE",
"9 286 CURVE",
"60 336 LINE",
"88 313 OFFCURVE",
"136 292 OFFCURVE",
"174 292 CURVE SMOOTH"
);
}
);
width = 943;
},
{
associatedMasterId = "AF1B7CCB-9C31-456C-8386-1D362D80AEF6";
background = {
paths = (
{
closed = 1;
nodes = (
"547 583 OFFCURVE",
"454 152 OFFCURVE",
"454 123 CURVE SMOOTH",
"454 84 OFFCURVE",
"571 -1 OFFCURVE",
"615 -1 CURVE SMOOTH",
"697 -1 OFFCURVE",
"887 132 OFFCURVE",
"887 191 CURVE SMOOTH",
"887 247 OFFCURVE",
"821 298 OFFCURVE",
"766 312 CURVE",
"728 267 OFFCURVE",
"691 222 OFFCURVE",
"649 197 CURVE",
"691 322 OFFCURVE",
"770 457 OFFCURVE",
"770 515 CURVE SMOOTH",
"770 542 OFFCURVE",
"644 583 OFFCURVE",
"583 583 CURVE SMOOTH"
);
},
{
closed = 1;
nodes = (
"208 285 OFFCURVE",
"298 385 OFFCURVE",
"305 478 CURVE",
"238 463 OFFCURVE",
"201 442 OFFCURVE",
"150 407 CURVE",
"112 433 OFFCURVE",
"82 470 OFFCURVE",
"82 519 CURVE SMOOTH",
"82 582 OFFCURVE",
"197 619 OFFCURVE",
"276 619 CURVE SMOOTH",
"359 619 OFFCURVE",
"459 541 OFFCURVE",
"459 457 CURVE SMOOTH",
"459 302 OFFCURVE",
"345 157 OFFCURVE",
"181 157 CURVE SMOOTH",
"101 157 OFFCURVE",
"30 224 OFFCURVE",
"2 288 CURVE",
"37 324 LINE",
"69 302 OFFCURVE",
"100 285 OFFCURVE",
"132 285 CURVE SMOOTH"
);
}
);
};
layerId = "9743EB2D-9752-4A0F-A192-CE73AC8DEFFD";
name = "Bold Italic Jul 10 15, 19:25";
paths = (
{
closed = 1;
nodes = (
"547 583 OFFCURVE",
"454 152 OFFCURVE",
"454 123 CURVE SMOOTH",
"454 84 OFFCURVE",
"571 -1 OFFCURVE",
"615 -1 CURVE SMOOTH",
"697 -1 OFFCURVE",
"887 132 OFFCURVE",
"887 191 CURVE SMOOTH",
"887 247 OFFCURVE",
"821 298 OFFCURVE",
"766 312 CURVE",
"728 267 OFFCURVE",
"691 222 OFFCURVE",
"649 197 CURVE",
"691 322 OFFCURVE",
"770 457 OFFCURVE",
"770 515 CURVE SMOOTH",
"770 542 OFFCURVE",
"644 583 OFFCURVE",
"583 583 CURVE SMOOTH"
);
},
{
closed = 1;
nodes = (
"206 285 OFFCURVE",
"295 385 OFFCURVE",
"302 478 CURVE",
"245 463 OFFCURVE",
"205 444 OFFCURVE",
"152 407 CURVE",
"106 436 OFFCURVE",
"79 470 OFFCURVE",
"79 519 CURVE SMOOTH",
"79 581 OFFCURVE",
"196 619 OFFCURVE",
"276 619 CURVE SMOOTH",
"364 619 OFFCURVE",
"462 535 OFFCURVE",
"462 462 CURVE SMOOTH",
"462 303 OFFCURVE",
"346 157 OFFCURVE",
"181 157 CURVE SMOOTH",
"107 157 OFFCURVE",
"31 215 OFFCURVE",
"0 288 CURVE",
"39 324 LINE",
"67 303 OFFCURVE",
"101 285 OFFCURVE",
"136 285 CURVE SMOOTH"
);
}
);
width = 917;
},
{
associatedMasterId = "AF1B7CCB-9C31-456C-8386-1D362D80AEF6";
background = {
paths = (
{
closed = 1;
nodes = (
"511 583 OFFCURVE",
"418 152 OFFCURVE",
"418 123 CURVE SMOOTH",
"418 84 OFFCURVE",
"535 -1 OFFCURVE",
"579 -1 CURVE SMOOTH",
"661 -1 OFFCURVE",
"851 132 OFFCURVE",
"851 191 CURVE SMOOTH",
"851 247 OFFCURVE",
"785 298 OFFCURVE",
"730 312 CURVE",
"692 267 OFFCURVE",
"655 222 OFFCURVE",
"613 197 CURVE",
"655 322 OFFCURVE",
"734 457 OFFCURVE",
"734 515 CURVE SMOOTH",
"734 542 OFFCURVE",
"608 583 OFFCURVE",
"547 583 CURVE SMOOTH"
);
},
{
closed = 1;
nodes = (
"170 285 OFFCURVE",
"259 385 OFFCURVE",
"266 478 CURVE",
"209 463 OFFCURVE",
"169 444 OFFCURVE",
"116 407 CURVE",
"70 436 OFFCURVE",
"43 470 OFFCURVE",
"43 519 CURVE SMOOTH",
"43 581 OFFCURVE",
"160 619 OFFCURVE",
"240 619 CURVE SMOOTH",
"328 619 OFFCURVE",
"426 535 OFFCURVE",
"426 462 CURVE SMOOTH",
"426 303 OFFCURVE",
"310 157 OFFCURVE",
"145 157 CURVE SMOOTH",
"71 157 OFFCURVE",
"-5 215 OFFCURVE",
"-36 288 CURVE",
"3 324 LINE",
"31 303 OFFCURVE",
"65 285 OFFCURVE",
"100 285 CURVE SMOOTH"
);
}
);
};
layerId = "A8CFCED8-3AAC-4BBD-A14A-E149AA2249BB";
name = "Bold Italic Jul 20 15, 13:44";
paths = (
{
closed = 1;
nodes = (
"170 285 OFFCURVE",
"259 385 OFFCURVE",
"266 478 CURVE",
"209 463 OFFCURVE",
"169 444 OFFCURVE",
"116 407 CURVE",
"70 436 OFFCURVE",
"43 470 OFFCURVE",
"43 519 CURVE SMOOTH",
"43 581 OFFCURVE",
"160 619 OFFCURVE",
"240 619 CURVE SMOOTH",
"328 619 OFFCURVE",
"426 535 OFFCURVE",
"426 462 CURVE SMOOTH",
"426 303 OFFCURVE",
"310 157 OFFCURVE",
"145 157 CURVE SMOOTH",
"71 157 OFFCURVE",
"-5 215 OFFCURVE",
"-36 288 CURVE",
"3 324 LINE",
"31 303 OFFCURVE",
"65 285 OFFCURVE",
"100 285 CURVE SMOOTH"
);
},
{
closed = 1;
nodes = (
"513 583 OFFCURVE",
"419 163 OFFCURVE",
"419 123 CURVE SMOOTH",
"419 86 OFFCURVE",
"532 0 OFFCURVE",
"582 0 CURVE SMOOTH",
"643 0 OFFCURVE",
"852 122 OFFCURVE",
"852 193 CURVE SMOOTH",
"852 237 OFFCURVE",
"800 293 OFFCURVE",
"731 312 CURVE",
"688 257 OFFCURVE",
"650 208 OFFCURVE",
"593 175 CURVE",
"641 315 OFFCURVE",
"715 471 OFFCURVE",
"715 522 CURVE SMOOTH",
"715 551 OFFCURVE",
"599 583 OFFCURVE",
"549 583 CURVE SMOOTH"
);
}
);
width = 884;
},
{
associatedMasterId = "AF1B7CCB-9C31-456C-8386-1D362D80AEF6";
background = {
paths = (
{
closed = 1;
nodes = (
"39 157 OFFCURVE",
"-51 235 OFFCURVE",
"-51 290 CURVE SMOOTH",
"-51 310 OFFCURVE",
"-45 327 OFFCURVE",
"-33 344 CURVE",
"34 362 OFFCURVE",
"83 351 OFFCURVE",
"118 311 CURVE",
"112 297 OFFCURVE",
"108 286 OFFCURVE",
"104 266 CURVE",
"190 314 OFFCURVE",
"234 395 OFFCURVE",
"228 478 CURVE",
"174 463 OFFCURVE",
"136 444 OFFCURVE",
"86 407 CURVE",
"42 436 OFFCURVE",
"16 470 OFFCURVE",
"16 519 CURVE SMOOTH",
"16 574 OFFCURVE",
"127 619 OFFCURVE",
"203 619 CURVE SMOOTH",
"282 619 OFFCURVE",
"378 532 OFFCURVE",
"378 465 CURVE SMOOTH",
"378 308 OFFCURVE",
"260 157 OFFCURVE",
"108 157 CURVE SMOOTH"
);
}
);
};
components = (
{
name = gjmAA;
transform = "{1, 0, 0, 1, 370, 0}";
}
);
layerId = "B633DCD2-B7C6-4721-8E81-39414265859D";
name = "Bold Italic Jul 28 15, 16:16";
paths = (
{
closed = 1;
nodes = (
"45 164 OFFCURVE",
"-44 241 OFFCURVE",
"-44 295 CURVE SMOOTH",
"-44 315 OFFCURVE",
"-38 331 OFFCURVE",
"-26 348 CURVE",
"40 366 OFFCURVE",
"88 355 OFFCURVE",
"123 316 CURVE",
"117 302 OFFCURVE",
"113 291 OFFCURVE",
"109 271 CURVE",
"193 316 OFFCURVE",
"236 395 OFFCURVE",
"237 483 CURVE",
"174 467 OFFCURVE",
"137 449 OFFCURVE",
"86 416 CURVE",
"40 447 OFFCURVE",
"26 479 OFFCURVE",
"26 508 CURVE SMOOTH",
"26 570 OFFCURVE",
"120 619 OFFCURVE",
"203 619 CURVE SMOOTH",
"286 619 OFFCURVE",
"378 521 OFFCURVE",
"378 464 CURVE SMOOTH",
"378 312 OFFCURVE",
"254 164 OFFCURVE",
"113 164 CURVE SMOOTH"
);
}
);
width = 761;
}
);
leftKerningGroup = gjGA;
rightMetricsKey = gjmAA;
unicode = 0A97;
},
{
glyphname = gjGHA;
lastChange = "2015-10-15 16:46:07 +0000";
layers = (
{
background = {
paths = (
{
closed = 1;
nodes = (
"389 593 OFFCURVE",
"403 383 OFFCURVE",
"184 247 CURVE",
"151 281 LINE",
"210 319 OFFCURVE",
"249 345 OFFCURVE",
"249 369 CURVE SMOOTH",
"249 393 OFFCURVE",
"201 406 OFFCURVE",
"177 442 CURVE",
"213 473 OFFCURVE",
"268 490 OFFCURVE",
"307 493 CURVE",
"325 557 OFFCURVE",
"303 612 OFFCURVE",
"224 619 CURVE",
"104 606 OFFCURVE",
"11 522 OFFCURVE",
"11 476 CURVE SMOOTH",
"11 442 OFFCURVE",
"53 403 OFFCURVE",
"84 379 CURVE",
"54 358 OFFCURVE",
"-34 310 OFFCURVE",
"-34 272 CURVE SMOOTH",
"-34 216 OFFCURVE",
"68 100 OFFCURVE",
"147 100 CURVE SMOOTH",
"207 100 OFFCURVE",
"311 196 OFFCURVE",
"365 262 CURVE",
"384 247 LINE",
"351 200 OFFCURVE",
"310 149 OFFCURVE",
"310 121 CURVE SMOOTH",
"310 82 OFFCURVE",
"428 0 OFFCURVE",
"464 0 CURVE SMOOTH",
"516 0 OFFCURVE",
"670 76 OFFCURVE",
"670 130 CURVE SMOOTH",
"670 183 OFFCURVE",
"635 222 OFFCURVE",
"570 241 CURVE",
"539 208 OFFCURVE",
"512 188 OFFCURVE",
"469 160 CURVE",
"514 285 OFFCURVE",
"593 450 OFFCURVE",
"593 493 CURVE SMOOTH",
"593 520 OFFCURVE",
"481 593 OFFCURVE",
"442 593 CURVE SMOOTH"
);
}
);
};
layerId = "AF1B7CCB-9C31-456C-8386-1D362D80AEF6";
name = "Bold Italic";
paths = (
{
closed = 1;
nodes = (
"412 593 OFFCURVE",
"408 383 OFFCURVE",
"184 247 CURVE",
"151 281 LINE",
"207 313 OFFCURVE",
"249 345 OFFCURVE",
"249 369 CURVE SMOOTH",
"249 393 OFFCURVE",
"205 407 OFFCURVE",
"173 441 CURVE",
"210 469 OFFCURVE",
"262 492 OFFCURVE",
"301 499 CURVE",
"320 562 OFFCURVE",
"291 610 OFFCURVE",
"216 621 CURVE",
"104 602 OFFCURVE",
"11 511 OFFCURVE",
"11 469 CURVE SMOOTH",
"11 434 OFFCURVE",
"51 401 OFFCURVE",
"84 379 CURVE",
"54 358 OFFCURVE",
"-27 310 OFFCURVE",
"-27 275 CURVE SMOOTH",
"-27 219 OFFCURVE",
"79 108 OFFCURVE",
"150 108 CURVE SMOOTH",
"220 108 OFFCURVE",
"311 196 OFFCURVE",
"365 262 CURVE",
"384 247 LINE",
"351 200 OFFCURVE",
"309 151 OFFCURVE",
"309 125 CURVE SMOOTH",
"309 84 OFFCURVE",
"428 0 OFFCURVE",
"464 0 CURVE SMOOTH",
"516 0 OFFCURVE",
"670 76 OFFCURVE",
"670 130 CURVE SMOOTH",
"670 183 OFFCURVE",
"635 222 OFFCURVE",
"570 241 CURVE",
"539 208 OFFCURVE",
"512 188 OFFCURVE",
"469 160 CURVE",
"514 285 OFFCURVE",
"593 450 OFFCURVE",
"593 493 CURVE SMOOTH",
"593 520 OFFCURVE",
"481 593 OFFCURVE",
"442 593 CURVE SMOOTH"
);
}
);
width = 713;
},
{
associatedMasterId = "AF1B7CCB-9C31-456C-8386-1D362D80AEF6";
background = {
paths = (
{
closed = 1;
nodes = (
"347 493 OFFCURVE",
"379 493 CURVE SMOOTH",
"405 493 OFFCURVE",
"433 481 OFFCURVE",
"466 454 CURVE",
"481 467 LINE",
"428 552 OFFCURVE",
"349 619 OFFCURVE",
"297 619 CURVE SMOOTH",
"206 619 OFFCURVE",
"68 527 OFFCURVE",
"71 473 CURVE SMOOTH",
"73 431 OFFCURVE",
"116 394 OFFCURVE",
"150 362 CURVE",
"130 339 OFFCURVE",
"46 313 OFFCURVE",
"46 268 CURVE SMOOTH",
"46 213 OFFCURVE",
"165 95 OFFCURVE",
"251 95 CURVE SMOOTH",
"321 95 OFFCURVE",
"456 193 OFFCURVE",
"511 261 CURVE",
"523 252 LINE",
"485 201 OFFCURVE",
"445 146 OFFCURVE",
"445 123 CURVE SMOOTH",
"445 84 OFFCURVE",
"562 -1 OFFCURVE",
"606 -1 CURVE SMOOTH",
"688 -1 OFFCURVE",
"878 132 OFFCURVE",
"878 191 CURVE SMOOTH",
"878 247 OFFCURVE",
"817 296 OFFCURVE",
"741 316 CURVE",
"711 276 OFFCURVE",
"670 235 OFFCURVE",
"628 210 CURVE",
"666 308 OFFCURVE",
"761 451 OFFCURVE",
"761 515 CURVE SMOOTH",
"761 537 OFFCURVE",
"644 583 OFFCURVE",
"577 583 CURVE SMOOTH",
"539 583 OFFCURVE",
"497 335 OFFCURVE",
"289 239 CURVE",
"275 253 LINE",
"333 288 OFFCURVE",
"384 328 OFFCURVE",
"384 362 CURVE SMOOTH",
"384 381 OFFCURVE",
"317 394 OFFCURVE",
"286 439 CURVE",
"318 474 OFFCURVE"
);
}
);
};
layerId = "74BBE2F5-6A70-406E-A8B1-7930B0F17833";
name = "too delicate";
paths = (
{
closed = 1;
nodes = (
"366 493 OFFCURVE",
"399 493 CURVE SMOOTH",
"425 493 OFFCURVE",
"453 481 OFFCURVE",
"486 454 CURVE",
"501 467 LINE",
"448 552 OFFCURVE",
"369 619 OFFCURVE",
"317 619 CURVE SMOOTH",
"226 619 OFFCURVE",
"91 537 OFFCURVE",
"91 479 CURVE SMOOTH",
"91 437 OFFCURVE",
"129 394 OFFCURVE",
"163 362 CURVE",
"130 339 OFFCURVE",
"66 307 OFFCURVE",
"66 276 CURVE SMOOTH",
"66 213 OFFCURVE",
"185 95 OFFCURVE",
"271 95 CURVE SMOOTH",
"341 95 OFFCURVE",
"456 193 OFFCURVE",
"511 261 CURVE",
"523 252 LINE",
"485 201 OFFCURVE",
"445 146 OFFCURVE",
"445 123 CURVE SMOOTH",
"445 84 OFFCURVE",
"562 -1 OFFCURVE",
"606 -1 CURVE SMOOTH",
"688 -1 OFFCURVE",
"878 132 OFFCURVE",
"878 191 CURVE SMOOTH",
"878 247 OFFCURVE",
"817 296 OFFCURVE",
"741 316 CURVE",
"711 276 OFFCURVE",
"670 235 OFFCURVE",
"628 210 CURVE",
"666 308 OFFCURVE",
"761 451 OFFCURVE",
"761 515 CURVE SMOOTH",
"761 537 OFFCURVE",
"644 583 OFFCURVE",
"577 583 CURVE SMOOTH",
"537 583 OFFCURVE",
"494 343 OFFCURVE",
"308 250 CURVE",
"294 264 LINE",
"352 299 OFFCURVE",
"390 334 OFFCURVE",
"390 368 CURVE SMOOTH",
"390 387 OFFCURVE",
"335 410 OFFCURVE",
"306 449 CURVE",
"335 479 OFFCURVE"
);
}
);
width = 858;
},
{
associatedMasterId = "AF1B7CCB-9C31-456C-8386-1D362D80AEF6";
background = {
paths = (
{
closed = 1;
nodes = (
"324 493 OFFCURVE",
"357 493 CURVE SMOOTH",
"383 493 OFFCURVE",
"411 481 OFFCURVE",
"444 454 CURVE",
"459 467 LINE",
"406 552 OFFCURVE",
"327 619 OFFCURVE",
"275 619 CURVE SMOOTH",
"184 619 OFFCURVE",
"49 537 OFFCURVE",
"49 479 CURVE SMOOTH",
"49 437 OFFCURVE",
"87 394 OFFCURVE",
"121 362 CURVE",
"88 339 OFFCURVE",
"24 307 OFFCURVE",
"24 276 CURVE SMOOTH",
"24 213 OFFCURVE",
"143 95 OFFCURVE",
"229 95 CURVE SMOOTH",
"299 95 OFFCURVE",
"414 193 OFFCURVE",
"469 261 CURVE",
"481 252 LINE",
"443 201 OFFCURVE",
"403 146 OFFCURVE",
"403 123 CURVE SMOOTH",
"403 84 OFFCURVE",
"520 -1 OFFCURVE",
"564 -1 CURVE SMOOTH",
"646 -1 OFFCURVE",
"836 132 OFFCURVE",
"836 191 CURVE SMOOTH",
"836 247 OFFCURVE",
"775 296 OFFCURVE",
"699 316 CURVE",
"669 276 OFFCURVE",
"628 235 OFFCURVE",
"586 210 CURVE",
"624 308 OFFCURVE",
"719 451 OFFCURVE",
"719 515 CURVE SMOOTH",
"719 537 OFFCURVE",
"602 583 OFFCURVE",
"535 583 CURVE SMOOTH",
"495 583 OFFCURVE",
"452 343 OFFCURVE",
"266 250 CURVE",
"252 264 LINE",
"310 299 OFFCURVE",
"348 334 OFFCURVE",
"348 368 CURVE SMOOTH",
"348 387 OFFCURVE",
"293 410 OFFCURVE",
"264 449 CURVE",
"293 479 OFFCURVE"
);
}
);
};
layerId = "717B212C-5CF0-4294-A82F-0CE5781F88AC";
name = "Regular Jun 2 15, 16:56";
paths = (
{
closed = 1;
nodes = (
"460 497 LINE",
"421 556 OFFCURVE",
"347 620 OFFCURVE",
"283 620 CURVE SMOOTH",
"187 620 OFFCURVE",
"49 537 OFFCURVE",
"49 479 CURVE SMOOTH",
"49 437 OFFCURVE",
"87 394 OFFCURVE",
"121 362 CURVE",
"88 339 OFFCURVE",
"24 307 OFFCURVE",
"24 276 CURVE SMOOTH",
"24 213 OFFCURVE",
"143 95 OFFCURVE",
"229 95 CURVE SMOOTH",
"299 95 OFFCURVE",
"414 193 OFFCURVE",
"469 261 CURVE",
"481 252 LINE",
"443 201 OFFCURVE",
"403 146 OFFCURVE",
"403 123 CURVE SMOOTH",
"403 84 OFFCURVE",
"520 -1 OFFCURVE",
"564 -1 CURVE SMOOTH",
"646 -1 OFFCURVE",
"836 132 OFFCURVE",
"836 191 CURVE SMOOTH",
"836 247 OFFCURVE",
"775 296 OFFCURVE",
"699 316 CURVE",
"669 276 OFFCURVE",
"628 235 OFFCURVE",
"586 210 CURVE",
"624 308 OFFCURVE",
"719 451 OFFCURVE",
"719 515 CURVE SMOOTH",
"719 537 OFFCURVE",
"602 583 OFFCURVE",
"535 583 CURVE SMOOTH",
"495 583 OFFCURVE",
"452 343 OFFCURVE",
"266 250 CURVE",
"252 264 LINE",
"310 299 OFFCURVE",
"348 334 OFFCURVE",
"348 368 CURVE SMOOTH",
"348 387 OFFCURVE",
"293 410 OFFCURVE",
"264 449 CURVE",
"295 479 OFFCURVE",
"328 496 OFFCURVE",
"363 496 CURVE SMOOTH",
"387 496 OFFCURVE",
"412 488 OFFCURVE",
"438 472 CURVE"
);
}
);
width = 866;
},
{
associatedMasterId = "AF1B7CCB-9C31-456C-8386-1D362D80AEF6";
background = {
paths = (
{
closed = 1;
nodes = (
"471 497 LINE",
"432 556 OFFCURVE",
"358 620 OFFCURVE",
"294 620 CURVE SMOOTH",
"198 620 OFFCURVE",
"60 537 OFFCURVE",
"60 479 CURVE SMOOTH",
"60 437 OFFCURVE",
"98 394 OFFCURVE",
"132 362 CURVE",
"99 339 OFFCURVE",
"35 307 OFFCURVE",
"35 276 CURVE SMOOTH",
"35 213 OFFCURVE",
"154 95 OFFCURVE",
"240 95 CURVE SMOOTH",
"310 95 OFFCURVE",
"425 193 OFFCURVE",
"480 261 CURVE",
"492 252 LINE",
"454 201 OFFCURVE",
"414 146 OFFCURVE",
"414 123 CURVE SMOOTH",
"414 84 OFFCURVE",
"531 -1 OFFCURVE",
"575 -1 CURVE SMOOTH",
"657 -1 OFFCURVE",
"847 132 OFFCURVE",
"847 191 CURVE SMOOTH",
"847 247 OFFCURVE",
"786 296 OFFCURVE",
"710 316 CURVE",
"680 276 OFFCURVE",
"639 235 OFFCURVE",
"597 210 CURVE",
"635 308 OFFCURVE",
"730 451 OFFCURVE",
"730 515 CURVE SMOOTH",
"730 537 OFFCURVE",
"613 583 OFFCURVE",
"546 583 CURVE SMOOTH",
"506 583 OFFCURVE",
"463 343 OFFCURVE",
"277 250 CURVE",
"263 264 LINE",
"321 299 OFFCURVE",
"359 334 OFFCURVE",
"359 368 CURVE SMOOTH",
"359 387 OFFCURVE",
"304 410 OFFCURVE",
"275 449 CURVE",
"306 479 OFFCURVE",
"339 496 OFFCURVE",
"374 496 CURVE SMOOTH",
"398 496 OFFCURVE",
"423 488 OFFCURVE",
"449 472 CURVE"
);
}
);
};
layerId = "F69AF9D5-7B3C-413B-8FFB-597EE4DF1449";
name = bolder;
paths = (
{
closed = 1;
nodes = (
"471 497 LINE",
"434 549 OFFCURVE",
"341 628 OFFCURVE",
"278 628 CURVE SMOOTH",
"211 628 OFFCURVE",
"60 537 OFFCURVE",
"60 479 CURVE SMOOTH",
"60 437 OFFCURVE",
"98 394 OFFCURVE",
"132 362 CURVE",
"99 339 OFFCURVE",
"35 307 OFFCURVE",
"35 276 CURVE SMOOTH",
"35 213 OFFCURVE",
"154 95 OFFCURVE",
"240 95 CURVE SMOOTH",
"310 95 OFFCURVE",
"425 193 OFFCURVE",
"480 261 CURVE",
"492 252 LINE",
"454 201 OFFCURVE",
"414 146 OFFCURVE",
"414 123 CURVE SMOOTH",
"414 84 OFFCURVE",
"531 -1 OFFCURVE",
"575 -1 CURVE SMOOTH",
"657 -1 OFFCURVE",
"847 132 OFFCURVE",
"847 191 CURVE SMOOTH",
"847 247 OFFCURVE",
"786 296 OFFCURVE",
"710 316 CURVE",
"680 276 OFFCURVE",
"639 235 OFFCURVE",
"597 210 CURVE",
"635 308 OFFCURVE",
"730 451 OFFCURVE",
"730 515 CURVE SMOOTH",
"730 537 OFFCURVE",
"613 583 OFFCURVE",
"546 583 CURVE SMOOTH",
"506 583 OFFCURVE",
"463 343 OFFCURVE",
"277 250 CURVE",
"263 264 LINE",
"321 299 OFFCURVE",
"359 334 OFFCURVE",
"359 368 CURVE SMOOTH",
"359 387 OFFCURVE",
"304 410 OFFCURVE",
"275 449 CURVE",
"298 472 OFFCURVE",
"340 504 OFFCURVE",
"365 504 CURVE SMOOTH",
"397 504 OFFCURVE",
"420 485 OFFCURVE",
"446 469 CURVE"
);
}
);
width = 827;
},
{
associatedMasterId = "AF1B7CCB-9C31-456C-8386-1D362D80AEF6";
background = {
paths = (
{
closed = 1;
nodes = (
"457 497 LINE",
"420 549 OFFCURVE",
"327 628 OFFCURVE",
"264 628 CURVE SMOOTH",
"197 628 OFFCURVE",
"46 537 OFFCURVE",
"46 479 CURVE SMOOTH",
"46 437 OFFCURVE",
"84 394 OFFCURVE",
"118 362 CURVE",
"85 339 OFFCURVE",
"21 307 OFFCURVE",
"21 276 CURVE SMOOTH",
"21 213 OFFCURVE",
"140 95 OFFCURVE",
"226 95 CURVE SMOOTH",
"296 95 OFFCURVE",
"411 193 OFFCURVE",
"466 261 CURVE",
"478 252 LINE",
"440 201 OFFCURVE",
"400 146 OFFCURVE",
"400 123 CURVE SMOOTH",
"400 84 OFFCURVE",
"517 -1 OFFCURVE",
"561 -1 CURVE SMOOTH",
"643 -1 OFFCURVE",
"833 132 OFFCURVE",
"833 191 CURVE SMOOTH",
"833 247 OFFCURVE",
"772 296 OFFCURVE",
"696 316 CURVE",
"666 276 OFFCURVE",
"625 235 OFFCURVE",
"583 210 CURVE",
"621 308 OFFCURVE",
"716 451 OFFCURVE",
"716 515 CURVE SMOOTH",
"716 537 OFFCURVE",
"599 583 OFFCURVE",
"532 583 CURVE SMOOTH",
"492 583 OFFCURVE",
"449 343 OFFCURVE",
"263 250 CURVE",
"249 264 LINE",
"307 299 OFFCURVE",
"345 334 OFFCURVE",
"345 368 CURVE SMOOTH",
"345 387 OFFCURVE",
"290 410 OFFCURVE",
"261 449 CURVE",
"284 472 OFFCURVE",
"326 504 OFFCURVE",
"351 504 CURVE SMOOTH",
"383 504 OFFCURVE",
"406 485 OFFCURVE",
"432 469 CURVE"
);
}
);
};
layerId = "7BCEFDBB-E6E8-4F93-B955-72B95F205FD8";
name = "Bold Italic Jul 9 15, 16:19";
paths = (
{
closed = 1;
nodes = (
"284 95 OFFCURVE",
"405 183 OFFCURVE",
"464 262 CURVE",
"483 247 LINE",
"445 196 OFFCURVE",
"405 141 OFFCURVE",
"405 118 CURVE SMOOTH",
"405 79 OFFCURVE",
"517 -1 OFFCURVE",
"561 -1 CURVE SMOOTH",
"643 -1 OFFCURVE",
"833 132 OFFCURVE",
"833 191 CURVE SMOOTH",
"833 247 OFFCURVE",
"767 298 OFFCURVE",
"712 312 CURVE",
"674 267 OFFCURVE",
"637 222 OFFCURVE",
"595 197 CURVE",
"637 322 OFFCURVE",
"716 457 OFFCURVE",
"716 515 CURVE SMOOTH",
"716 542 OFFCURVE",
"589 583 OFFCURVE",
"536 583 CURVE SMOOTH",
"486 583 OFFCURVE",
"483 370 OFFCURVE",
"260 248 CURVE",
"233 276 LINE",
"292 314 OFFCURVE",
"328 345 OFFCURVE",
"328 371 CURVE SMOOTH",
"328 393 OFFCURVE",
"282 411 OFFCURVE",
"252 449 CURVE",
"275 472 OFFCURVE",
"323 504 OFFCURVE",
"348 504 CURVE SMOOTH",
"380 504 OFFCURVE",
"406 485 OFFCURVE",
"432 469 CURVE",
"457 497 LINE",
"420 549 OFFCURVE",
"324 628 OFFCURVE",
"261 628 CURVE SMOOTH",
"194 628 OFFCURVE",
"49 540 OFFCURVE",
"49 482 CURVE SMOOTH",
"49 438 OFFCURVE",
"94 396 OFFCURVE",
"123 369 CURVE",
"93 348 OFFCURVE",
"21 307 OFFCURVE",
"21 276 CURVE SMOOTH",
"21 213 OFFCURVE",
"137 95 OFFCURVE",
"226 95 CURVE SMOOTH"
);
}
);
width = 863;
},
{
associatedMasterId = "AF1B7CCB-9C31-456C-8386-1D362D80AEF6";
background = {
paths = (
{
closed = 1;
nodes = (
"276 95 OFFCURVE",
"397 183 OFFCURVE",
"456 262 CURVE",
"475 247 LINE",
"437 196 OFFCURVE",
"397 141 OFFCURVE",
"397 118 CURVE SMOOTH",
"397 79 OFFCURVE",
"509 -1 OFFCURVE",
"553 -1 CURVE SMOOTH",
"635 -1 OFFCURVE",
"825 132 OFFCURVE",
"825 191 CURVE SMOOTH",
"825 247 OFFCURVE",
"759 298 OFFCURVE",
"704 312 CURVE",
"666 267 OFFCURVE",
"629 222 OFFCURVE",
"587 197 CURVE",
"629 322 OFFCURVE",
"708 457 OFFCURVE",
"708 515 CURVE SMOOTH",
"708 542 OFFCURVE",
"581 583 OFFCURVE",
"528 583 CURVE SMOOTH",
"478 583 OFFCURVE",
"475 370 OFFCURVE",
"252 248 CURVE",
"225 276 LINE",
"284 314 OFFCURVE",
"320 345 OFFCURVE",
"320 371 CURVE SMOOTH",
"320 393 OFFCURVE",
"274 411 OFFCURVE",
"244 449 CURVE",
"267 472 OFFCURVE",
"315 504 OFFCURVE",
"340 504 CURVE SMOOTH",
"372 504 OFFCURVE",
"398 485 OFFCURVE",
"424 469 CURVE",
"449 497 LINE",
"412 549 OFFCURVE",
"316 628 OFFCURVE",
"253 628 CURVE SMOOTH",
"186 628 OFFCURVE",
"41 540 OFFCURVE",
"41 482 CURVE SMOOTH",
"41 438 OFFCURVE",
"86 396 OFFCURVE",
"115 369 CURVE",
"85 348 OFFCURVE",
"13 307 OFFCURVE",
"13 276 CURVE SMOOTH",
"13 213 OFFCURVE",
"129 95 OFFCURVE",
"218 95 CURVE SMOOTH"
);
}
);
};
layerId = "40DDFE6D-A03C-4D01-AEDD-93A04DFA9BA2";
name = "Bold Italic Jul 10 15, 17:08";
paths = (
{
closed = 1;
nodes = (
"276 95 OFFCURVE",
"397 183 OFFCURVE",
"456 262 CURVE",
"475 247 LINE",
"437 196 OFFCURVE",
"397 141 OFFCURVE",
"397 118 CURVE SMOOTH",
"397 79 OFFCURVE",
"509 -1 OFFCURVE",
"553 -1 CURVE SMOOTH",
"635 -1 OFFCURVE",
"825 132 OFFCURVE",
"825 191 CURVE SMOOTH",
"825 247 OFFCURVE",
"759 298 OFFCURVE",
"704 312 CURVE",
"666 267 OFFCURVE",
"629 222 OFFCURVE",
"587 197 CURVE",
"629 322 OFFCURVE",
"708 457 OFFCURVE",
"708 515 CURVE SMOOTH",
"708 542 OFFCURVE",
"581 583 OFFCURVE",
"528 583 CURVE SMOOTH",
"478 583 OFFCURVE",
"475 370 OFFCURVE",
"252 248 CURVE",
"225 276 LINE",
"284 314 OFFCURVE",
"320 345 OFFCURVE",
"320 369 CURVE SMOOTH",
"320 393 OFFCURVE",
"267 410 OFFCURVE",
"248 442 CURVE",
"267 462 OFFCURVE",
"317 495 OFFCURVE",
"340 495 CURVE SMOOTH",
"363 495 OFFCURVE",
"389 480 OFFCURVE",
"413 464 CURVE",
"442 496 LINE",
"410 544 OFFCURVE",
"330 619 OFFCURVE",
"255 619 CURVE SMOOTH",
"178 619 OFFCURVE",
"46 532 OFFCURVE",
"46 472 CURVE SMOOTH",
"46 432 OFFCURVE",
"81 400 OFFCURVE",
"115 369 CURVE",
"85 348 OFFCURVE",
"13 307 OFFCURVE",
"13 276 CURVE SMOOTH",
"13 213 OFFCURVE",
"129 95 OFFCURVE",
"218 95 CURVE SMOOTH"
);
}
);
width = 855;
},
{
associatedMasterId = "AF1B7CCB-9C31-456C-8386-1D362D80AEF6";
background = {
paths = (
{
closed = 1;
nodes = (
"276 95 OFFCURVE",
"397 183 OFFCURVE",
"456 262 CURVE",
"475 247 LINE",
"437 196 OFFCURVE",
"397 141 OFFCURVE",
"397 118 CURVE SMOOTH",
"397 79 OFFCURVE",
"509 -1 OFFCURVE",
"553 -1 CURVE SMOOTH",
"635 -1 OFFCURVE",
"825 132 OFFCURVE",
"825 191 CURVE SMOOTH",
"825 247 OFFCURVE",
"759 298 OFFCURVE",
"704 312 CURVE",
"666 267 OFFCURVE",
"629 222 OFFCURVE",
"587 197 CURVE",
"629 322 OFFCURVE",
"708 457 OFFCURVE",
"708 515 CURVE SMOOTH",
"708 542 OFFCURVE",
"581 583 OFFCURVE",
"528 583 CURVE SMOOTH",
"478 583 OFFCURVE",
"475 370 OFFCURVE",
"252 248 CURVE",
"225 276 LINE",
"284 314 OFFCURVE",
"320 345 OFFCURVE",
"320 369 CURVE SMOOTH",
"320 393 OFFCURVE",
"267 410 OFFCURVE",
"248 442 CURVE",
"267 462 OFFCURVE",
"317 495 OFFCURVE",
"340 495 CURVE SMOOTH",
"363 495 OFFCURVE",
"389 480 OFFCURVE",
"413 464 CURVE",
"442 496 LINE",
"410 544 OFFCURVE",
"330 619 OFFCURVE",
"255 619 CURVE SMOOTH",
"178 619 OFFCURVE",
"46 532 OFFCURVE",
"46 472 CURVE SMOOTH",
"46 432 OFFCURVE",
"81 400 OFFCURVE",
"115 369 CURVE",
"85 348 OFFCURVE",
"13 307 OFFCURVE",
"13 276 CURVE SMOOTH",
"13 213 OFFCURVE",
"129 95 OFFCURVE",
"218 95 CURVE SMOOTH"
);
},
{
closed = 0;
nodes = (
"358 486 LINE SMOOTH",
"375 486 OFFCURVE",
"391 479 OFFCURVE",
"409 469 CURVE",
"427 478 OFFCURVE",
"436 489 OFFCURVE",
"438 501 CURVE",
"408 545 OFFCURVE",
"329 611 OFFCURVE",
"256 611 CURVE SMOOTH"
);
}
);
};
layerId = "3A7C47EC-F76E-40B1-AA17-C100A6802359";
name = "Bold Italic Jul 10 15, 21:29";
paths = (
{
closed = 1;
nodes = (
"364 495 OFFCURVE",
"391 480 OFFCURVE",
"409 469 CURVE",
"427 478 OFFCURVE",
"436 489 OFFCURVE",
"438 501 CURVE",
"408 545 OFFCURVE",
"330 619 OFFCURVE",
"255 619 CURVE SMOOTH",
"178 619 OFFCURVE",
"46 532 OFFCURVE",
"46 472 CURVE SMOOTH",
"46 432 OFFCURVE",
"81 400 OFFCURVE",
"115 369 CURVE",
"85 348 OFFCURVE",
"13 307 OFFCURVE",
"13 276 CURVE SMOOTH",
"13 213 OFFCURVE",
"129 95 OFFCURVE",
"218 95 CURVE SMOOTH",
"276 95 OFFCURVE",
"397 183 OFFCURVE",
"456 262 CURVE",
"475 247 LINE",
"437 196 OFFCURVE",
"397 141 OFFCURVE",
"397 118 CURVE SMOOTH",
"397 79 OFFCURVE",
"509 -1 OFFCURVE",
"553 -1 CURVE SMOOTH",
"635 -1 OFFCURVE",
"825 132 OFFCURVE",
"825 191 CURVE SMOOTH",
"825 247 OFFCURVE",
"759 298 OFFCURVE",
"704 312 CURVE",
"666 267 OFFCURVE",
"629 222 OFFCURVE",
"587 197 CURVE",
"629 322 OFFCURVE",
"708 457 OFFCURVE",
"708 515 CURVE SMOOTH",
"708 542 OFFCURVE",
"581 583 OFFCURVE",
"528 583 CURVE SMOOTH",
"478 583 OFFCURVE",
"475 370 OFFCURVE",
"252 248 CURVE",
"225 276 LINE",
"284 314 OFFCURVE",
"320 345 OFFCURVE",
"320 369 CURVE SMOOTH",
"320 393 OFFCURVE",
"267 410 OFFCURVE",
"248 442 CURVE",
"267 462 OFFCURVE",
"318 495 OFFCURVE",
"340 495 CURVE SMOOTH"
);
}
);
width = 855;
},
{
associatedMasterId = "AF1B7CCB-9C31-456C-8386-1D362D80AEF6";
background = {
paths = (
{
closed = 0;
nodes = (
"227 248 LINE",
"200 276 LINE",
"259 314 OFFCURVE",
"295 345 OFFCURVE",
"295 369 CURVE SMOOTH",
"295 393 OFFCURVE",
"242 410 OFFCURVE",
"223 442 CURVE",
"242 462 OFFCURVE",
"293 495 OFFCURVE",
"315 495 CURVE SMOOTH",
"339 495 OFFCURVE",
"366 480 OFFCURVE",
"384 469 CURVE",
"402 478 OFFCURVE",
"411 489 OFFCURVE",
"413 501 CURVE",
"383 545 OFFCURVE",
"305 619 OFFCURVE",
"230 619 CURVE SMOOTH",
"153 619 OFFCURVE",
"21 532 OFFCURVE",
"21 472 CURVE SMOOTH",
"21 432 OFFCURVE",
"56 400 OFFCURVE",
"90 369 CURVE",
"60 348 OFFCURVE",
"-12 307 OFFCURVE",
"-12 276 CURVE SMOOTH",
"-12 213 OFFCURVE",
"104 95 OFFCURVE",
"193 95 CURVE SMOOTH",
"251 95 OFFCURVE",
"372 183 OFFCURVE",
"431 262 CURVE",
"450 247 LINE",
"412 196 OFFCURVE",
"372 141 OFFCURVE",
"372 118 CURVE SMOOTH",
"372 82 OFFCURVE",
"480 0 OFFCURVE",
"530 0 CURVE SMOOTH",
"591 0 OFFCURVE",
"800 122 OFFCURVE",
"800 193 CURVE SMOOTH",
"800 237 OFFCURVE",
"748 293 OFFCURVE",
"679 312 CURVE",
"636 257 OFFCURVE",
"598 208 OFFCURVE",
"541 175 CURVE",
"589 315 OFFCURVE",
"663 471 OFFCURVE",
"663 522 CURVE SMOOTH",
"663 551 OFFCURVE",
"546 583 OFFCURVE",
"503 583 CURVE SMOOTH",
"449 583 OFFCURVE",
"471 341 OFFCURVE",
"176 214 CURVE"
);
}
);
};
layerId = "E55573F4-5048-4817-9653-D4D6979DF420";
name = "Bold Italic Jul 13 15, 18:16";
paths = (
{
closed = 1;
nodes = (
"200 276 LINE",
"259 314 OFFCURVE",
"295 345 OFFCURVE",
"295 369 CURVE SMOOTH",
"295 393 OFFCURVE",
"242 410 OFFCURVE",
"223 442 CURVE",
"242 462 OFFCURVE",
"293 495 OFFCURVE",
"315 495 CURVE SMOOTH",
"339 495 OFFCURVE",
"358 484 OFFCURVE",
"376 473 CURVE",
"394 482 OFFCURVE",
"403 493 OFFCURVE",
"405 505 CURVE",
"375 549 OFFCURVE",
"305 619 OFFCURVE",
"230 619 CURVE SMOOTH",
"153 619 OFFCURVE",
"41 542 OFFCURVE",
"41 492 CURVE SMOOTH",
"41 448 OFFCURVE",
"86 405 OFFCURVE",
"120 379 CURVE",
"90 358 OFFCURVE",
"2 310 OFFCURVE",
"2 272 CURVE SMOOTH",
"2 216 OFFCURVE",
"104 95 OFFCURVE",
"193 95 CURVE SMOOTH",
"251 95 OFFCURVE",
"372 183 OFFCURVE",
"431 262 CURVE",
"450 247 LINE",
"412 196 OFFCURVE",
"372 141 OFFCURVE",
"372 118 CURVE SMOOTH",
"372 82 OFFCURVE",
"480 0 OFFCURVE",
"530 0 CURVE SMOOTH",
"591 0 OFFCURVE",
"800 122 OFFCURVE",
"800 193 CURVE SMOOTH",
"800 237 OFFCURVE",
"748 293 OFFCURVE",
"679 312 CURVE",
"636 257 OFFCURVE",
"598 208 OFFCURVE",
"541 175 CURVE",
"589 315 OFFCURVE",
"663 471 OFFCURVE",
"663 522 CURVE SMOOTH",
"663 551 OFFCURVE",
"546 583 OFFCURVE",
"503 583 CURVE SMOOTH",
"453 583 OFFCURVE",
"468 372 OFFCURVE",
"233 242 CURVE"
);
}
);
width = 857;
},
{
associatedMasterId = "AF1B7CCB-9C31-456C-8386-1D362D80AEF6";
background = {
paths = (
{
closed = 1;
nodes = (
"210 276 LINE",
"269 314 OFFCURVE",
"305 345 OFFCURVE",
"305 369 CURVE SMOOTH",
"305 393 OFFCURVE",
"257 406 OFFCURVE",
"233 442 CURVE",
"269 473 OFFCURVE",
"324 490 OFFCURVE",
"363 493 CURVE",
"381 557 OFFCURVE",
"359 612 OFFCURVE",
"280 619 CURVE",
"160 606 OFFCURVE",
"57 522 OFFCURVE",
"57 476 CURVE SMOOTH",
"57 442 OFFCURVE",
"99 403 OFFCURVE",
"130 379 CURVE",
"100 358 OFFCURVE",
"12 310 OFFCURVE",
"12 272 CURVE SMOOTH",
"12 216 OFFCURVE",
"114 95 OFFCURVE",
"203 95 CURVE SMOOTH",
"261 95 OFFCURVE",
"382 183 OFFCURVE",
"441 262 CURVE",
"460 247 LINE",
"422 196 OFFCURVE",
"382 141 OFFCURVE",
"382 118 CURVE SMOOTH",
"382 82 OFFCURVE",
"490 0 OFFCURVE",
"540 0 CURVE SMOOTH",
"601 0 OFFCURVE",
"810 122 OFFCURVE",
"810 193 CURVE SMOOTH",
"810 237 OFFCURVE",
"758 293 OFFCURVE",
"689 312 CURVE",
"646 257 OFFCURVE",
"608 208 OFFCURVE",
"551 175 CURVE",
"599 315 OFFCURVE",
"673 471 OFFCURVE",
"673 522 CURVE SMOOTH",
"673 551 OFFCURVE",
"556 583 OFFCURVE",
"513 583 CURVE SMOOTH",
"463 583 OFFCURVE",
"478 372 OFFCURVE",
"243 242 CURVE"
);
}
);
};
layerId = "A2FE3AD3-CFF2-4704-8EAD-FC75D50B070F";
name = equal;
paths = (
{
closed = 1;
nodes = (
"460 247 LINE",
"422 196 OFFCURVE",
"382 141 OFFCURVE",
"382 118 CURVE SMOOTH",
"382 82 OFFCURVE",
"490 0 OFFCURVE",
"540 0 CURVE SMOOTH",
"601 0 OFFCURVE",
"810 122 OFFCURVE",
"810 193 CURVE SMOOTH",
"810 237 OFFCURVE",
"758 293 OFFCURVE",
"689 312 CURVE",
"646 257 OFFCURVE",
"608 208 OFFCURVE",
"551 175 CURVE",
"599 315 OFFCURVE",
"679 480 OFFCURVE",
"679 541 CURVE SMOOTH",
"679 570 OFFCURVE",
"562 602 OFFCURVE",
"519 602 CURVE SMOOTH",
"465 602 OFFCURVE",
"491 382 OFFCURVE",
"243 242 CURVE",
"210 276 LINE",
"269 314 OFFCURVE",
"305 345 OFFCURVE",
"305 369 CURVE SMOOTH",
"305 393 OFFCURVE",
"257 406 OFFCURVE",
"233 442 CURVE",
"269 473 OFFCURVE",
"324 490 OFFCURVE",
"363 493 CURVE",
"381 557 OFFCURVE",
"359 612 OFFCURVE",
"280 619 CURVE",
"160 606 OFFCURVE",
"57 522 OFFCURVE",
"57 476 CURVE SMOOTH",
"57 442 OFFCURVE",
"99 403 OFFCURVE",
"130 379 CURVE",
"100 358 OFFCURVE",
"12 310 OFFCURVE",
"12 272 CURVE SMOOTH",
"12 216 OFFCURVE",
"114 95 OFFCURVE",
"203 95 CURVE SMOOTH",
"261 95 OFFCURVE",
"382 183 OFFCURVE",
"441 262 CURVE"
);
}
);
width = 867;
}
);
leftKerningGroup = gjGHA;
rightMetricsKey = gjmAA;
unicode = 0A98;
},
{
color = 3;
glyphname = gjNGA;
lastChange = "2015-10-04 14:31:06 +0000";
layers = (
{
anchors = (
{
name = abvm;
position = "{261, 642}";
},
{
name = blwm;
position = "{175, -52}";
},
{
name = blwm.u;
position = "{307, -52}";
}
);
background = {
components = (
{
name = gjDDA;
}
);
};
layerId = "AF1B7CCB-9C31-456C-8386-1D362D80AEF6";
name = "Bold Italic";
paths = (
{
closed = 1;
nodes = (
"448 357 OFFCURVE",
"526 338 OFFCURVE",
"571 338 CURVE SMOOTH",
"606 338 OFFCURVE",
"629 410 OFFCURVE",
"629 441 CURVE SMOOTH",
"629 466 OFFCURVE",
"546 500 OFFCURVE",
"495 500 CURVE SMOOTH",
"462 500 OFFCURVE",
"448 420 OFFCURVE",
"448 389 CURVE SMOOTH"
);
},
{
closed = 1;
nodes = (
"175 135 OFFCURVE",
"190 186 OFFCURVE",
"206 219 CURVE SMOOTH",
"108 302 OFFCURVE",
"3 248 OFFCURVE",
"3 165 CURVE SMOOTH",
"3 94 OFFCURVE",
"127 0 OFFCURVE",
"226 0 CURVE SMOOTH",
"371 0 OFFCURVE",
"519 103 OFFCURVE",
"519 191 CURVE SMOOTH",
"519 282 OFFCURVE",
"424 356 OFFCURVE",
"275 420 CURVE",
"324 452 OFFCURVE",
"361 470 OFFCURVE",
"411 487 CURVE",
"424 552 OFFCURVE",
"406 602 OFFCURVE",
"322 619 CURVE",
"233 589 OFFCURVE",
"127 521 OFFCURVE",
"116 473 CURVE SMOOTH",
"109 443 OFFCURVE",
"133 376 OFFCURVE",
"158 365 CURVE SMOOTH",
"223 335 OFFCURVE",
"323 272 OFFCURVE",
"362 233 CURVE",
"323 151 OFFCURVE",
"220 112 OFFCURVE",
"139 116 CURVE",
"162 92 LINE"
);
}
);
width = 631;
}
);
leftKerningGroup = gjDDA;
leftMetricsKey = gjDDA;
rightKerningGroup = gjNGA;
unicode = 0A99;
},
{
glyphname = gjCA;
lastChange = "2015-10-15 16:45:44 +0000";
layers = (
{
background = {
paths = (
{
closed = 1;
nodes = (
"473 593 OFFCURVE",
"485 359 OFFCURVE",
"234 233 CURVE",
"206 263 LINE",
"336 338 OFFCURVE",
"417 434 OFFCURVE",
"417 495 CURVE SMOOTH",
"417 545 OFFCURVE",
"327 619 OFFCURVE",
"271 619 CURVE SMOOTH",
"200 619 OFFCURVE",
"66 583 OFFCURVE",
"66 512 CURVE SMOOTH",
"66 476 OFFCURVE",
"92 442 OFFCURVE",
"132 409 CURVE",
"195 444 OFFCURVE",
"226 454 OFFCURVE",
"289 475 CURVE",
"245 408 OFFCURVE",
"176 359 OFFCURVE",
"76 312 CURVE",
"129 292 LINE",
"107 356 OFFCURVE",
"68 433 OFFCURVE",
"33 433 CURVE SMOOTH",
"-9 433 OFFCURVE",
"-71 380 OFFCURVE",
"-71 350 CURVE SMOOTH",
"-71 309 OFFCURVE",
"-7 228 OFFCURVE",
"34 228 CURVE SMOOTH",
"59 228 OFFCURVE",
"88 246 OFFCURVE",
"105 268 CURVE",
"42 248 LINE",
"72 180 OFFCURVE",
"136 105 OFFCURVE",
"192 105 CURVE SMOOTH",
"270 105 OFFCURVE",
"395 194 OFFCURVE",
"449 262 CURVE",
"468 247 LINE",
"435 200 OFFCURVE",
"394 149 OFFCURVE",
"394 121 CURVE SMOOTH",
"394 82 OFFCURVE",
"512 0 OFFCURVE",
"548 0 CURVE SMOOTH",
"600 0 OFFCURVE",
"754 76 OFFCURVE",
"754 130 CURVE SMOOTH",
"754 183 OFFCURVE",
"719 222 OFFCURVE",
"654 241 CURVE",
"623 208 OFFCURVE",
"596 188 OFFCURVE",
"553 160 CURVE",
"598 285 OFFCURVE",
"677 450 OFFCURVE",
"677 493 CURVE SMOOTH",
"677 520 OFFCURVE",
"565 593 OFFCURVE",
"526 593 CURVE SMOOTH"
);
},
{
closed = 0;
nodes = (
"234 108 LINE SMOOTH",
"304 108 OFFCURVE",
"395 196 OFFCURVE",
"449 262 CURVE",
"468 247 LINE",
"435 200 OFFCURVE",
"393 151 OFFCURVE",
"393 125 CURVE SMOOTH",
"393 84 OFFCURVE",
"512 0 OFFCURVE",
"548 0 CURVE SMOOTH",
"600 0 OFFCURVE",
"754 76 OFFCURVE",
"754 130 CURVE SMOOTH",
"754 183 OFFCURVE",
"719 222 OFFCURVE",
"654 241 CURVE",
"623 208 OFFCURVE",
"596 188 OFFCURVE",
"553 160 CURVE",
"598 285 OFFCURVE",
"677 450 OFFCURVE",
"677 493 CURVE SMOOTH",
"677 520 OFFCURVE",
"565 593 OFFCURVE",
"526 593 CURVE SMOOTH",
"496 593 OFFCURVE",
"492 383 OFFCURVE",
"268 247 CURVE"
);
}
);
};
layerId = "AF1B7CCB-9C31-456C-8386-1D362D80AEF6";
name = "Bold Italic";
paths = (
{
closed = 1;
nodes = (
"279 104 OFFCURVE",
"395 196 OFFCURVE",
"449 262 CURVE",
"468 247 LINE",
"435 200 OFFCURVE",
"393 151 OFFCURVE",
"393 125 CURVE SMOOTH",
"393 84 OFFCURVE",
"512 0 OFFCURVE",
"548 0 CURVE SMOOTH",
"600 0 OFFCURVE",
"754 76 OFFCURVE",
"754 130 CURVE SMOOTH",
"754 183 OFFCURVE",
"719 222 OFFCURVE",
"654 241 CURVE",
"623 208 OFFCURVE",
"596 188 OFFCURVE",
"553 160 CURVE",
"598 285 OFFCURVE",
"677 450 OFFCURVE",
"677 493 CURVE SMOOTH",
"677 520 OFFCURVE",
"565 593 OFFCURVE",
"526 593 CURVE SMOOTH",
"495 593 OFFCURVE",
"489 355 OFFCURVE",
"234 233 CURVE",
"206 263 LINE",
"336 331 OFFCURVE",
"417 434 OFFCURVE",
"417 495 CURVE SMOOTH",
"417 545 OFFCURVE",
"327 619 OFFCURVE",
"271 619 CURVE SMOOTH",
"200 619 OFFCURVE",
"74 589 OFFCURVE",
"74 518 CURVE SMOOTH",
"74 482 OFFCURVE",
"95 452 OFFCURVE",
"135 419 CURVE",
"198 452 OFFCURVE",
"222 459 OFFCURVE",
"285 480 CURVE",
"242 409 OFFCURVE",
"181 355 OFFCURVE",
"80 312 CURVE",
"139 287 LINE",
"117 351 OFFCURVE",
"78 428 OFFCURVE",
"43 428 CURVE SMOOTH",
"1 428 OFFCURVE",
"-61 375 OFFCURVE",
"-61 345 CURVE SMOOTH",
"-61 304 OFFCURVE",
"-8 229 OFFCURVE",
"34 229 CURVE SMOOTH",
"58 229 OFFCURVE",
"98 241 OFFCURVE",
"115 263 CURVE",
"52 243 LINE",
"88 175 OFFCURVE",
"139 104 OFFCURVE",
"205 104 CURVE SMOOTH"
);
}
);
width = 797;
}
);
leftKerningGroup = gjA;
rightMetricsKey = gjmAA;
unicode = 0A9A;
},
{
color = 3;
glyphname = gjCHA;
lastChange = "2015-10-04 13:55:38 +0000";
layers = (
{
anchors = (
{
name = abvm;
position = "{407, 642}";
},
{
name = blwm;
position = "{240, -142}";
},
{
name = blwm.u;
position = "{245, -142}";
}
);
background = {
paths = (
{
closed = 1;
nodes = (
"605 -195 OFFCURVE",
"748 33 OFFCURVE",
"748 125 CURVE SMOOTH",
"748 172 OFFCURVE",
"643 203 OFFCURVE",
"579 281 CURVE",
"640 346 OFFCURVE",
"686 406 OFFCURVE",
"686 444 CURVE SMOOTH",
"686 476 OFFCURVE",
"602 550 OFFCURVE",
"553 550 CURVE SMOOTH",
"517 550 OFFCURVE",
"406 417 OFFCURVE",
"406 378 CURVE SMOOTH",
"406 356 OFFCURVE",
"435 333 OFFCURVE",
"462 310 CURVE",
"404 242 OFFCURVE",
"330 185 OFFCURVE",
"222 134 CURVE",
"191 173 LINE",
"265 221 OFFCURVE",
"336 285 OFFCURVE",
"336 316 CURVE SMOOTH",
"336 347 OFFCURVE",
"274 361 OFFCURVE",
"225 404 CURVE",
"259 440 OFFCURVE",
"328 482 OFFCURVE",
"388 498 CURVE",
"402 554 OFFCURVE",
"370 618 OFFCURVE",
"293 619 CURVE",
"193 595 OFFCURVE",
"53 487 OFFCURVE",
"53 440 CURVE SMOOTH",
"53 404 OFFCURVE",
"111 360 OFFCURVE",
"168 326 CURVE",
"100 276 OFFCURVE",
"-1 232 OFFCURVE",
"-1 193 CURVE SMOOTH",
"-1 118 OFFCURVE",
"140 1 OFFCURVE",
"220 0 CURVE SMOOTH",
"341 -1 OFFCURVE",
"471 130 OFFCURVE",
"529 204 CURVE",
"547 187 OFFCURVE",
"563 175 OFFCURVE",
"584 158 CURVE",
"525 60 OFFCURVE",
"475 9 OFFCURVE",
"332 -63 CURVE",
"327 -132 OFFCURVE",
"384 -195 OFFCURVE",
"464 -195 CURVE SMOOTH"
);
}
);
};
layerId = "AF1B7CCB-9C31-456C-8386-1D362D80AEF6";
name = "Bold Italic";
paths = (
{
closed = 1;
nodes = (
"571 -171 OFFCURVE",
"734 51 OFFCURVE",
"734 146 CURVE SMOOTH",
"734 178 OFFCURVE",
"643 203 OFFCURVE",
"579 281 CURVE",
"640 346 OFFCURVE",
"686 406 OFFCURVE",
"686 444 CURVE SMOOTH",
"686 476 OFFCURVE",
"602 550 OFFCURVE",
"553 550 CURVE SMOOTH",
"517 550 OFFCURVE",
"406 417 OFFCURVE",
"406 378 CURVE SMOOTH",
"406 356 OFFCURVE",
"435 333 OFFCURVE",
"462 310 CURVE",
"404 242 OFFCURVE",
"330 185 OFFCURVE",
"222 134 CURVE",
"191 173 LINE",
"265 221 OFFCURVE",
"336 285 OFFCURVE",
"336 316 CURVE SMOOTH",
"336 347 OFFCURVE",
"274 361 OFFCURVE",
"225 404 CURVE",
"259 440 OFFCURVE",
"328 482 OFFCURVE",
"388 498 CURVE",
"402 554 OFFCURVE",
"370 618 OFFCURVE",
"293 619 CURVE",
"193 595 OFFCURVE",
"53 487 OFFCURVE",
"53 440 CURVE SMOOTH",
"53 404 OFFCURVE",
"111 360 OFFCURVE",
"168 326 CURVE",
"100 276 OFFCURVE",
"-1 232 OFFCURVE",
"-1 193 CURVE SMOOTH",
"-1 118 OFFCURVE",
"140 1 OFFCURVE",
"220 0 CURVE SMOOTH",
"341 -1 OFFCURVE",
"471 130 OFFCURVE",
"529 204 CURVE",
"547 187 OFFCURVE",
"569 170 OFFCURVE",
"584 158 CURVE",
"520 65 OFFCURVE",
"460 6 OFFCURVE",
"323 -47 CURVE",
"315 -107 OFFCURVE",
"350 -171 OFFCURVE",
"440 -171 CURVE SMOOTH"
);
}
);
width = 802;
},
{
associatedMasterId = "AF1B7CCB-9C31-456C-8386-1D362D80AEF6";
background = {
paths = (
{
closed = 1;
nodes = (
"697 318 OFFCURVE",
"769 406 OFFCURVE",
"769 456 CURVE SMOOTH",
"769 490 OFFCURVE",
"650 565 OFFCURVE",
"613 565 CURVE SMOOTH",
"573 565 OFFCURVE",
"482 420 OFFCURVE",
"473 378 CURVE SMOOTH",
"468 355 OFFCURVE",
"496 324 OFFCURVE",
"523 309 CURVE",
"456 242 OFFCURVE",
"374 187 OFFCURVE",
"261 146 CURVE",
"232 173 LINE",
"300 220 OFFCURVE",
"392 304 OFFCURVE",
"392 334 CURVE SMOOTH",
"392 357 OFFCURVE",
"326 380 OFFCURVE",
"281 415 CURVE",
"311 465 OFFCURVE",
"371 495 OFFCURVE",
"394 495 CURVE SMOOTH",
"417 495 OFFCURVE",
"443 480 OFFCURVE",
"467 464 CURVE",
"496 496 LINE",
"464 544 OFFCURVE",
"384 619 OFFCURVE",
"309 619 CURVE SMOOTH",
"232 619 OFFCURVE",
"70 516 OFFCURVE",
"70 456 CURVE SMOOTH",
"70 416 OFFCURVE",
"136 369 OFFCURVE",
"194 334 CURVE",
"149 297 OFFCURVE",
"17 234 OFFCURVE",
"17 181 CURVE SMOOTH",
"17 118 OFFCURVE",
"179 0 OFFCURVE",
"268 0 CURVE SMOOTH",
"382 0 OFFCURVE",
"523 118 OFFCURVE",
"603 208 CURVE",
"619 194 OFFCURVE",
"652 176 OFFCURVE",
"675 162 CURVE",
"613 71 OFFCURVE",
"523 -8 OFFCURVE",
"352 -67 CURVE",
"341 -137 OFFCURVE",
"384 -202 OFFCURVE",
"486 -199 CURVE SMOOTH",
"588 -195 OFFCURVE",
"813 48 OFFCURVE",
"810 139 CURVE SMOOTH",
"808 194 OFFCURVE",
"723 205 OFFCURVE",
"657 264 CURVE"
);
}
);
};
layerId = "FD4D7FC7-9FF4-4578-96B4-CA148FC0730A";
name = "Bold Italic Jul 10 15, 15:23";
paths = (
{
closed = 1;
nodes = (
"703 313 OFFCURVE",
"770 407 OFFCURVE",
"770 457 CURVE SMOOTH",
"770 491 OFFCURVE",
"649 563 OFFCURVE",
"613 565 CURVE SMOOTH",
"573 569 OFFCURVE",
"486 419 OFFCURVE",
"473 378 CURVE SMOOTH",
"466 356 OFFCURVE",
"496 326 OFFCURVE",
"523 311 CURVE",
"455 245 OFFCURVE",
"371 189 OFFCURVE",
"259 145 CURVE",
"237 171 LINE",
"305 218 OFFCURVE",
"392 304 OFFCURVE",
"392 334 CURVE SMOOTH",
"392 357 OFFCURVE",
"326 374 OFFCURVE",
"281 409 CURVE",
"306 441 OFFCURVE",
"369 495 OFFCURVE",
"394 495 CURVE SMOOTH",
"413 495 OFFCURVE",
"432 487 OFFCURVE",
"452 473 CURVE",
"481 505 LINE",
"449 553 OFFCURVE",
"384 619 OFFCURVE",
"309 619 CURVE SMOOTH",
"232 619 OFFCURVE",
"71 518 OFFCURVE",
"71 458 CURVE SMOOTH",
"71 418 OFFCURVE",
"137 371 OFFCURVE",
"195 336 CURVE",
"139 299 OFFCURVE",
"17 231 OFFCURVE",
"17 189 CURVE SMOOTH",
"17 118 OFFCURVE",
"180 -3 OFFCURVE",
"269 -1 CURVE SMOOTH",
"383 2 OFFCURVE",
"529 123 OFFCURVE",
"599 203 CURVE",
"612 189 OFFCURVE",
"643 168 OFFCURVE",
"664 152 CURVE",
"594 67 OFFCURVE",
"524 -3 OFFCURVE",
"354 -66 CURVE",
"345 -136 OFFCURVE",
"394 -200 OFFCURVE",
"486 -200 CURVE SMOOTH",
"618 -200 OFFCURVE",
"805 14 OFFCURVE",
"817 116 CURVE SMOOTH",
"823 168 OFFCURVE",
"725 196 OFFCURVE",
"657 264 CURVE"
);
}
);
width = 862;
},
{
associatedMasterId = "AF1B7CCB-9C31-456C-8386-1D362D80AEF6";
background = {
paths = (
{
closed = 1;
nodes = (
"699 321 OFFCURVE",
"772 403 OFFCURVE",
"774 453 CURVE SMOOTH",
"775 487 OFFCURVE",
"657 563 OFFCURVE",
"621 567 CURVE SMOOTH",
"581 572 OFFCURVE",
"463 429 OFFCURVE",
"462 388 CURVE SMOOTH",
"461 365 OFFCURVE",
"492 335 OFFCURVE",
"520 315 CURVE",
"448 245 OFFCURVE",
"372 189 OFFCURVE",
"260 145 CURVE",
"238 171 LINE",
"306 218 OFFCURVE",
"393 304 OFFCURVE",
"393 334 CURVE SMOOTH",
"393 357 OFFCURVE",
"327 374 OFFCURVE",
"282 409 CURVE",
"307 441 OFFCURVE",
"370 495 OFFCURVE",
"395 495 CURVE SMOOTH",
"414 495 OFFCURVE",
"433 487 OFFCURVE",
"453 473 CURVE",
"482 505 LINE",
"450 553 OFFCURVE",
"385 619 OFFCURVE",
"310 619 CURVE SMOOTH",
"233 619 OFFCURVE",
"72 518 OFFCURVE",
"72 458 CURVE SMOOTH",
"72 418 OFFCURVE",
"138 371 OFFCURVE",
"196 336 CURVE",
"140 299 OFFCURVE",
"18 231 OFFCURVE",
"18 189 CURVE SMOOTH",
"18 118 OFFCURVE",
"181 -3 OFFCURVE",
"270 -1 CURVE SMOOTH",
"381 2 OFFCURVE",
"530 128 OFFCURVE",
"602 205 CURVE",
"616 192 OFFCURVE",
"648 173 OFFCURVE",
"670 158 CURVE",
"605 69 OFFCURVE",
"525 -3 OFFCURVE",
"355 -66 CURVE",
"346 -136 OFFCURVE",
"395 -200 OFFCURVE",
"487 -200 CURVE SMOOTH",
"619 -200 OFFCURVE",
"819 29 OFFCURVE",
"825 131 CURVE SMOOTH",
"828 184 OFFCURVE",
"728 206 OFFCURVE",
"656 269 CURVE"
);
}
);
};
layerId = "68820972-C60A-4BFF-8688-F74EF2850042";
name = "Bold Italic Jul 10 15, 16:56";
paths = (
{
closed = 1;
nodes = (
"714 326 OFFCURVE",
"772 403 OFFCURVE",
"774 453 CURVE SMOOTH",
"775 487 OFFCURVE",
"657 563 OFFCURVE",
"621 567 CURVE SMOOTH",
"581 572 OFFCURVE",
"463 429 OFFCURVE",
"462 388 CURVE SMOOTH",
"461 365 OFFCURVE",
"492 335 OFFCURVE",
"520 315 CURVE",
"448 245 OFFCURVE",
"372 189 OFFCURVE",
"260 145 CURVE",
"238 171 LINE",
"306 218 OFFCURVE",
"393 304 OFFCURVE",
"393 334 CURVE SMOOTH",
"393 357 OFFCURVE",
"327 374 OFFCURVE",
"282 409 CURVE",
"307 441 OFFCURVE",
"370 495 OFFCURVE",
"395 495 CURVE SMOOTH",
"414 495 OFFCURVE",
"433 487 OFFCURVE",
"453 473 CURVE",
"482 505 LINE",
"450 553 OFFCURVE",
"385 619 OFFCURVE",
"310 619 CURVE SMOOTH",
"233 619 OFFCURVE",
"72 518 OFFCURVE",
"72 458 CURVE SMOOTH",
"72 418 OFFCURVE",
"138 371 OFFCURVE",
"196 336 CURVE",
"140 299 OFFCURVE",
"18 231 OFFCURVE",
"18 189 CURVE SMOOTH",
"18 118 OFFCURVE",
"181 -3 OFFCURVE",
"270 -1 CURVE SMOOTH",
"384 2 OFFCURVE",
"544 140 OFFCURVE",
"612 214 CURVE",
"626 200 OFFCURVE",
"649 187 OFFCURVE",
"670 171 CURVE",
"585 64 OFFCURVE",
"502 -3 OFFCURVE",
"355 -66 CURVE",
"349 -119 OFFCURVE",
"397 -200 OFFCURVE",
"487 -200 CURVE SMOOTH",
"619 -200 OFFCURVE",
"822 29 OFFCURVE",
"832 130 CURVE SMOOTH",
"837 183 OFFCURVE",
"738 209 OFFCURVE",
"669 275 CURVE"
);
}
);
width = 879;
},
{
associatedMasterId = "AF1B7CCB-9C31-456C-8386-1D362D80AEF6";
background = {
paths = (
{
closed = 1;
nodes = (
"714 326 OFFCURVE",
"772 403 OFFCURVE",
"774 453 CURVE SMOOTH",
"775 487 OFFCURVE",
"657 563 OFFCURVE",
"621 567 CURVE SMOOTH",
"581 572 OFFCURVE",
"463 429 OFFCURVE",
"462 388 CURVE SMOOTH",
"461 365 OFFCURVE",
"492 335 OFFCURVE",
"520 315 CURVE",
"448 245 OFFCURVE",
"372 189 OFFCURVE",
"260 145 CURVE",
"238 171 LINE",
"306 218 OFFCURVE",
"393 304 OFFCURVE",
"393 334 CURVE SMOOTH",
"393 357 OFFCURVE",
"327 374 OFFCURVE",
"282 409 CURVE",
"307 441 OFFCURVE",
"370 495 OFFCURVE",
"395 495 CURVE SMOOTH",
"414 495 OFFCURVE",
"433 487 OFFCURVE",
"453 473 CURVE",
"482 505 LINE",
"450 553 OFFCURVE",
"385 619 OFFCURVE",
"310 619 CURVE SMOOTH",
"233 619 OFFCURVE",
"72 518 OFFCURVE",
"72 458 CURVE SMOOTH",
"72 418 OFFCURVE",
"138 371 OFFCURVE",
"196 336 CURVE",
"140 299 OFFCURVE",
"18 231 OFFCURVE",
"18 189 CURVE SMOOTH",
"18 118 OFFCURVE",
"181 -3 OFFCURVE",
"270 -1 CURVE SMOOTH",
"384 2 OFFCURVE",
"544 140 OFFCURVE",
"612 214 CURVE",
"626 200 OFFCURVE",
"649 187 OFFCURVE",
"670 171 CURVE",
"585 64 OFFCURVE",
"502 -3 OFFCURVE",
"355 -66 CURVE",
"349 -119 OFFCURVE",
"397 -200 OFFCURVE",
"487 -200 CURVE SMOOTH",
"619 -200 OFFCURVE",
"822 29 OFFCURVE",
"832 130 CURVE SMOOTH",
"837 183 OFFCURVE",
"738 209 OFFCURVE",
"669 275 CURVE"
);
}
);
};
layerId = "B3C84571-1F4B-43D7-A2D0-A0F80B4F1C6A";
name = "Bold Italic Jul 10 15, 21:42";
paths = (
{
closed = 1;
nodes = (
"696 302 OFFCURVE",
"754 379 OFFCURVE",
"756 429 CURVE SMOOTH",
"757 463 OFFCURVE",
"639 539 OFFCURVE",
"603 543 CURVE SMOOTH",
"563 548 OFFCURVE",
"445 405 OFFCURVE",
"444 364 CURVE SMOOTH",
"443 341 OFFCURVE",
"474 311 OFFCURVE",
"502 291 CURVE",
"430 221 OFFCURVE",
"372 189 OFFCURVE",
"260 145 CURVE",
"238 171 LINE",
"306 218 OFFCURVE",
"393 304 OFFCURVE",
"393 334 CURVE SMOOTH",
"393 357 OFFCURVE",
"328 371 OFFCURVE",
"285 409 CURVE",
"319 447 OFFCURVE",
"381 494 OFFCURVE",
"403 494 CURVE SMOOTH",
"420 494 OFFCURVE",
"436 487 OFFCURVE",
"454 477 CURVE",
"472 486 OFFCURVE",
"481 497 OFFCURVE",
"483 509 CURVE",
"453 553 OFFCURVE",
"374 619 OFFCURVE",
"301 619 CURVE SMOOTH",
"220 619 OFFCURVE",
"79 505 OFFCURVE",
"79 459 CURVE SMOOTH",
"79 419 OFFCURVE",
"138 367 OFFCURVE",
"196 336 CURVE",
"140 299 OFFCURVE",
"18 231 OFFCURVE",
"18 189 CURVE SMOOTH",
"18 118 OFFCURVE",
"181 -3 OFFCURVE",
"270 -1 CURVE SMOOTH",
"384 2 OFFCURVE",
"526 116 OFFCURVE",
"594 190 CURVE",
"608 176 OFFCURVE",
"631 163 OFFCURVE",
"652 147 CURVE",
"567 40 OFFCURVE",
"502 -3 OFFCURVE",
"355 -66 CURVE",
"349 -119 OFFCURVE",
"397 -200 OFFCURVE",
"487 -200 CURVE SMOOTH",
"619 -200 OFFCURVE",
"822 29 OFFCURVE",
"832 130 CURVE SMOOTH",
"837 183 OFFCURVE",
"720 185 OFFCURVE",
"651 251 CURVE"
);
}
);
width = 874;
},
{
associatedMasterId = "AF1B7CCB-9C31-456C-8386-1D362D80AEF6";
background = {
paths = (
{
closed = 1;
nodes = (
"603 -200 OFFCURVE",
"804 26 OFFCURVE",
"814 130 CURVE SMOOTH",
"819 183 OFFCURVE",
"705 185 OFFCURVE",
"636 251 CURVE",
"695 319 OFFCURVE",
"736 386 OFFCURVE",
"738 429 CURVE SMOOTH",
"739 466 OFFCURVE",
"624 543 OFFCURVE",
"593 543 CURVE SMOOTH",
"563 543 OFFCURVE",
"445 407 OFFCURVE",
"444 364 CURVE SMOOTH",
"443 338 OFFCURVE",
"474 308 OFFCURVE",
"498 291 CURVE",
"433 227 OFFCURVE",
"378 194 OFFCURVE",
"248 141 CURVE",
"224 171 LINE",
"288 215 OFFCURVE",
"375 301 OFFCURVE",
"375 334 CURVE SMOOTH",
"375 359 OFFCURVE",
"312 372 OFFCURVE",
"270 409 CURVE",
"308 453 OFFCURVE",
"369 494 OFFCURVE",
"394 494 CURVE SMOOTH",
"413 494 OFFCURVE",
"428 486 OFFCURVE",
"445 477 CURVE",
"461 485 OFFCURVE",
"472 496 OFFCURVE",
"474 509 CURVE",
"432 570 OFFCURVE",
"351 619 OFFCURVE",
"292 619 CURVE SMOOTH",
"221 619 OFFCURVE",
"79 511 OFFCURVE",
"79 459 CURVE SMOOTH",
"79 416 OFFCURVE",
"138 365 OFFCURVE",
"191 336 CURVE",
"120 288 OFFCURVE",
"18 222 OFFCURVE",
"18 189 CURVE SMOOTH",
"18 115 OFFCURVE",
"177 -3 OFFCURVE",
"261 -1 CURVE SMOOTH",
"369 2 OFFCURVE",
"508 113 OFFCURVE",
"578 190 CURVE",
"602 174 OFFCURVE",
"626 159 OFFCURVE",
"650 147 CURVE",
"567 43 OFFCURVE",
"501 -1 OFFCURVE",
"350 -66 CURVE",
"349 -130 OFFCURVE",
"407 -200 OFFCURVE",
"478 -200 CURVE SMOOTH"
);
}
);
};
layerId = "84FFA83A-3CCC-4F70-BA47-C43162358CCF";
name = "Bold Italic Jul 13 15, 18:23";
paths = (
{
closed = 1;
nodes = (
"603 -200 OFFCURVE",
"812 29 OFFCURVE",
"812 133 CURVE SMOOTH",
"812 186 OFFCURVE",
"702 186 OFFCURVE",
"633 252 CURVE",
"691 320 OFFCURVE",
"733 388 OFFCURVE",
"733 431 CURVE SMOOTH",
"733 467 OFFCURVE",
"617 543 OFFCURVE",
"586 543 CURVE SMOOTH",
"556 543 OFFCURVE",
"439 406 OFFCURVE",
"439 362 CURVE SMOOTH",
"439 337 OFFCURVE",
"470 307 OFFCURVE",
"495 290 CURVE",
"430 225 OFFCURVE",
"378 194 OFFCURVE",
"248 141 CURVE",
"224 171 LINE",
"288 215 OFFCURVE",
"375 301 OFFCURVE",
"375 334 CURVE SMOOTH",
"375 359 OFFCURVE",
"312 372 OFFCURVE",
"270 409 CURVE",
"308 453 OFFCURVE",
"369 494 OFFCURVE",
"394 494 CURVE SMOOTH",
"413 494 OFFCURVE",
"428 486 OFFCURVE",
"445 477 CURVE",
"461 485 OFFCURVE",
"472 496 OFFCURVE",
"474 509 CURVE",
"432 570 OFFCURVE",
"351 619 OFFCURVE",
"292 619 CURVE SMOOTH",
"221 619 OFFCURVE",
"79 511 OFFCURVE",
"79 459 CURVE SMOOTH",
"79 416 OFFCURVE",
"138 365 OFFCURVE",
"191 336 CURVE",
"120 288 OFFCURVE",
"18 222 OFFCURVE",
"18 189 CURVE SMOOTH",
"18 115 OFFCURVE",
"167 -1 OFFCURVE",
"261 -1 CURVE SMOOTH",
"369 -1 OFFCURVE",
"506 112 OFFCURVE",
"576 190 CURVE",
"600 174 OFFCURVE",
"624 159 OFFCURVE",
"648 148 CURVE",
"567 43 OFFCURVE",
"500 -2 OFFCURVE",
"350 -69 CURVE",
"350 -133 OFFCURVE",
"399 -202 OFFCURVE",
"480 -201 CURVE SMOOTH"
);
}
);
width = 875;
},
{
associatedMasterId = "AF1B7CCB-9C31-456C-8386-1D362D80AEF6";
background = {
paths = (
{
closed = 1;
nodes = (
"563 -200 OFFCURVE",
"772 29 OFFCURVE",
"772 133 CURVE SMOOTH",
"772 186 OFFCURVE",
"662 186 OFFCURVE",
"593 252 CURVE",
"651 320 OFFCURVE",
"693 388 OFFCURVE",
"693 431 CURVE SMOOTH",
"693 467 OFFCURVE",
"577 543 OFFCURVE",
"546 543 CURVE SMOOTH",
"516 543 OFFCURVE",
"399 406 OFFCURVE",
"399 362 CURVE SMOOTH",
"399 337 OFFCURVE",
"430 307 OFFCURVE",
"455 290 CURVE",
"390 225 OFFCURVE",
"338 194 OFFCURVE",
"208 141 CURVE",
"184 171 LINE",
"248 215 OFFCURVE",
"335 301 OFFCURVE",
"335 334 CURVE SMOOTH",
"335 359 OFFCURVE",
"266 376 OFFCURVE",
"214 417 CURVE",
"252 466 OFFCURVE",
"310 489 OFFCURVE",
"363 493 CURVE",
"378 543 OFFCURVE",
"371 608 OFFCURVE",
"280 619 CURVE",
"180 615 OFFCURVE",
"39 502 OFFCURVE",
"39 454 CURVE SMOOTH",
"39 416 OFFCURVE",
"98 365 OFFCURVE",
"151 336 CURVE",
"80 288 OFFCURVE",
"-22 222 OFFCURVE",
"-22 189 CURVE SMOOTH",
"-22 115 OFFCURVE",
"127 -1 OFFCURVE",
"221 -1 CURVE SMOOTH",
"329 -1 OFFCURVE",
"466 112 OFFCURVE",
"536 190 CURVE",
"560 174 OFFCURVE",
"584 159 OFFCURVE",
"608 148 CURVE",
"527 43 OFFCURVE",
"460 -2 OFFCURVE",
"310 -69 CURVE",
"310 -133 OFFCURVE",
"359 -202 OFFCURVE",
"440 -201 CURVE SMOOTH"
);
}
);
};
layerId = "64FBD64F-BF26-4A92-92DE-B953EE291D8C";
name = "Bold Italic Jul 27 15, 21:00";
paths = (
{
closed = 1;
nodes = (
"583 -200 OFFCURVE",
"765 28 OFFCURVE",
"765 122 CURVE SMOOTH",
"765 175 OFFCURVE",
"654 195 OFFCURVE",
"590 266 CURVE",
"653 330 OFFCURVE",
"707 400 OFFCURVE",
"707 443 CURVE SMOOTH",
"707 479 OFFCURVE",
"604 553 OFFCURVE",
"573 555 CURVE SMOOTH",
"543 557 OFFCURVE",
"413 426 OFFCURVE",
"413 386 CURVE SMOOTH",
"413 361 OFFCURVE",
"444 319 OFFCURVE",
"469 302 CURVE",
"404 237 OFFCURVE",
"358 194 OFFCURVE",
"228 141 CURVE",
"204 171 LINE",
"279 219 OFFCURVE",
"356 293 OFFCURVE",
"356 324 CURVE SMOOTH",
"356 355 OFFCURVE",
"282 361 OFFCURVE",
"232 404 CURVE",
"269 449 OFFCURVE",
"335 481 OFFCURVE",
"394 490 CURVE",
"411 539 OFFCURVE",
"400 606 OFFCURVE",
"322 619 CURVE",
"216 619 OFFCURVE",
"57 493 OFFCURVE",
"58 445 CURVE SMOOTH",
"59 406 OFFCURVE",
"117 360 OFFCURVE",
"175 326 CURVE",
"105 276 OFFCURVE",
"-2 222 OFFCURVE",
"-2 189 CURVE SMOOTH",
"-2 115 OFFCURVE",
"147 -1 OFFCURVE",
"241 -1 CURVE SMOOTH",
"349 -1 OFFCURVE",
"459 124 OFFCURVE",
"535 197 CURVE",
"557 179 OFFCURVE",
"580 162 OFFCURVE",
"603 149 CURVE",
"541 51 OFFCURVE",
"480 -2 OFFCURVE",
"330 -69 CURVE",
"330 -133 OFFCURVE",
"379 -202 OFFCURVE",
"460 -201 CURVE SMOOTH"
);
}
);
width = 810;
}
);
leftKerningGroup = gjCHA;
rightKerningGroup = gjCHA;
unicode = 0A9B;
},
{
color = 3;
glyphname = gjJA;
lastChange = "2015-10-15 16:46:57 +0000";
layers = (
{
anchors = (
{
name = abvm;
position = "{296, 642}";
},
{
name = blwm;
position = "{220, -52}";
},
{
name = blwm.u;
position = "{330, -52}";
}
);
background = {
paths = (
{
closed = 1;
nodes = (
"339 0 OFFCURVE",
"538 107 OFFCURVE",
"538 186 CURVE SMOOTH",
"538 239 OFFCURVE",
"451 312 OFFCURVE",
"341 358 CURVE",
"299 321 LINE",
"344 281 OFFCURVE",
"373 252 OFFCURVE",
"396 202 CURVE",
"367 159 OFFCURVE",
"291 122 OFFCURVE",
"221 107 CURVE",
"325 249 OFFCURVE",
"392 353 OFFCURVE",
"595 470 CURVE",
"603 553 OFFCURVE",
"566 592 OFFCURVE",
"481 607 CURVE",
"320 464 OFFCURVE",
"79 202 OFFCURVE",
"79 137 CURVE SMOOTH",
"79 100 OFFCURVE",
"161 0 OFFCURVE",
"207 0 CURVE SMOOTH"
);
},
{
closed = 1;
nodes = (
"125 505 OFFCURVE",
"152 505 CURVE SMOOTH",
"231 505 OFFCURVE",
"318 443 OFFCURVE",
"371 370 CURVE",
"423 409 LINE",
"357 534 OFFCURVE",
"268 619 OFFCURVE",
"167 619 CURVE SMOOTH",
"53 619 OFFCURVE",
"-50 509 OFFCURVE",
"-50 452 CURVE SMOOTH",
"-50 370 OFFCURVE",
"24 295 OFFCURVE",
"67 295 CURVE SMOOTH",
"158 295 OFFCURVE",
"245 418 OFFCURVE",
"270 511 CURVE",
"198 536 LINE",
"186 493 OFFCURVE",
"147 431 OFFCURVE",
"109 406 CURVE",
"94 418 OFFCURVE",
"74 452 OFFCURVE",
"76 482 CURVE",
"100 498 OFFCURVE"
);
}
);
};
layerId = "AF1B7CCB-9C31-456C-8386-1D362D80AEF6";
name = "Bold Italic";
paths = (
{
closed = 1;
nodes = (
"320 0 OFFCURVE",
"531 101 OFFCURVE",
"531 177 CURVE SMOOTH",
"531 250 OFFCURVE",
"428 319 OFFCURVE",
"337 361 CURVE",
"291 319 LINE",
"340 273 OFFCURVE",
"368 246 OFFCURVE",
"387 198 CURVE",
"349 158 OFFCURVE",
"275 121 OFFCURVE",
"208 107 CURVE",
"312 249 OFFCURVE",
"392 353 OFFCURVE",
"595 470 CURVE",
"603 553 OFFCURVE",
"566 592 OFFCURVE",
"481 607 CURVE",
"320 464 OFFCURVE",
"66 202 OFFCURVE",
"66 137 CURVE SMOOTH",
"66 100 OFFCURVE",
"148 0 OFFCURVE",
"194 0 CURVE SMOOTH"
);
},
{
closed = 1;
nodes = (
"125 507 OFFCURVE",
"157 507 CURVE SMOOTH",
"224 507 OFFCURVE",
"313 436 OFFCURVE",
"366 363 CURVE",
"429 404 LINE",
"374 514 OFFCURVE",
"277 619 OFFCURVE",
"167 619 CURVE SMOOTH",
"52 619 OFFCURVE",
"-53 512 OFFCURVE",
"-53 452 CURVE SMOOTH",
"-53 370 OFFCURVE",
"24 295 OFFCURVE",
"67 295 CURVE SMOOTH",
"158 295 OFFCURVE",
"245 418 OFFCURVE",
"270 511 CURVE",
"196 541 LINE",
"184 498 OFFCURVE",
"145 436 OFFCURVE",
"107 411 CURVE",
"92 423 OFFCURVE",
"74 452 OFFCURVE",
"76 482 CURVE",
"100 498 OFFCURVE"
);
}
);
width = 616;
},
{
associatedMasterId = "AF1B7CCB-9C31-456C-8386-1D362D80AEF6";
background = {
paths = (
{
closed = 1;
nodes = (
"325 0 OFFCURVE",
"517 91 OFFCURVE",
"517 168 CURVE SMOOTH",
"517 221 OFFCURVE",
"433 300 OFFCURVE",
"323 346 CURVE",
"281 309 LINE",
"326 269 OFFCURVE",
"352 234 OFFCURVE",
"373 190 CURVE",
"346 154 OFFCURVE",
"286 116 OFFCURVE",
"213 108 CURVE",
"326 256 OFFCURVE",
"387 347 OFFCURVE",
"582 460 CURVE",
"590 543 OFFCURVE",
"553 582 OFFCURVE",
"468 597 CURVE",
"305 460 OFFCURVE",
"70 205 OFFCURVE",
"70 137 CURVE SMOOTH",
"70 100 OFFCURVE",
"152 0 OFFCURVE",
"198 0 CURVE SMOOTH"
);
},
{
closed = 1;
nodes = (
"209 504 OFFCURVE",
"297 449 OFFCURVE",
"355 370 CURVE",
"407 409 LINE",
"341 534 OFFCURVE",
"252 619 OFFCURVE",
"151 619 CURVE SMOOTH",
"40 619 OFFCURVE",
"-63 528 OFFCURVE",
"-66 418 CURVE SMOOTH",
"-67 370 OFFCURVE",
"-12 291 OFFCURVE",
"47 291 CURVE SMOOTH",
"152 291 OFFCURVE",
"237 421 OFFCURVE",
"262 507 CURVE",
"190 532 LINE",
"178 489 OFFCURVE",
"136 434 OFFCURVE",
"98 409 CURVE",
"83 421 OFFCURVE",
"69 455 OFFCURVE",
"70 479 CURVE",
"92 497 OFFCURVE",
"104 504 OFFCURVE",
"138 504 CURVE SMOOTH"
);
}
);
};
layerId = "18E17738-DAB3-445E-B9AB-E7A8EC660E4D";
name = "Bold Italic Jul 27 15, 20:52";
paths = (
{
closed = 1;
nodes = (
"328 0 OFFCURVE",
"536 110 OFFCURVE",
"536 187 CURVE SMOOTH",
"536 240 OFFCURVE",
"448 319 OFFCURVE",
"333 365 CURVE",
"289 328 LINE",
"336 288 OFFCURVE",
"363 253 OFFCURVE",
"385 209 CURVE",
"357 173 OFFCURVE",
"287 116 OFFCURVE",
"211 108 CURVE",
"329 256 OFFCURVE",
"392 357 OFFCURVE",
"596 470 CURVE",
"604 553 OFFCURVE",
"565 592 OFFCURVE",
"476 607 CURVE",
"306 470 OFFCURVE",
"61 205 OFFCURVE",
"61 137 CURVE SMOOTH",
"61 100 OFFCURVE",
"147 0 OFFCURVE",
"195 0 CURVE SMOOTH"
);
},
{
closed = 1;
nodes = (
"211 504 OFFCURVE",
"303 449 OFFCURVE",
"363 370 CURVE",
"418 409 LINE",
"349 534 OFFCURVE",
"256 619 OFFCURVE",
"150 619 CURVE SMOOTH",
"34 619 OFFCURVE",
"-77 528 OFFCURVE",
"-77 418 CURVE SMOOTH",
"-77 370 OFFCURVE",
"-20 291 OFFCURVE",
"41 291 CURVE SMOOTH",
"151 291 OFFCURVE",
"240 421 OFFCURVE",
"266 507 CURVE",
"191 532 LINE",
"178 489 OFFCURVE",
"134 434 OFFCURVE",
"95 409 CURVE",
"79 421 OFFCURVE",
"64 455 OFFCURVE",
"64 482 CURVE",
"84 496 OFFCURVE",
"104 504 OFFCURVE",
"136 504 CURVE SMOOTH"
);
}
);
width = 591;
},
{
associatedMasterId = "AF1B7CCB-9C31-456C-8386-1D362D80AEF6";
background = {
paths = (
{
closed = 1;
nodes = (
"326 0 OFFCURVE",
"534 110 OFFCURVE",
"534 187 CURVE SMOOTH",
"534 240 OFFCURVE",
"446 319 OFFCURVE",
"331 365 CURVE",
"287 328 LINE",
"334 288 OFFCURVE",
"361 253 OFFCURVE",
"383 209 CURVE",
"355 173 OFFCURVE",
"285 116 OFFCURVE",
"209 108 CURVE",
"327 256 OFFCURVE",
"390 357 OFFCURVE",
"594 470 CURVE",
"602 553 OFFCURVE",
"563 592 OFFCURVE",
"474 607 CURVE",
"304 470 OFFCURVE",
"59 205 OFFCURVE",
"59 137 CURVE SMOOTH",
"59 100 OFFCURVE",
"145 0 OFFCURVE",
"193 0 CURVE SMOOTH"
);
},
{
closed = 1;
nodes = (
"209 504 OFFCURVE",
"301 449 OFFCURVE",
"361 370 CURVE",
"416 409 LINE",
"347 534 OFFCURVE",
"254 619 OFFCURVE",
"148 619 CURVE SMOOTH",
"32 619 OFFCURVE",
"-79 528 OFFCURVE",
"-79 418 CURVE SMOOTH",
"-79 370 OFFCURVE",
"-22 291 OFFCURVE",
"39 291 CURVE SMOOTH",
"149 291 OFFCURVE",
"238 421 OFFCURVE",
"264 507 CURVE",
"189 532 LINE",
"176 489 OFFCURVE",
"132 434 OFFCURVE",
"93 409 CURVE",
"77 421 OFFCURVE",
"62 455 OFFCURVE",
"62 482 CURVE",
"82 496 OFFCURVE",
"102 504 OFFCURVE",
"134 504 CURVE SMOOTH"
);
}
);
};
layerId = "22032FDB-6922-4DE3-A493-628CDAAB43A7";
name = "Bold Italic Aug 20 15, 01:31";
paths = (
{
closed = 1;
nodes = (
"327 0 OFFCURVE",
"526 107 OFFCURVE",
"526 186 CURVE SMOOTH",
"526 239 OFFCURVE",
"439 312 OFFCURVE",
"329 358 CURVE",
"287 321 LINE",
"332 281 OFFCURVE",
"361 252 OFFCURVE",
"384 202 CURVE",
"355 159 OFFCURVE",
"279 122 OFFCURVE",
"209 107 CURVE",
"313 249 OFFCURVE",
"380 353 OFFCURVE",
"583 470 CURVE",
"591 553 OFFCURVE",
"554 592 OFFCURVE",
"469 607 CURVE",
"308 464 OFFCURVE",
"67 202 OFFCURVE",
"67 137 CURVE SMOOTH",
"67 100 OFFCURVE",
"149 0 OFFCURVE",
"195 0 CURVE SMOOTH"
);
},
{
closed = 1;
nodes = (
"113 505 OFFCURVE",
"140 505 CURVE SMOOTH",
"219 505 OFFCURVE",
"306 443 OFFCURVE",
"359 370 CURVE",
"411 409 LINE",
"345 534 OFFCURVE",
"256 619 OFFCURVE",
"155 619 CURVE SMOOTH",
"41 619 OFFCURVE",
"-62 509 OFFCURVE",
"-62 452 CURVE SMOOTH",
"-62 370 OFFCURVE",
"12 295 OFFCURVE",
"55 295 CURVE SMOOTH",
"146 295 OFFCURVE",
"233 418 OFFCURVE",
"258 511 CURVE",
"186 536 LINE",
"174 493 OFFCURVE",
"135 431 OFFCURVE",
"97 406 CURVE",
"82 418 OFFCURVE",
"62 452 OFFCURVE",
"64 482 CURVE",
"88 498 OFFCURVE"
);
}
);
width = 588;
}
);
leftKerningGroup = gjJA;
rightKerningGroup = gjJA;
unicode = 0A9C;
},
{
color = 3;
glyphname = gjJHA;
lastChange = "2015-10-15 16:47:03 +0000";
layers = (
{
anchors = (
{
name = abvm;
position = "{339, 642}";
},
{
name = blwm;
position = "{220, -52}";
},
{
name = blwm.u;
position = "{337, -52}";
}
);
background = {
paths = (
{
closed = 1;
nodes = (
"425 525 OFFCURVE",
"315 619 OFFCURVE",
"218 619 CURVE SMOOTH",
"110 619 OFFCURVE",
"20 571 OFFCURVE",
"20 510 CURVE SMOOTH",
"20 480 OFFCURVE",
"38 446 OFFCURVE",
"84 413 CURVE",
"137 448 OFFCURVE",
"176 467 OFFCURVE",
"247 483 CURVE",
"254 399 OFFCURVE",
"201 314 OFFCURVE",
"111 274 CURVE",
"100 305 OFFCURVE",
"95 331 OFFCURVE",
"94 359 CURVE",
"13 388 OFFCURVE",
"-44 351 OFFCURVE",
"-44 298 CURVE SMOOTH",
"-44 247 OFFCURVE",
"54 185 OFFCURVE",
"124 185 CURVE SMOOTH",
"213 185 OFFCURVE",
"283 220 OFFCURVE",
"327 278 CURVE",
"349 294 OFFCURVE",
"386 307 OFFCURVE",
"412 305 CURVE",
"426 230 OFFCURVE",
"380 137 OFFCURVE",
"293 89 CURVE",
"315 85 LINE",
"300 104 OFFCURVE",
"287 129 OFFCURVE",
"275 161 CURVE",
"196 169 OFFCURVE",
"132 130 OFFCURVE",
"132 87 CURVE SMOOTH",
"132 42 OFFCURVE",
"215 0 OFFCURVE",
"299 0 CURVE SMOOTH",
"450 0 OFFCURVE",
"602 132 OFFCURVE",
"602 244 CURVE SMOOTH",
"602 299 OFFCURVE",
"559 355 OFFCURVE",
"465 362 CURVE",
"583 392 OFFCURVE",
"654 479 OFFCURVE",
"654 538 CURVE SMOOTH",
"654 604 OFFCURVE",
"565 642 OFFCURVE",
"483 601 CURVE",
"468 530 OFFCURVE",
"440 466 OFFCURVE",
"370 403 CURVE"
);
}
);
};
layerId = "AF1B7CCB-9C31-456C-8386-1D362D80AEF6";
name = "Bold Italic";
paths = (
{
closed = 1;
nodes = (
"425 525 OFFCURVE",
"315 619 OFFCURVE",
"218 619 CURVE SMOOTH",
"110 619 OFFCURVE",
"20 571 OFFCURVE",
"20 510 CURVE SMOOTH",
"20 480 OFFCURVE",
"38 446 OFFCURVE",
"84 413 CURVE",
"137 448 OFFCURVE",
"176 467 OFFCURVE",
"247 483 CURVE",
"254 399 OFFCURVE",
"201 314 OFFCURVE",
"111 274 CURVE",
"100 305 OFFCURVE",
"95 331 OFFCURVE",
"94 359 CURVE",
"13 388 OFFCURVE",
"-44 351 OFFCURVE",
"-44 298 CURVE SMOOTH",
"-44 247 OFFCURVE",
"54 185 OFFCURVE",
"124 185 CURVE SMOOTH",
"213 185 OFFCURVE",
"283 220 OFFCURVE",
"327 278 CURVE",
"349 294 OFFCURVE",
"386 307 OFFCURVE",
"412 305 CURVE",
"426 230 OFFCURVE",
"380 137 OFFCURVE",
"293 89 CURVE",
"315 85 LINE",
"300 104 OFFCURVE",
"287 129 OFFCURVE",
"275 161 CURVE",
"196 169 OFFCURVE",
"132 130 OFFCURVE",
"132 87 CURVE SMOOTH",
"132 42 OFFCURVE",
"215 0 OFFCURVE",
"299 0 CURVE SMOOTH",
"450 0 OFFCURVE",
"602 132 OFFCURVE",
"602 244 CURVE SMOOTH",
"602 299 OFFCURVE",
"559 355 OFFCURVE",
"465 362 CURVE",
"571 392 OFFCURVE",
"657 466 OFFCURVE",
"657 525 CURVE SMOOTH",
"657 591 OFFCURVE",
"568 629 OFFCURVE",
"486 588 CURVE",
"466 520 OFFCURVE",
"435 469 OFFCURVE",
"370 403 CURVE"
);
}
);
width = 680;
},
{
associatedMasterId = "AF1B7CCB-9C31-456C-8386-1D362D80AEF6";
background = {
paths = (
{
closed = 1;
nodes = (
"688 604 OFFCURVE",
"625 638 OFFCURVE",
"539 614 CURVE",
"503 523 OFFCURVE",
"463 470 OFFCURVE",
"390 421 CURVE",
"423 547 OFFCURVE",
"305 619 OFFCURVE",
"226 619 CURVE SMOOTH",
"146 619 OFFCURVE",
"29 581 OFFCURVE",
"29 519 CURVE SMOOTH",
"29 470 OFFCURVE",
"56 436 OFFCURVE",
"102 407 CURVE",
"155 444 OFFCURVE",
"195 463 OFFCURVE",
"252 478 CURVE",
"262 391 OFFCURVE",
"208 320 OFFCURVE",
"124 275 CURVE",
"129 295 OFFCURVE",
"133 308 OFFCURVE",
"140 323 CURVE",
"103 363 OFFCURVE",
"33 374 OFFCURVE",
"-22 356 CURVE",
"-33 338 OFFCURVE",
"-37 321 OFFCURVE",
"-37 298 CURVE SMOOTH",
"-37 252 OFFCURVE",
"65 185 OFFCURVE",
"129 185 CURVE SMOOTH",
"220 185 OFFCURVE",
"292 220 OFFCURVE",
"337 278 CURVE",
"373 292 OFFCURVE",
"414 302 OFFCURVE",
"448 295 CURVE",
"463 212 OFFCURVE",
"398 136 OFFCURVE",
"312 89 CURVE",
"290 111 OFFCURVE",
"273 133 OFFCURVE",
"259 161 CURVE",
"194 153 OFFCURVE",
"157 121 OFFCURVE",
"157 87 CURVE SMOOTH",
"157 42 OFFCURVE",
"230 0 OFFCURVE",
"314 0 CURVE SMOOTH",
"472 0 OFFCURVE",
"603 133 OFFCURVE",
"603 255 CURVE SMOOTH",
"603 300 OFFCURVE",
"563 347 OFFCURVE",
"503 368 CURVE",
"615 419 OFFCURVE",
"688 498 OFFCURVE",
"688 550 CURVE SMOOTH"
);
}
);
};
layerId = "695BC90D-FEB5-46FC-BAA9-23EA4CFE79E8";
name = "Bold Italic Jul 27 15, 22:16";
paths = (
{
closed = 1;
nodes = (
"423 547 OFFCURVE",
"305 619 OFFCURVE",
"226 619 CURVE SMOOTH",
"146 619 OFFCURVE",
"29 581 OFFCURVE",
"29 519 CURVE SMOOTH",
"29 470 OFFCURVE",
"56 436 OFFCURVE",
"102 407 CURVE",
"155 444 OFFCURVE",
"195 463 OFFCURVE",
"252 478 CURVE",
"262 391 OFFCURVE",
"208 320 OFFCURVE",
"124 275 CURVE",
"129 295 OFFCURVE",
"133 308 OFFCURVE",
"140 323 CURVE",
"103 363 OFFCURVE",
"33 374 OFFCURVE",
"-22 356 CURVE",
"-33 338 OFFCURVE",
"-37 321 OFFCURVE",
"-37 298 CURVE SMOOTH",
"-37 252 OFFCURVE",
"65 185 OFFCURVE",
"129 185 CURVE SMOOTH",
"220 185 OFFCURVE",
"292 220 OFFCURVE",
"337 278 CURVE",
"366 291 OFFCURVE",
"405 299 OFFCURVE",
"428 295 CURVE",
"442 220 OFFCURVE",
"391 137 OFFCURVE",
"302 89 CURVE",
"326 89 LINE",
"308 107 OFFCURVE",
"292 130 OFFCURVE",
"277 161 CURVE",
"195 161 OFFCURVE",
"137 130 OFFCURVE",
"137 87 CURVE SMOOTH",
"137 42 OFFCURVE",
"222 0 OFFCURVE",
"314 0 CURVE SMOOTH",
"479 0 OFFCURVE",
"623 139 OFFCURVE",
"623 244 CURVE SMOOTH",
"623 299 OFFCURVE",
"577 344 OFFCURVE",
"493 351 CURVE",
"626 397 OFFCURVE",
"708 494 OFFCURVE",
"708 545 CURVE SMOOTH",
"708 609 OFFCURVE",
"637 643 OFFCURVE",
"520 614 CURVE",
"482 518 OFFCURVE",
"443 464 OFFCURVE",
"379 421 CURVE",
"390 421 LINE"
);
}
);
width = 671;
},
{
associatedMasterId = "AF1B7CCB-9C31-456C-8386-1D362D80AEF6";
background = {
paths = (
{
closed = 1;
nodes = (
"428 547 OFFCURVE",
"310 619 OFFCURVE",
"231 619 CURVE SMOOTH",
"151 619 OFFCURVE",
"34 581 OFFCURVE",
"34 519 CURVE SMOOTH",
"34 470 OFFCURVE",
"61 436 OFFCURVE",
"107 407 CURVE",
"160 444 OFFCURVE",
"200 463 OFFCURVE",
"257 478 CURVE",
"267 391 OFFCURVE",
"213 320 OFFCURVE",
"129 275 CURVE",
"134 295 OFFCURVE",
"138 308 OFFCURVE",
"145 323 CURVE",
"108 363 OFFCURVE",
"38 374 OFFCURVE",
"-17 356 CURVE",
"-28 338 OFFCURVE",
"-32 321 OFFCURVE",
"-32 298 CURVE SMOOTH",
"-32 252 OFFCURVE",
"70 185 OFFCURVE",
"134 185 CURVE SMOOTH",
"225 185 OFFCURVE",
"297 220 OFFCURVE",
"342 278 CURVE",
"371 291 OFFCURVE",
"410 299 OFFCURVE",
"433 295 CURVE",
"447 220 OFFCURVE",
"396 137 OFFCURVE",
"307 89 CURVE",
"331 89 LINE",
"313 107 OFFCURVE",
"297 130 OFFCURVE",
"282 161 CURVE",
"200 161 OFFCURVE",
"142 130 OFFCURVE",
"142 87 CURVE SMOOTH",
"142 42 OFFCURVE",
"227 0 OFFCURVE",
"319 0 CURVE SMOOTH",
"484 0 OFFCURVE",
"628 139 OFFCURVE",
"628 244 CURVE SMOOTH",
"628 299 OFFCURVE",
"582 344 OFFCURVE",
"498 351 CURVE",
"631 397 OFFCURVE",
"713 494 OFFCURVE",
"713 545 CURVE SMOOTH",
"713 609 OFFCURVE",
"642 643 OFFCURVE",
"525 614 CURVE",
"487 518 OFFCURVE",
"448 464 OFFCURVE",
"384 421 CURVE",
"395 421 LINE"
);
}
);
};
layerId = "AF25E785-A56F-465C-8AB4-2562F01E5EC9";
name = "Bold Italic Jul 28 15, 16:17";
paths = (
{
closed = 1;
nodes = (
"430 532 OFFCURVE",
"325 619 OFFCURVE",
"233 619 CURVE SMOOTH",
"152 619 OFFCURVE",
"34 581 OFFCURVE",
"34 519 CURVE SMOOTH",
"34 470 OFFCURVE",
"60 436 OFFCURVE",
"106 408 CURVE",
"159 443 OFFCURVE",
"198 462 OFFCURVE",
"258 478 CURVE",
"265 390 OFFCURVE",
"215 320 OFFCURVE",
"128 276 CURVE",
"133 296 OFFCURVE",
"137 309 OFFCURVE",
"143 324 CURVE",
"107 364 OFFCURVE",
"37 374 OFFCURVE",
"-17 356 CURVE",
"-28 338 OFFCURVE",
"-32 321 OFFCURVE",
"-32 298 CURVE SMOOTH",
"-32 252 OFFCURVE",
"69 185 OFFCURVE",
"139 185 CURVE SMOOTH",
"228 185 OFFCURVE",
"298 220 OFFCURVE",
"342 278 CURVE",
"370 291 OFFCURVE",
"404 299 OFFCURVE",
"427 295 CURVE",
"441 220 OFFCURVE",
"395 137 OFFCURVE",
"308 89 CURVE",
"331 89 LINE",
"314 107 OFFCURVE",
"298 130 OFFCURVE",
"283 161 CURVE",
"203 161 OFFCURVE",
"147 130 OFFCURVE",
"147 87 CURVE SMOOTH",
"147 42 OFFCURVE",
"230 0 OFFCURVE",
"314 0 CURVE SMOOTH",
"465 0 OFFCURVE",
"617 132 OFFCURVE",
"617 244 CURVE SMOOTH",
"617 301 OFFCURVE",
"574 349 OFFCURVE",
"480 352 CURVE",
"620 397 OFFCURVE",
"694 490 OFFCURVE",
"694 541 CURVE SMOOTH",
"694 605 OFFCURVE",
"633 639 OFFCURVE",
"519 610 CURVE",
"487 528 OFFCURVE",
"451 464 OFFCURVE",
"388 421 CURVE",
"394 413 LINE"
);
}
);
width = 693;
},
{
anchors = (
{
name = abvm;
position = "{341, 642}";
},
{
name = blwm;
position = "{181, -52}";
}
);
associatedMasterId = "AF1B7CCB-9C31-456C-8386-1D362D80AEF6";
background = {
paths = (
{
closed = 1;
nodes = (
"415 532 OFFCURVE",
"310 619 OFFCURVE",
"218 619 CURVE SMOOTH",
"137 619 OFFCURVE",
"19 581 OFFCURVE",
"19 519 CURVE SMOOTH",
"19 470 OFFCURVE",
"45 436 OFFCURVE",
"91 408 CURVE",
"144 443 OFFCURVE",
"183 462 OFFCURVE",
"243 478 CURVE",
"250 390 OFFCURVE",
"200 320 OFFCURVE",
"113 276 CURVE",
"118 296 OFFCURVE",
"122 309 OFFCURVE",
"128 324 CURVE",
"92 364 OFFCURVE",
"22 374 OFFCURVE",
"-32 356 CURVE",
"-43 338 OFFCURVE",
"-47 321 OFFCURVE",
"-47 298 CURVE SMOOTH",
"-47 252 OFFCURVE",
"54 185 OFFCURVE",
"124 185 CURVE SMOOTH",
"213 185 OFFCURVE",
"283 220 OFFCURVE",
"327 278 CURVE",
"355 291 OFFCURVE",
"389 299 OFFCURVE",
"412 295 CURVE",
"426 220 OFFCURVE",
"380 137 OFFCURVE",
"293 89 CURVE",
"316 89 LINE",
"299 107 OFFCURVE",
"283 130 OFFCURVE",
"268 161 CURVE",
"188 161 OFFCURVE",
"132 130 OFFCURVE",
"132 87 CURVE SMOOTH",
"132 42 OFFCURVE",
"215 0 OFFCURVE",
"299 0 CURVE SMOOTH",
"450 0 OFFCURVE",
"602 132 OFFCURVE",
"602 244 CURVE SMOOTH",
"602 301 OFFCURVE",
"559 349 OFFCURVE",
"465 352 CURVE",
"605 397 OFFCURVE",
"679 490 OFFCURVE",
"679 541 CURVE SMOOTH",
"679 605 OFFCURVE",
"618 639 OFFCURVE",
"504 610 CURVE",
"472 528 OFFCURVE",
"436 464 OFFCURVE",
"373 421 CURVE",
"379 413 LINE"
);
}
);
};
layerId = "ECF8C104-7BB0-4AB4-AFAB-184CFD40C5BD";
name = "Bold Italic Oct 4 15, 16:21";
paths = (
{
closed = 1;
nodes = (
"425 525 OFFCURVE",
"315 619 OFFCURVE",
"218 619 CURVE SMOOTH",
"110 619 OFFCURVE",
"20 571 OFFCURVE",
"20 510 CURVE SMOOTH",
"20 480 OFFCURVE",
"38 446 OFFCURVE",
"84 413 CURVE",
"137 448 OFFCURVE",
"176 467 OFFCURVE",
"247 483 CURVE",
"254 399 OFFCURVE",
"201 314 OFFCURVE",
"111 274 CURVE",
"100 305 OFFCURVE",
"95 331 OFFCURVE",
"94 359 CURVE",
"13 388 OFFCURVE",
"-44 351 OFFCURVE",
"-44 298 CURVE SMOOTH",
"-44 247 OFFCURVE",
"54 185 OFFCURVE",
"124 185 CURVE SMOOTH",
"213 185 OFFCURVE",
"283 220 OFFCURVE",
"327 278 CURVE",
"349 294 OFFCURVE",
"386 307 OFFCURVE",
"412 305 CURVE",
"426 230 OFFCURVE",
"380 137 OFFCURVE",
"293 89 CURVE",
"315 85 LINE",
"300 104 OFFCURVE",
"287 129 OFFCURVE",
"275 161 CURVE",
"196 169 OFFCURVE",
"132 130 OFFCURVE",
"132 87 CURVE SMOOTH",
"132 42 OFFCURVE",
"215 0 OFFCURVE",
"299 0 CURVE SMOOTH",
"450 0 OFFCURVE",
"602 132 OFFCURVE",
"602 244 CURVE SMOOTH",
"602 299 OFFCURVE",
"559 355 OFFCURVE",
"465 362 CURVE",
"583 392 OFFCURVE",
"654 479 OFFCURVE",
"654 538 CURVE SMOOTH",
"654 604 OFFCURVE",
"565 642 OFFCURVE",
"483 601 CURVE",
"468 530 OFFCURVE",
"440 466 OFFCURVE",
"370 403 CURVE"
);
}
);
width = 678;
}
);
leftKerningGroup = gjJHA;
rightKerningGroup = gjJHA;
unicode = 0A9D;
},
